<?xml version="1.0" encoding="utf-8"?>
<!-- Generator: Adobe Illustrator 23.0.2, SVG Export Plug-In . SVG Version: 6.00 Build 0)  -->
<svg version="1.1" id="레이어_1" xmlns="http://www.w3.org/2000/svg" xmlns:xlink="http://www.w3.org/1999/xlink" x="0px"
	 y="0px" viewBox="0 0 200 83.8" style="enable-background:new 0 0 200 83.8;" xml:space="preserve">
<style type="text/css">
	.st0{fill:#7A9361;}
</style>
<g>
	<g>
		<g>
			<g>
				<polygon points="93.6,11.7 93.6,55.2 100.5,55.2 100.5,36.5 108.5,36.5 108.5,55.2 116.5,55.2 116.5,12 108.8,12 108.8,30.4 
					100.8,30.4 100.8,11.7 				"/>
			</g>
			<g>
				<polygon points="177.1,11.7 177.1,55.2 184,55.2 184,36.5 192,36.5 192,55.2 200,55.2 200,12 192.3,12 192.3,30.4 184.3,30.4 
					184.3,11.7 				"/>
			</g>
			<g>
				<path d="M137.7,11.9h-8.8l-8,43.5h6.1l1.9-9.9h8.8l2.7,9.6h6.1L137.7,11.9z M129.7,40.1l3.7-21.1l3.5,21.1H129.7z"/>
			</g>
			<g>
				<path d="M170.3,24.1v-7.7c0,0,0-3.7-4.3-4.5h-10.7c0,0-3.7,0.3-4.3,4.5v14.9c0,0,0.3,3.2,3.5,4.3h8.8v14.1h-6.1v-6.9h-6.9v8.8
					c0,0,0.3,3.5,4.3,4.3H166c0,0,3.7-0.3,4.5-5.1V35.1c0,0-0.3-3.7-4.5-4.5h-8.8V17.2h6.1v6.9L170.3,24.1L170.3,24.1z"/>
			</g>
		</g>
		<g>
			<g>
				<path d="M93.6,69.6v-4.9c0-1.4,0.7-2.2,2.1-2.2s2.1,0.8,2.1,2.2v1h-1.3v-1c0-0.6-0.3-0.8-0.7-0.8S95,64.1,95,64.7v5.1
					c0,0.6,0.3,0.8,0.7,0.8s0.7-0.2,0.7-0.8v-1.4h1.3v1.3c0,1.4-0.7,2.2-2.1,2.2C94.3,71.8,93.6,71,93.6,69.6z"/>
			</g>
			<g>
				<path d="M98.7,62.7h2.1c1.5,0,2.1,0.7,2.1,2.1v0.6c0,0.9-0.3,1.5-0.9,1.8v0c0.7,0.2,0.9,0.9,0.9,1.9v1.6c0,0.4,0,0.8,0.2,1.1
					h-1.4c-0.1-0.2-0.1-0.4-0.1-1.1V69c0-0.8-0.2-1.1-0.9-1.1h-0.5v3.9h-1.4L98.7,62.7L98.7,62.7z M100.7,66.5c0.5,0,0.9-0.2,0.9-1
					v-0.7c0-0.6-0.2-0.9-0.7-0.9h-0.6v2.6L100.7,66.5L100.7,66.5z"/>
			</g>
			<g>
				<path d="M105.2,67.9l-1.7-5.2h1.5l1,3.3h0l1-3.3h1.4l-1.7,5.2v3.9h-1.4V67.9z"/>
			</g>
			<g>
				<path d="M109.1,62.7h2.1c1.4,0,2.1,0.8,2.1,2.2v0.9c0,1.4-0.7,2.2-2.1,2.2h-0.7v3.7h-1.4L109.1,62.7L109.1,62.7z M111.1,66.7
					c0.5,0,0.7-0.2,0.7-0.9v-1.1c0-0.6-0.2-0.9-0.7-0.9h-0.7v2.8H111.1z"/>
			</g>
			<g>
				<path d="M115.3,64h-1.5v-1.3h4.4V64h-1.5v7.8h-1.4L115.3,64L115.3,64z"/>
			</g>
			<g>
				<path d="M118.8,69.6v-4.8c0-1.4,0.8-2.3,2.2-2.3c1.4,0,2.2,0.8,2.2,2.3v4.8c0,1.4-0.8,2.3-2.2,2.3
					C119.6,71.8,118.8,71,118.8,69.6z M121.7,69.7v-4.9c0-0.6-0.3-0.9-0.7-0.9c-0.5,0-0.7,0.2-0.7,0.9v4.9c0,0.6,0.3,0.9,0.7,0.9
					C121.5,70.6,121.7,70.3,121.7,69.7z"/>
			</g>
			<g>
				<path d="M126.4,62.7h1.4v9h-1.4V62.7z"/>
			</g>
			<g>
				<path d="M129,62.7h1.8l1.4,5.4h0v-5.4h1.3v9H132l-1.7-6.6h0v6.6H129L129,62.7L129,62.7z"/>
			</g>
			<g>
				<path d="M134.3,62.7h1.4l0.9,7h0l0.9-7h1.3l-1.4,9h-1.9L134.3,62.7z"/>
			</g>
			<g>
				<path d="M139.7,62.7h3.9V64h-2.5v2.4h2v1.3h-2v2.8h2.5v1.3h-3.9V62.7z"/>
			</g>
			<g>
				<path d="M144.3,69.6v-0.5h1.3v0.6c0,0.6,0.3,0.9,0.7,0.9c0.5,0,0.7-0.2,0.7-0.9c0-0.7-0.3-1.2-1.2-2c-1.2-1-1.6-1.8-1.6-2.8
					c0-1.4,0.7-2.2,2.1-2.2c1.4,0,2.1,0.8,2.1,2.3v0.4h-1.3v-0.5c0-0.6-0.3-0.9-0.7-0.9c-0.5,0-0.7,0.2-0.7,0.9c0,0.7,0.3,1.1,1.2,2
					c1.2,1,1.6,1.8,1.6,2.9c0,1.5-0.7,2.3-2.1,2.3C145,71.8,144.3,71,144.3,69.6z"/>
			</g>
			<g>
				<path d="M150.6,64h-1.5v-1.3h4.4V64H152v7.8h-1.4L150.6,64L150.6,64z"/>
			</g>
			<g>
				<path d="M154.3,62.7h2l0.9,6.5h0l0.9-6.5h2v9h-1.3v-6.8h0l-1,6.8h-1.2l-1-6.8h0v6.8h-1.2L154.3,62.7L154.3,62.7z"/>
			</g>
			<g>
				<path d="M161.3,62.7h3.9V64h-2.5v2.4h2v1.3h-2v2.8h2.5v1.3h-3.9V62.7z"/>
			</g>
			<g>
				<path d="M166.2,62.7h1.8l1.4,5.4h0v-5.4h1.3v9h-1.5l-1.7-6.6h0v6.6h-1.3L166.2,62.7L166.2,62.7z"/>
			</g>
			<g>
				<path d="M172.9,64h-1.5v-1.3h4.4V64h-1.5v7.8h-1.4V64z"/>
			</g>
			<g>
				<path d="M178.8,62.7h2.1c1.5,0,2.1,0.7,2.1,2.1v0.4c0,0.9-0.3,1.5-0.9,1.8v0c0.8,0.3,1.1,0.9,1.1,1.9v0.8c0,1.4-0.7,2.1-2.2,2.1
					h-2.2L178.8,62.7L178.8,62.7z M180.8,66.4c0.5,0,0.9-0.2,0.9-1v-0.5c0-0.6-0.2-0.9-0.7-0.9h-0.7v2.4H180.8z M181,70.4
					c0.5,0,0.7-0.2,0.7-0.9v-0.8c0-0.8-0.3-1.1-0.9-1.1h-0.6v2.8H181z"/>
			</g>
			<g>
				<path d="M185.2,62.7h1.9l1.5,9h-1.4l-0.3-1.8v0h-1.6l-0.3,1.8h-1.3L185.2,62.7z M186.8,68.7l-0.6-4.5h0l-0.6,4.5H186.8z"/>
			</g>
			<g>
				<path d="M189.4,62.7h1.8l1.4,5.4h0v-5.4h1.3v9h-1.5l-1.7-6.6h0v6.6h-1.3L189.4,62.7L189.4,62.7z"/>
			</g>
			<g>
				<path d="M195.1,62.7h1.4v3.8l1.8-3.8h1.4L198,66l1.7,5.7h-1.5l-1.2-4l-0.6,1.2v2.9h-1.4L195.1,62.7L195.1,62.7z"/>
			</g>
		</g>
	</g>
	<g>
		<g>
			<path class="st0" d="M29.1,43.7L23,49.8l32.7,32.6c0.8,0.8,2,1.3,3.1,1.3c1.1,0,2.2-0.4,3.1-1.3c1.7-1.7,1.7-4.4,0-6.1L29.1,43.7
				z"/>
			<path class="st0" d="M13.4,40.2l6.1-6.2L7.4,22c-1.7-1.7-4.4-1.7-6.1,0c-1.7,1.7-1.7,4.4,0,6.1L13.4,40.2z"/>
		</g>
		<g>
			<path class="st0" d="M54.7,40.2l6.1-6.2L28,1.4c-1.7-1.7-4.4-1.7-6.1,0c-1.7,1.7-1.7,4.4,0,6.1L54.7,40.2z"/>
			<path class="st0" d="M70.4,43.6l-6.1,6.2l12.1,12.1c0.8,0.8,2,1.3,3.1,1.3c1.1,0,2.2-0.4,3.1-1.3c1.7-1.7,1.7-4.4,0-6.1
				L70.4,43.6z"/>
		</g>
		<g>
			<path class="st0" d="M34.1,64.3L22,76.4c-1.7,1.7-1.7,4.4,0,6.1c0.8,0.8,2,1.3,3.1,1.3c1.1,0,2.2-0.4,3.1-1.3l12.1-12.1
				L34.1,64.3z"/>
			<path class="st0" d="M82.4,21.9c-1.7-1.7-4.4-1.7-6.1,0L43.7,54.7l6.2,6.1L82.4,28C84.1,26.3,84.1,23.6,82.4,21.9z"/>
		</g>
		<g>
			<path class="st0" d="M49.7,19.5L61.8,7.4c1.7-1.7,1.7-4.4,0-6.1c-1.7-1.7-4.4-1.7-6.1,0L43.6,13.4L49.7,19.5z"/>
			<path class="st0" d="M34,23L1.4,55.8c-1.7,1.7-1.7,4.4,0,6.1c0.8,0.8,2,1.3,3.1,1.3c1.1,0,2.2-0.4,3.1-1.3l32.6-32.7L34,23z"/>
		</g>
	</g>
</g>
</svg>
