<?xml version="1.0" encoding="utf-8"?>
<!-- Generator: Adobe Illustrator 23.0.2, SVG Export Plug-In . SVG Version: 6.00 Build 0)  -->
<svg version="1.1" id="레이어_1" xmlns="http://www.w3.org/2000/svg" xmlns:xlink="http://www.w3.org/1999/xlink" x="0px"
	 y="0px" viewBox="0 0 200 81.3" style="enable-background:new 0 0 200 81.3;" xml:space="preserve">
<style type="text/css">
	.st0{fill:#EFA21F;}
	.st1{fill:#9B9DA0;}
</style>
<g>
	<g>
		<ellipse class="st0" cx="10.7" cy="10.8" rx="10.7" ry="10.8"/>
		<path class="st1" d="M36.5,3.5H22.2c1.3,2.1,2.1,4.6,2.1,7.3c0,7.6-6.1,13.7-13.6,13.7c-2.7,0-5.2-0.8-7.3-2.1V81v0.3h18.7V53.5
			H36c0,0,24.1,0.7,24.1-24.3S36.5,3.5,36.5,3.5z M33.2,36.5H22.3h-0.1V20.8v-0.1h11.2c0,0,8,0.2,8,8.1S33.2,36.5,33.2,36.5z"/>
	</g>
	<g>
		<g>
			<rect x="78.8" y="23.2" width="3.7" height="15.2"/>
			<rect x="78.8" y="17.2" width="3.9" height="2.9"/>
			<path d="M94,22.9c-1.7,0-3,0.7-3.7,1.5v-1.1h-4.2v15.2h4.2V28.2c0.1-0.4,0.6-1.8,2.4-1.8c2,0,2.4,1.5,2.4,2v10.1h4V28.4
				C99.1,28.4,98.9,22.9,94,22.9z"/>
			<path d="M139.7,22.9c-1.7,0-3,0.7-3.7,1.5v-1.1h-4.2v15.2h4.2V28.2c0.1-0.4,0.6-1.8,2.4-1.8c2,0,2.4,1.5,2.4,2v10.1h4V28.4
				C144.8,28.4,144.6,22.9,139.7,22.9z"/>
			<path d="M163.3,38.5c1.7,0,3-0.7,3.7-1.5v1.1h4.2V22.9H167v10.3c-0.1,0.4-0.6,1.8-2.4,1.8c-2,0-2.4-1.5-2.4-2V22.9h-4V33
				C158.2,33,158.4,38.5,163.3,38.5z"/>
			<polygon points="114.5,23.4 110.9,23.4 107.7,32.5 104.5,23.4 100.8,23.4 105.8,37.7 106.1,38.5 109.2,38.5 109.5,37.7 			"/>
			<g>
				<path d="M122.4,22.9c-5.9,0-6.6,5.3-6.6,6.2s0,4.4,0,4.4s0.2,5,6.8,5c4.6,0,5.9-2.2,5.9-2.2l-2.2-2.2c0,0-1.5,1.5-4.2,1.5
					s-2.8-2.2-2.8-2.2V32h9.4v-2.6C128.7,29.5,128.7,22.9,122.4,22.9z M119.3,29.5c0-0.7,0.2-3.2,2.9-3.2c2.4,0,2.9,2.2,3,3.2H119.3
					z"/>
			</g>
			<g>
				<path d="M193.8,22.9c-5.9,0-6.6,5.3-6.6,6.2s0,4.4,0,4.4s0.2,5,6.8,5c4.6,0,5.9-2.2,5.9-2.2l-2.2-2.2c0,0-1.5,1.5-4.2,1.5
					s-2.8-2.2-2.8-2.2V32h9.4v-2.6C200,29.5,200,22.9,193.8,22.9z M190.6,29.5c0-0.7,0.2-3.2,2.9-3.2c2.4,0,2.9,2.2,3,3.2H190.6z"/>
			</g>
			<path d="M155.8,26.7v-2.9h-2.8v-4.6h-3.7v4.6h-1.7v2.9h1.7v7.9v0.9c0,0,0,0.9,0.9,1.8c1.1,1.1,2.2,1.1,2.2,1.1h3.3v-3.3
				c0,0-0.7,0-1.7,0s-1.1-0.6-1.1-0.6v-7.9H155.8z"/>
			<path d="M182,23.1c-1.7,0-3.1,1.1-3.9,1.9v-1.5h-3.7v15h3.7v-9.3l0,0c0,0,0.9-2.6,2.6-2.6c1.7,0,2,0.9,2,0.9l2.9-2.9
				C185.7,24.5,184.8,23.1,182,23.1z"/>
		</g>
		<g>
			<polygon points="178.7,58.8 178.9,58.8 178.9,58.8 			"/>
			<path d="M143.1,43.2c-1.7,0-3,0.7-3.7,1.5v-1.1h-4.2v15.2h4.2V48.5c0.1-0.4,0.6-1.8,2.4-1.8c2,0,2.4,1.5,2.4,2v10.1h4V48.7
				C148.3,48.7,148.1,43.2,143.1,43.2z"/>
			<g>
				<path d="M158,43.2c-5.9,0-6.6,5.3-6.6,6.2s0,4.4,0,4.4s0.2,5,6.8,5c4.6,0,5.9-2.2,5.9-2.2l-2.2-2.2c0,0-1.5,1.5-4.2,1.5
					s-2.8-2.2-2.8-2.2v-1.3h9.4v-2.6C164.2,49.8,164.2,43.2,158,43.2z M154.9,49.8c0-0.7,0.2-3.2,2.9-3.2c2.4,0,2.9,2.2,3,3.2H154.9
					z"/>
			</g>
			<path d="M132.3,47.1v-2.9h-2.8v-4.6h-3.7v4.6h-1.7v2.9h1.7V55v0.9c0,0,0,0.9,0.9,1.8c1.1,1.1,2.2,1.1,2.2,1.1h3.3v-3.3
				c0,0-0.7,0-1.7,0c-0.9,0-1.1-0.6-1.1-0.6v-7.9H132.3z"/>
			<path d="M175.1,43.4c-1.7,0-3.1,1.1-3.9,1.9v-1.5h-3.7v15h3.7v-9.3l0,0c0,0,0.9-2.6,2.6-2.6c1.7,0,2,0.9,2,0.9l2.9-2.9
				C178.7,44.9,177.8,43.4,175.1,43.4z"/>
			<path d="M118,43.4c-1.7,0-3.1,1.1-3.9,1.9v-1.5h-3.7v15h3.7v-9.3l0,0c0,0,0.9-2.6,2.6-2.6s2,0.9,2,0.9l2.9-2.9
				C121.7,44.9,120.8,43.4,118,43.4z"/>
			<path d="M91.2,54.4c0,0,0-5,0-7.2s-1.8-4-4.8-4c-2.8,0-3.9,1.3-4,1.4v-1.4h-3.7v20.9h3.7v-6.7c0.8,0.7,2,1.4,3.5,1.4
				C91.6,58.8,91.2,54.4,91.2,54.4z M87.7,53.2c0,0,0,2.4-2.6,2.4c-1.8,0-2.5-1.3-2.7-2.1v-4.9l0,0c0,0,0.3-2.1,2.5-2.1
				s2.8,1.3,2.8,2.4C87.7,50.1,87.7,53.2,87.7,53.2z"/>
			<path d="M101,43.2c0,0-3.7-0.2-5.5,2l2.4,2.2c0,0,1.1-1.1,2.9-1.1c1.8,0,2.9,1.1,2.9,1.1v2h-3.9h-0.4c-1.8,0-4.6,1.3-4.6,4.8
				s2,4.6,5,4.6c2.7,0,3.7-1.3,3.9-1.5v1.5h3.7V47.4C107.4,47.4,107.2,43.2,101,43.2z M102.3,55.7h-2.4c0,0-1.7,0-1.7-1.8
				c0-1.5,1.7-1.7,1.7-1.7h3.9v2C103.4,55.3,102.3,55.7,102.3,55.7z"/>
			<path d="M191.6,44.9l-2.2,2.4c0,0-0.9-1.1-3.3-1.1s-2.6,0.9-2.6,1.7s0.4,1.5,1.3,1.5c0.9,0,3.5,0,3.5,0s3.9,0.2,3.9,4.6
				s-4.8,5-4.8,5h-4c0,0-3.1-0.6-4-2.2l2.4-2.4c0,0,0.9,1.3,2.2,1.3c1.3,0,3.1,0,3.1,0s1.5,0,1.5-1.7c0-1.7-1.5-1.7-1.5-1.7H184
				c0,0-3.9,0.6-3.9-3.9s3.9-5,3.9-5h4.4C188.4,43.4,190.5,43.8,191.6,44.9z"/>
		</g>
	</g>
</g>
</svg>
