<?xml version="1.0" encoding="utf-8"?>
<!-- Generator: Adobe Illustrator 23.0.2, SVG Export Plug-In . SVG Version: 6.00 Build 0)  -->
<svg version="1.1" id="레이어_1" xmlns="http://www.w3.org/2000/svg" xmlns:xlink="http://www.w3.org/1999/xlink" x="0px"
	 y="0px" viewBox="0 0 200 37.4" style="enable-background:new 0 0 200 37.4;" xml:space="preserve">
<style type="text/css">
	.st0{fill:#35ACEF;}
</style>
<g>
	<g>
		<path class="st0" d="M17.7,3.4c8.4,0,15.3,6.8,15.3,15.3S26.1,34,17.7,34S2.5,27.1,2.5,18.7S9.3,3.4,17.7,3.4 M17.7,1
			C7.9,1,0,8.9,0,18.7s7.9,17.7,17.7,17.7s17.7-7.9,17.7-17.7S27.5,1,17.7,1L17.7,1z"/>
	</g>
	<g>
		<path class="st0" d="M34.8,36.8c-0.3,0-0.6-0.1-0.9-0.4L23.5,26c-0.5-0.5-0.5-1.3,0-1.7c0.5-0.5,1.3-0.5,1.7,0l10.5,10.5
			c0.5,0.5,0.5,1.3,0,1.7C35.4,36.7,35.1,36.8,34.8,36.8z"/>
	</g>
	<path class="st0" d="M57.3,37.2c-9.6,0-17.5-7.8-17.5-17.5V1.2c0-0.7,0.6-1.2,1.2-1.2c0.7,0,1.2,0.6,1.2,1.2v18.5
		c0,8.3,6.7,15,15,15s15-6.7,15-15V1.2c0-0.7,0.6-1.2,1.2-1.2c0.7,0,1.2,0.6,1.2,1.2v18.5C74.8,29.3,66.9,37.2,57.3,37.2z"/>
	<g>
		<path class="st0" d="M96.7,3.4c8.4,0,15.3,6.8,15.3,15.3S105.1,34,96.7,34s-15.3-6.8-15.3-15.3S88.3,3.4,96.7,3.4 M96.7,1
			C86.9,1,79,8.9,79,18.7s7.9,17.7,17.7,17.7s17.7-7.9,17.7-17.7S106.5,1,96.7,1L96.7,1z"/>
	</g>
	<path class="st0" d="M122.3,37.4c-0.7,0-1.2-0.6-1.2-1.2V1.2c0-0.7,0.6-1.2,1.2-1.2s1.2,0.6,1.2,1.2v34.9
		C123.5,36.8,122.9,37.4,122.3,37.4z"/>
	<path class="st0" d="M131.4,37.4c-0.7,0-1.2-0.6-1.2-1.2V1.2c0-0.5,0.3-1,0.8-1.2c0.5-0.2,1,0,1.4,0.3l28.1,31.8V1.2
		c0-0.7,0.6-1.2,1.2-1.2c0.7,0,1.2,0.6,1.2,1.2v34.2c0,0.5-0.3,1-0.8,1.2c-0.5,0.2-1,0-1.4-0.3L132.6,4.5v31.7
		C132.6,36.8,132,37.4,131.4,37.4z"/>
	<path class="st0" d="M198.8,3.4h-32c-0.7,0-1.2-0.6-1.2-1.2s0.6-1.2,1.2-1.2h32c0.7,0,1.2,0.6,1.2,1.2S199.4,3.4,198.8,3.4z"/>
	<path class="st0" d="M198.8,19.9h-32c-0.7,0-1.2-0.6-1.2-1.2s0.6-1.2,1.2-1.2h32c0.7,0,1.2,0.6,1.2,1.2S199.4,19.9,198.8,19.9z"/>
	<path class="st0" d="M198.8,36.7h-32c-0.7,0-1.2-0.6-1.2-1.2s0.6-1.2,1.2-1.2h32c0.7,0,1.2,0.6,1.2,1.2S199.4,36.7,198.8,36.7z"/>
</g>
</svg>
