<?xml version="1.0" encoding="utf-8"?>
<!-- Generator: Adobe Illustrator 23.0.2, SVG Export Plug-In . SVG Version: 6.00 Build 0)  -->
<svg version="1.1" id="레이어_1" xmlns="http://www.w3.org/2000/svg" xmlns:xlink="http://www.w3.org/1999/xlink" x="0px"
	 y="0px" viewBox="0 0 100 31" style="enable-background:new 0 0 100 31;" xml:space="preserve">
<style type="text/css">
	.st0{fill:#2D3E49;}
	.st1{fill:#FFFFFF;}
	.st2{fill:#3476B0;}
</style>
<rect y="0" class="st0" width="100" height="31"/>
<g>
	<g>
		<g>
			<polygon class="st1" points="5.6,7.5 5.6,23.6 15.4,23.6 15.4,20.3 8.9,20.3 8.9,7.5 			"/>
		</g>
		<g>
			<rect x="16.9" y="12.3" class="st1" width="3.1" height="11.1"/>
		</g>
		<g>
			<circle class="st1" cx="18.5" cy="9.1" r="2.1"/>
		</g>
		<g>
			<path class="st1" d="M21.7,12.3v11.1h3.1v-7.1c0,0,0-1.2,2.3-1.2c1.5,0,1.7,1.2,1.7,1.2v7.1h3.3v-8.8c0,0-0.5-2.8-3.8-2.8
				S24.8,14,24.8,14v-1.7L21.7,12.3L21.7,12.3z"/>
		</g>
		<g>
			<polygon class="st1" points="33.6,7.5 33.6,23.4 36.8,23.4 36.8,18.6 40.9,23.4 44.9,23.4 40.1,17.3 45,12.3 40.9,12.3 
				36.8,16.5 36.8,7.5 			"/>
		</g>
		<g>
			<path class="st1" d="M55.6,18.6v-2.8c0,0-0.5-3.8-5-3.8s-6,2.5-6,4c0,1.5,0,4.1,0,4.1s0.7,3.6,5.8,3.6c4.1,0,5.1-2.2,5.1-2.2
				l-2.5-2c0,0-2,2-4.3,0.7c-1.3-0.8-0.7-1.7-0.7-1.7L55.6,18.6L55.6,18.6z M50.4,14.6c2,0,2,1.7,2,1.7h-4.3
				C48.1,15.7,48.4,14.6,50.4,14.6z"/>
		</g>
		<g>
			<path class="st1" d="M65.5,7.5v6c0,0-1.5-1.5-3.5-1.5c-2,0-5.1,0.7-5.1,5.8c0,5.1,3.6,5.8,5,5.8c1.3,0,3.6-1.2,3.6-1.2v1.2h3.3
				V7.5H65.5z M65.5,19c0,0-0.5,1.2-2.8,1.2c-2.3,0-2.6-1.7-2.6-2.5c0-2.2,2-2.3,2.6-2.3c2.2,0,2.8,1.2,2.8,1.2V19z"/>
		</g>
	</g>
	<g>
		<path class="st2" d="M93.4,26.7H72.8c-0.5,0-0.9-0.4-0.9-0.9V5.2c0-0.5,0.4-0.9,0.9-0.9h20.7c0.5,0,0.9,0.4,0.9,0.9v20.7
			C94.4,26.3,94,26.7,93.4,26.7z"/>
		<g>
			<g>
				<path class="st1" d="M80.8,12.3v11.1h3.1v-7.1c0,0,0-1.2,2.3-1.2c1.5,0,1.7,1.2,1.7,1.2v7.1h3.3v-8.8c0,0-0.5-2.8-3.8-2.8
					S83.9,14,83.9,14v-1.7L80.8,12.3L80.8,12.3z"/>
			</g>
			<g>
				<rect x="75.1" y="12.3" class="st1" width="3.3" height="11.3"/>
			</g>
			<g>
				<circle class="st1" cx="76.7" cy="9" r="2.2"/>
			</g>
		</g>
	</g>
</g>
</svg>
