<?xml version="1.0" encoding="utf-8"?>
<!-- Generator: Adobe Illustrator 23.0.2, SVG Export Plug-In . SVG Version: 6.00 Build 0)  -->
<svg version="1.1" id="레이어_1" xmlns="http://www.w3.org/2000/svg" xmlns:xlink="http://www.w3.org/1999/xlink" x="0px"
	 y="0px" viewBox="0 0 50 49.9" style="enable-background:new 0 0 50 49.9;" xml:space="preserve">
<g>
	<g>
		<path d="M5.9,8.8l5.6,7.4c0,0,1.9-3.8,6.8-5.9l4,3.9L37.5,3.4C37.5,3.4,20.6-7.1,5.9,8.8z"/>
		<path d="M44.2,41.1l-5.6-7.4c0,0-1.9,3.8-6.8,5.9l-4-3.9L12.6,46.5C12.6,46.5,29.4,57,44.2,41.1z"/>
		<path d="M41.2,6l-7.4,5.6c0,0,3.8,1.9,5.9,6.8l-3.9,4l10.8,15.2C46.6,37.6,57.1,20.8,41.2,6z"/>
		<path d="M8.8,44.1l7.4-5.6c0,0-3.8-1.9-5.9-6.8l3.9-4L3.4,12.5C3.4,12.5-7.1,29.4,8.8,44.1z"/>
	</g>
</g>
</svg>
