<?xml version="1.0" encoding="utf-8"?>
<!-- Generator: Adobe Illustrator 23.0.1, SVG Export Plug-In . SVG Version: 6.00 Build 0)  -->
<svg version="1.1" xmlns="http://www.w3.org/2000/svg" xmlns:xlink="http://www.w3.org/1999/xlink" x="0px" y="0px"
	 viewBox="0 0 1000 582" style="enable-background:new 0 0 1000 582;" xml:space="preserve">
<style type="text/css">
	.st0{display:none;}
	.st1{fill:url(#SVGID_1_);}
	.st2{fill:url(#SVGID_2_);}
	.st3{fill:url(#SVGID_3_);}
	.st4{fill:url(#SVGID_4_);}
	.st5{fill:url(#SVGID_5_);}
	.st6{fill:#FFFFFF;}
	.st7{fill:none;stroke:#000000;stroke-width:22;stroke-linecap:round;stroke-miterlimit:10;}
	.st8{fill:none;stroke:#000000;stroke-width:22;stroke-miterlimit:10;}
</style>
<g id="레이어_1" class="st0">
	
		<image style="display:inline;overflow:visible;" width="512" height="512" xlink:href="79DA174AFC2A075D.jpg"  transform="matrix(1.8163 0 0 1.8163 35.0369 39.6488)">
	</image>
</g>
<g id="레이어_2">
	<g>
		<g>
			<linearGradient id="SVGID_1_" gradientUnits="userSpaceOnUse" x1="157.9535" y1="91.4685" x2="830.9066" y2="449.1759">
				<stop  offset="2.804487e-04" style="stop-color:#35A6D6"/>
				<stop  offset="0.458" style="stop-color:#064A95"/>
				<stop  offset="0.5101" style="stop-color:#04408F"/>
				<stop  offset="0.6879" style="stop-color:#1D3E8D"/>
				<stop  offset="0.9411" style="stop-color:#3E3589"/>
				<stop  offset="0.9974" style="stop-color:#443388"/>
			</linearGradient>
			<path class="st1" d="M758.5,310.1c-6.7-0.8-12.8,4-13.5,10.7c-5.9,50.3-26.9,96.9-60.7,134.9c-4.5,5-4,12.7,1,17.2
				c2.3,2.1,5.2,3.1,8.1,3.1c3.4,0,6.7-1.4,9.1-4.1c37.1-41.7,60.2-93,66.7-148.2C770,317,765.2,310.9,758.5,310.1z"/>
			<linearGradient id="SVGID_2_" gradientUnits="userSpaceOnUse" x1="146.7952" y1="112.4607" x2="819.7482" y2="470.1681">
				<stop  offset="2.804487e-04" style="stop-color:#35A6D6"/>
				<stop  offset="0.458" style="stop-color:#064A95"/>
				<stop  offset="0.5101" style="stop-color:#04408F"/>
				<stop  offset="0.6879" style="stop-color:#1D3E8D"/>
				<stop  offset="0.9411" style="stop-color:#3E3589"/>
				<stop  offset="0.9974" style="stop-color:#443388"/>
			</linearGradient>
			<path class="st2" d="M321.4,103.8c-4.9-4.7-12.6-4.5-17.2,0.4c-38.8,40.5-63.8,91.1-72.2,146.3c-1,6.7,3.6,12.9,10.2,13.9
				c0.6,0.1,1.2,0.1,1.9,0.1c5.9,0,11.1-4.3,12-10.4c7.7-50.2,30.4-96.2,65.7-133.1C326.4,116.1,326.2,108.4,321.4,103.8z"/>
			<linearGradient id="SVGID_3_" gradientUnits="userSpaceOnUse" x1="150.7344" y1="105.0498" x2="823.6874" y2="462.7571">
				<stop  offset="2.804487e-04" style="stop-color:#35A6D6"/>
				<stop  offset="0.458" style="stop-color:#064A95"/>
				<stop  offset="0.5101" style="stop-color:#04408F"/>
				<stop  offset="0.6879" style="stop-color:#1D3E8D"/>
				<stop  offset="0.9411" style="stop-color:#3E3589"/>
				<stop  offset="0.9974" style="stop-color:#443388"/>
			</linearGradient>
			<path class="st3" d="M500.3,0C180.3,0,0.5,249.8,0.5,290.5c0,25.8,175,291.5,499.7,291.5c323.6,0,499.7-265.7,499.7-291.5
				C1000,255.3,816.5,0,500.3,0z M829.3,420.1c-43.8,34.1-91.2,61.2-141,80.5c-9.3,3.6-18.7,6.9-28.2,10c0.7-0.5,1.3-1,2-1.4
				c5.4-4,6.5-11.7,2.5-17.1c-4-5.4-11.7-6.5-17.1-2.5c-28.5,21.3-60.5,35.9-94.6,43.3c-17.4,1.7-34.9,2.6-52.6,2.6
				c-17.9,0-35.6-0.9-53.2-2.7c-42.1-9.2-81.3-29.4-113.7-59c-39.5-36.1-65.9-83.5-75.8-135.4c7.4-4.6,12.3-12.8,12.3-22.1
				c0-14.3-11.6-26-26-26c-14.3,0-26,11.6-26,26c0,10.4,6.2,19.5,15.1,23.6c10.4,58.2,39.7,111.5,83.9,151.9
				c7.2,6.6,14.8,12.8,22.6,18.5c-9.3-3-18.6-6.3-27.7-9.8c-49.8-19.3-97.2-46.3-141-80.5c-42.8-33.4-73-66.6-90.8-88.6
				c-15.8-19.5-25.3-34.3-30.2-42.9c4.4-8.7,13.5-23.7,29.7-43.7c17.3-21.4,47.1-53.8,91-87c43.6-33,91.3-59.1,141.5-77.8
				c11-4.1,22-7.8,33.2-11.1c-0.2,0.1-0.4,0.3-0.6,0.4c-5.5,3.9-6.9,11.5-3,17c3.9,5.5,11.5,6.9,17,3
				c30.9-21.6,65.9-35.7,102.8-41.4c12.9-0.9,25.8-1.4,38.8-1.4c12.6,0,25.2,0.5,37.7,1.3c45.1,7,87.6,26.5,122.5,56.5
				c40.2,34.5,68.2,80.9,79.9,132c-5,4.7-8.2,11.5-8.2,18.9c0,14.3,11.6,26,26,26c14.3,0,26-11.6,26-26c0-12.3-8.6-22.7-20.2-25.3
				c-13-55.8-43.7-106.5-87.6-144.2c-6.5-5.6-13.2-10.8-20.1-15.7c10,3.1,19.9,6.5,29.7,10.2c49.9,18.8,97.5,45.3,141.5,78.6
				c70.3,53.2,110,107.7,122.7,130.3c-5.1,8.8-14.5,23.2-29.8,42.1C902.5,353.4,872.2,386.6,829.3,420.1z"/>
			<linearGradient id="SVGID_4_" gradientUnits="userSpaceOnUse" x1="147.2021" y1="111.6951" x2="820.1552" y2="469.4024">
				<stop  offset="2.804487e-04" style="stop-color:#35A6D6"/>
				<stop  offset="0.458" style="stop-color:#064A95"/>
				<stop  offset="0.5101" style="stop-color:#04408F"/>
				<stop  offset="0.6879" style="stop-color:#1D3E8D"/>
				<stop  offset="0.9411" style="stop-color:#3E3589"/>
				<stop  offset="0.9974" style="stop-color:#443388"/>
			</linearGradient>
			<path class="st4" d="M571.4,230.6c0-38.6-31.3-69.8-69.8-69.8c-38.6,0-69.8,31.3-69.8,69.8c0,24.3,12.4,45.6,31.1,58.1L442,406.2
				c0,9.8,8.1,17.9,17.9,17.9h83.7c9.8,0,17.9-8.1,17.9-17.9l-21.3-117.4C559,276.2,571.4,254.9,571.4,230.6z"/>
			<linearGradient id="SVGID_5_" gradientUnits="userSpaceOnUse" x1="150.3175" y1="105.8341" x2="823.2706" y2="463.5414">
				<stop  offset="2.804487e-04" style="stop-color:#35A6D6"/>
				<stop  offset="0.458" style="stop-color:#064A95"/>
				<stop  offset="0.5101" style="stop-color:#04408F"/>
				<stop  offset="0.6879" style="stop-color:#1D3E8D"/>
				<stop  offset="0.9411" style="stop-color:#3E3589"/>
				<stop  offset="0.9974" style="stop-color:#443388"/>
			</linearGradient>
			<path class="st5" d="M498.7,72.3C378.1,72.3,280,170.4,280,291c0,120.6,98.1,218.6,218.6,218.6c120.6,0,218.7-98.1,218.7-218.6
				C717.3,170.4,619.2,72.3,498.7,72.3z M498.7,485.2c-107.1,0-194.3-87.1-194.3-194.3c0-107.1,87.1-194.3,194.3-194.3
				c107.1,0,194.3,87.1,194.3,194.3C692.9,398.1,605.8,485.2,498.7,485.2z"/>
		</g>
	</g>
	<g>
		<path class="st6" d="M1527.6,748.9c-62.6,0-123.6-11.5-181.1-34.3c-47.5-18.8-92.5-45-133.9-78.1
			c-71.4-57.1-108.7-116.1-114.4-130.5c1.8-6.2,9.9-23,28.4-46.9c15.7-20.4,43.1-51.4,84.5-83.6c64.1-50,171-109.5,316.4-109.5
			c142.3,0,249.1,59.9,313.6,110.2c41.3,32.2,69.4,63.3,85.7,83.7c18.6,23.4,27.4,39.9,29.8,46.4c-6.2,15-43.6,73.4-114.6,130.1
			c-41.4,33.1-86.5,59.3-133.9,78.1C1650.8,737.4,1590,748.9,1527.6,748.9z"/>
		<path d="M1527.6,287.1c57.5,0,113.8,10.3,167.5,30.5c45,17,87.9,40.8,127.6,70.9c63.4,48,99.2,97.1,110.6,117.5
			c-4.6,7.9-13.1,21-26.9,37.9c-16.1,19.8-43.4,49.7-82.1,79.9c-39.5,30.8-82.3,55.2-127.2,72.6c-54,20.9-111,31.5-169.5,31.5
			c-58.8,0-115.9-10.6-170-31.5c-44.9-17.4-87.7-41.8-127.1-72.6c-38.6-30.2-65.8-60.1-81.9-79.9c-14.2-17.6-22.8-30.9-27.2-38.7
			c4-7.8,12.1-21.3,26.8-39.4c15.6-19.3,42.5-48.5,82-78.4c39.4-29.7,82.3-53.3,127.6-70.1C1411.9,297.3,1469,287.1,1527.6,287.1
			 M1527.6,245.1c-288.5,0-450.6,225.2-450.6,261.9c0,23.3,157.8,262.9,450.6,262.9c291.8,0,450.6-239.6,450.6-262.9
			C1978.2,475.4,1812.7,245.1,1527.6,245.1L1527.6,245.1z"/>
	</g>
	<path class="st7" d="M1666.9,695.4c-38.9,29.1-87.3,46.3-139.6,46.3c-121.5,0-221.3-92.8-232.5-211.3"/>
	<path class="st7" d="M1759.2,535.7c-5.7,48.7-26.4,92.8-57.4,127.6"/>
	<path class="st7" d="M1393.6,316.7c37.9-26.5,83.9-42,133.6-42c116.1,0,212.4,84.7,230.5,195.7"/>
	<path class="st7" d="M1296.5,472.6c7.4-48.5,29.8-92.1,62.2-126"/>
	<circle cx="1760.2" cy="475.4" r="23.4"/>
	<circle cx="1296.5" cy="530.3" r="23.4"/>
	<path d="M1560.7,489.2l22.1,122.1c0,8.9-7.3,16.1-16.1,16.1h-75.5c-8.9,0-16.1-7.3-16.1-16.1l21-118.3L1560.7,489.2z"/>
	<circle cx="1528.8" cy="453.1" r="62.9"/>
	<circle class="st8" cx="1526.2" cy="507.5" r="186.2"/>
</g>
</svg>
