<?xml version="1.0" encoding="utf-8"?>
<!-- Generator: Adobe Illustrator 23.0.2, SVG Export Plug-In . SVG Version: 6.00 Build 0)  -->
<svg version="1.1" id="레이어_1" xmlns="http://www.w3.org/2000/svg" xmlns:xlink="http://www.w3.org/1999/xlink" x="0px"
	 y="0px" viewBox="0 0 50 57" style="enable-background:new 0 0 50 57;" xml:space="preserve">
<style type="text/css">
	.st0{fill:#4CACF6;}
</style>
<path class="st0" d="M1.2,13.5L24,0.3c0.7-0.4,1.6-0.4,2.3,0l21.1,12.2c0.8,0.5,0.8,1.7,0,2.2l-10.8,6.1c-0.7,0.4-1.6,0.4-2.3,0
	L26,16.1c-0.5-0.3-1.1-0.3-1.6,0L3.8,28.1c-0.2,0.1-0.2,0.3,0,0.4L24,40.2c0.7,0.4,1.6,0.4,2.3,0l9.7-5.6c0.5-0.3,0.6-0.9,0.2-1.3
	L31,27.7c-0.5-0.5-0.1-1.4,0.6-1.4H50v14.3c0,0.8-0.4,1.6-1.1,2l-22.5,14c-0.7,0.5-1.7,0.5-2.4,0L0,42V15.6C0,14.7,0.4,14,1.2,13.5z
	"/>
</svg>
