<?xml version="1.0" encoding="utf-8"?>
<!-- Generator: Adobe Illustrator 23.0.2, SVG Export Plug-In . SVG Version: 6.00 Build 0)  -->
<svg version="1.1" id="레이어_1" xmlns="http://www.w3.org/2000/svg" xmlns:xlink="http://www.w3.org/1999/xlink" x="0px"
	 y="0px" viewBox="0 0 50 50" style="enable-background:new 0 0 50 50;" xml:space="preserve">
<style type="text/css">
	.st0{fill:#326464;}
	.st1{fill:#598282;}
	.st2{fill:#FBBB31;}
	.st3{fill:#FAAA01;}
</style>
<g>
	<polygon class="st0" points="32.5,32.4 35.5,25 32.4,17.5 25,14.5 25,35.5 	"/>
	<polygon class="st1" points="17.5,17.6 14.5,25 17.6,32.5 25,35.5 25,35.5 25,14.5 25,14.5 	"/>
	<path class="st1" d="M25,50V39.8l0,0l-10.5-4.3L10.2,25l4.3-10.4L7,8.3C6.9,8.4,6.8,8.6,6.8,8.7L0,25l6.6,15.9l0,0
		c0,0,0.5,1,1.1,1.5c0.6,0.5,2.2,1.3,2.2,1.3l0,0L25,50L25,50L25,50z"/>
	<path class="st2" d="M14.5,14.6L25,10.2l0,0V0l0,0L8.3,6.9C8,7.1,7.7,7.4,7.5,7.7C7.3,7.9,7.2,8.1,7,8.3L14.5,14.6L14.5,14.6z"/>
	<path class="st3" d="M43.1,8.3L43.1,8.3c-0.2-0.3-0.4-0.5-0.6-0.7C42.3,7.4,42,7.2,41.8,7L25,0v10.2l10.4,4.3l0,0l0,0L43.1,8.3z"/>
	<path class="st0" d="M43.1,8.3l-7.6,6.3l0,0L39.8,25l-4.3,10.5L25,39.8V50l0,0l16.4-6.8c0.4-0.2,0.8-0.5,1-0.8
		c0.6-0.7,0.9-1.4,0.9-1.4l0.1-0.1L50,25L43.1,8.3z"/>
</g>
</svg>
