<?xml version="1.0" encoding="utf-8"?>
<!-- Generator: Adobe Illustrator 23.0.1, SVG Export Plug-In . SVG Version: 6.00 Build 0)  -->
<svg version="1.1" xmlns="http://www.w3.org/2000/svg" xmlns:xlink="http://www.w3.org/1999/xlink" x="0px" y="0px"
	 viewBox="0 0 975.3 1000" style="enable-background:new 0 0 975.3 1000;" xml:space="preserve">
<style type="text/css">
	.st0{fill:none;stroke:#358A88;stroke-width:77;stroke-linecap:round;stroke-linejoin:round;stroke-miterlimit:10;}
	.st1{fill:none;stroke:#77B6BA;stroke-width:77;stroke-linecap:round;stroke-linejoin:round;stroke-miterlimit:10;}
	.st2{fill:#358A88;}
	.st3{fill:#77B6BA;}
</style>
<g id="레이어_1">
	
		<image style="overflow:visible;" width="229" height="220" xlink:href="135309701C4B0AF3.jpg"  transform="matrix(5.0847 0 0 5.0847 -1283.7579 101.2508)">
	</image>
</g>
<g id="레이어_2">
	<g>
		<polyline class="st0" points="1322.5,477.4 1241.8,396.8 1497.8,140.8 1628.6,271.6 1736.2,164 		"/>
		<polyline class="st1" points="1716.6,375.9 1797.2,456.5 1541.2,712.5 1410.4,581.7 1302.8,689.3 		"/>
	</g>
	<g>
		<g>
			<path class="st2" d="M184.1,637.7c-15.2,0-30.4-5.8-42-17.4L17.8,496c-23.2-23.2-23.2-60.8,0-83.9L412.5,17.4
				c23.2-23.2,60.8-23.2,83.9,0L656.1,177L780,53.1c23.2-23.2,60.8-23.2,83.9,0c23.2,23.2,23.2,60.8,0,83.9L698,302.9
				c-23.2,23.2-60.8,23.2-83.9,0L454.5,143.3L143.7,454l82.3,82.3c23.2,23.2,23.2,60.8,0,83.9C214.5,631.9,199.3,637.7,184.1,637.7z
				"/>
		</g>
		<g>
			<path class="st3" d="M521.3,1000c-15.2,0-30.4-5.8-42-17.4L319.7,823L195.8,946.9c-23.2,23.2-60.8,23.2-83.9,0s-23.2-60.8,0-83.9
				l165.9-165.9c23.2-23.2,60.8-23.2,83.9,0l159.6,159.6L832,546l-82.3-82.3c-23.2-23.2-23.2-60.8,0-83.9
				c23.2-23.2,60.8-23.2,83.9,0L957.9,504c11.1,11.1,17.4,26.2,17.4,42s-6.3,30.8-17.4,42L563.2,982.6
				C551.7,994.2,536.5,1000,521.3,1000z"/>
		</g>
	</g>
</g>
</svg>
