<?xml version="1.0" encoding="utf-8"?>
<!-- Generator: Adobe Illustrator 23.0.1, SVG Export Plug-In . SVG Version: 6.00 Build 0)  -->
<svg version="1.1" xmlns="http://www.w3.org/2000/svg" xmlns:xlink="http://www.w3.org/1999/xlink" x="0px" y="0px"
	 viewBox="0 0 815.8 987.5" style="enable-background:new 0 0 815.8 987.5;" xml:space="preserve">
<style type="text/css">
	.st0{display:none;}
	.st1{fill:#FFFFFF;}
	.st2{fill:#F0D25F;}
	.st3{fill:#C68337;}
	.st4{fill:#E4B24F;}
</style>
<g id="레이어_1" class="st0">
	
		<image style="display:inline;overflow:visible;" width="378" height="324" xlink:href="D97CBE1DAF3FA2C0.png"  transform="matrix(2.8735 0 0 2.8735 -110.551 10)">
	</image>
</g>
<g id="레이어_2">
	<g>
		
			<rect x="1222.7" y="372" transform="matrix(0.7071 0.7071 -0.7071 0.7071 815.9175 -836.2932)" class="st1" width="389.5" height="389.5"/>
		
			<rect x="1222.7" y="256.1" transform="matrix(0.7071 0.7071 -0.7071 0.7071 733.9779 -870.2337)" class="st2" width="389.5" height="389.5"/>
		<polygon class="st3" points="1417.5,726.3 1417.5,842.2 1692.9,566.8 1692.9,450.9 		"/>
		<polygon class="st4" points="1417.5,842.2 1417.5,726.3 1142,450.9 1142,566.8 		"/>
		<g>
			
				<rect x="1250.8" y="284.2" transform="matrix(0.7071 -0.7071 0.7071 0.7071 96.3474 1134.3489)" class="st2" width="333.3" height="333.3"/>
			<path d="M1417.5,235l215.9,215.9l-215.9,215.9l-215.9-215.9L1417.5,235 M1417.5,195.4L1162,450.9l255.5,255.5l255.5-255.5
				L1417.5,195.4L1417.5,195.4z"/>
		</g>
		<g>
			<path d="M1442.5,366l84.9,84.9l-84.9,84.9V366 M1417.5,305.6v290.5l145.2-145.2L1417.5,305.6L1417.5,305.6z"/>
		</g>
	</g>
	<g>
		
			<rect x="119.5" y="291.1" transform="matrix(0.7071 0.7071 -0.7071 0.7071 529.2686 -118.6995)" class="st1" width="576.9" height="576.9"/>
		
			<rect x="119.5" y="119.5" transform="matrix(0.7071 0.7071 -0.7071 0.7071 407.9173 -168.9649)" class="st2" width="576.9" height="576.9"/>
		<polygon class="st3" points="407.9,815.8 407.9,987.5 815.8,579.5 815.8,407.9 		"/>
		<polygon class="st4" points="407.9,987.5 407.9,815.8 0,407.9 0,579.5 		"/>
		<g>
			
				<rect x="161.1" y="161.1" transform="matrix(0.7071 -0.7071 0.7071 0.7071 -168.9646 407.9172)" class="st2" width="493.6" height="493.6"/>
			<path d="M407.9,88.2l319.7,319.7L407.9,727.6L88.2,407.9L407.9,88.2 M407.9,29.6L29.6,407.9l378.3,378.3l378.3-378.3L407.9,29.6
				L407.9,29.6z"/>
		</g>
		<path d="M444.9,282.2l125.7,125.7L444.9,533.6V282.2 M407.9,192.8V623L623,407.9L407.9,192.8L407.9,192.8z"/>
	</g>
</g>
</svg>
