<?xml version="1.0" encoding="utf-8"?>
<!-- Generator: Adobe Illustrator 23.0.1, SVG Export Plug-In . SVG Version: 6.00 Build 0)  -->
<svg version="1.1" xmlns="http://www.w3.org/2000/svg" xmlns:xlink="http://www.w3.org/1999/xlink" x="0px" y="0px"
	 viewBox="0 0 298 300" style="enable-background:new 0 0 298 300;" xml:space="preserve">
<style type="text/css">
	.st0{display:none;}
	.st1{opacity:0.6;fill:#FFFFFF;}
	.st2{fill:#FFFFFF;}
	.st3{fill:#3E8FF7;}
</style>
<g id="레이어_1" class="st0">
	
		<image style="display:inline;overflow:visible;" width="196" height="186" xlink:href="86618287D1BAFBF0.png"  transform="matrix(2.1774 0 0 2.1774 -111 -82)">
	</image>
</g>
<g id="레이어_2">
	<path class="st1" d="M711,206H568c-5.5,0-10-4.5-10-10V53c0-5.5,4.5-10,10-10h143c5.5,0,10,4.5,10,10v143
		C721,201.5,716.5,206,711,206z"/>
	<g>
		<path class="st2" d="M435.6,263h-39.4c-6.7,0-12.2-5.5-12.2-12.2V111.2c0-6.7,5.5-12.2,12.2-12.2h39.4c6.7,0,12.2,5.5,12.2,12.2
			v139.6C447.8,257.5,442.3,263,435.6,263z"/>
	</g>
	<g>
		<path class="st2" d="M384,250.8v-39.4c0-6.7,5.5-12.2,12.2-12.2h139.6c6.7,0,12.2,5.5,12.2,12.2v39.4c0,6.7-5.5,12.2-12.2,12.2
			H396.2C389.5,263,384,257.5,384,250.8z"/>
	</g>
	<path class="st2" d="M464,58h-34c-6.6,0-12-5.4-12-12v-85c0-6.6,5.4-12,12-12h34c6.6,0,12,5.4,12,12v85C476,52.6,470.6,58,464,58z"
		/>
	<path class="st2" d="M428,56V22c0-6.6,5.4-12,12-12h85c6.6,0,12,5.4,12,12v34c0,6.6-5.4,12-12,12h-85C433.4,68,428,62.6,428,56z"/>
	<path class="st2" d="M476,1c0,0-0.9,9.1,9,9c10,0,4,10,4,10l-22,4l-8-21L476,1z"/>
	<g>
		<path class="st3" d="M197.5,217.2H96.2c-11.7-0.4-12.7-10.2-12.8-13.3l-0.3-101.1C83.1,94.1,76,87,67.3,87H16.1
			c-8.7,0-15.8,7.1-15.8,15.8V233v51.2c0,8.7,7.1,15.8,15.8,15.8h51.2h130.2c8.7,0,15.8-7.1,15.8-15.8V233
			C213.3,224.3,206.2,217.2,197.5,217.2z"/>
		<path class="st3" d="M284.7,0H99c-7.1,0-13,5.8-13,13v45.5c0,0,0,10.4,11.7,11.7c0.3,0,0,0,0.7,0h34.3c8.6,0,15.6,7,15.6,15.6
			v53.5c0.2,3.2,1.8,10,11.3,10.2H212c8.6,0,15.6,7,15.6,15.6V200c0,0,0,10.4,11.5,11.5c0.3,0,0.6,0.1,0.9,0.2h44.7
			c7.1,0,13-5.8,13-13V13C297.7,5.8,291.9,0,284.7,0z"/>
	</g>
</g>
</svg>
