<?xml version="1.0" encoding="utf-8"?>
<!-- Generator: Adobe Illustrator 23.0.1, SVG Export Plug-In . SVG Version: 6.00 Build 0)  -->
<svg version="1.1" id="레이어_1" xmlns="http://www.w3.org/2000/svg" xmlns:xlink="http://www.w3.org/1999/xlink" x="0px"
	 y="0px" viewBox="0 0 726.6 1000" style="enable-background:new 0 0 726.6 1000;" xml:space="preserve">
<style type="text/css">
	.st0{fill:#00993E;}
	.st1{fill:#231815;}
	.st2{fill:#0E8C3B;}
	.st3{fill:#457435;}
	.st4{fill:#FFFFFF;}
	.st5{fill:#00993E;stroke:#231815;stroke-linecap:round;stroke-linejoin:round;stroke-miterlimit:10;}
	.st6{fill:#00993E;stroke:#231815;stroke-width:22;stroke-linecap:round;stroke-linejoin:round;stroke-miterlimit:10;}
	.st7{fill:none;stroke:#231815;stroke-width:22;stroke-linejoin:round;stroke-miterlimit:10;}
	.st8{fill:none;stroke:#231815;stroke-width:22;stroke-linecap:round;stroke-linejoin:round;stroke-miterlimit:10;}
	.st9{fill:#FFFFFF;stroke:#231815;stroke-width:22;stroke-linejoin:round;stroke-miterlimit:10;}
</style>
<g>
	<path class="st0" d="M377.4,169.1c0,89-93.3,158.4-93.3,158.4S193,255.9,193,169.1s91.1-158.4,91.1-158.4S377.4,80.2,377.4,169.1z"
		/>
	<path class="st1" d="M284.1,328c-0.1,0-0.2,0-0.3-0.1c-0.2-0.2-23.1-18.3-45.6-46.7c-20.8-26.3-45.7-67.1-45.7-112
		s24.8-85.8,45.7-112c22.6-28.5,45.4-46.6,45.6-46.7c0.2-0.1,0.4-0.1,0.6,0c0.2,0.2,23.6,17.7,46.7,45.9
		c21.3,26,46.8,66.8,46.8,112.9c0,46.1-25.4,86.8-46.8,112.9c-23.1,28.2-46.5,45.7-46.7,45.9C284.3,328,284.2,328,284.1,328z
		 M284.1,11.4c-2.7,2.2-24.1,19.7-45.2,46.4c-20.7,26.2-45.4,66.7-45.4,111.4s24.7,85.3,45.4,111.4c21.1,26.6,42.5,44.1,45.2,46.4
		c2.8-2.1,24.7-19.2,46.3-45.5c21.2-25.9,46.5-66.4,46.5-112.2c0-45.8-25.3-86.3-46.5-112.2C308.8,30.5,286.9,13.5,284.1,11.4z"/>
</g>
<g>
	<path class="st2" d="M284.1,30.3L284.1,30.3v273.4l0,0c0,0,80.3-60.8,80.3-134.5S284.1,30.3,284.1,30.3z"/>
</g>
<g>
	<path class="st3" d="M206,169.1c0,73.8,73.8,134.5,78.1,136.7V30.3C279.8,34.6,206,93.2,206,169.1z"/>
</g>
<g>
	<path class="st0" d="M377.4,169.1c0,89-93.3,158.4-93.3,158.4S193,255.9,193,169.1s91.1-158.4,91.1-158.4S377.4,80.2,377.4,169.1z"
		/>
	<path class="st1" d="M284.1,328c-0.1,0-0.2,0-0.3-0.1c-0.2-0.2-23.1-18.3-45.6-46.7c-20.8-26.3-45.7-67.1-45.7-112
		s24.8-85.8,45.7-112c22.6-28.5,45.4-46.6,45.6-46.7c0.2-0.1,0.4-0.1,0.6,0c0.2,0.2,23.6,17.7,46.7,45.9
		c21.3,26,46.8,66.8,46.8,112.9c0,46.1-25.4,86.8-46.8,112.9c-23.1,28.2-46.5,45.7-46.7,45.9C284.3,328,284.2,328,284.1,328z
		 M284.1,11.4c-2.7,2.2-24.1,19.7-45.2,46.4c-20.7,26.2-45.4,66.7-45.4,111.4s24.7,85.3,45.4,111.4c21.1,26.6,42.5,44.1,45.2,46.4
		c2.8-2.1,24.7-19.2,46.3-45.5c21.2-25.9,46.5-66.4,46.5-112.2c0-45.8-25.3-86.3-46.5-112.2C308.8,30.5,286.9,13.5,284.1,11.4z"/>
</g>
<g>
	<path class="st2" d="M284.1,30.3L284.1,30.3v273.4l0,0c0,0,80.3-60.8,80.3-134.5S284.1,30.3,284.1,30.3z"/>
</g>
<g>
	<path class="st3" d="M206,169.1c0,73.8,73.8,134.5,78.1,136.7V30.3C279.8,34.6,206,93.2,206,169.1z"/>
</g>
<g>
	<path class="st0" d="M377.4,169.1c0,89-93.3,158.4-93.3,158.4S193,255.9,193,169.1s91.1-158.4,91.1-158.4S377.4,80.2,377.4,169.1z"
		/>
	<path class="st1" d="M284.1,338.3c-2.3,0-4.7-0.8-6.6-2.3c-1-0.8-24-19-47.3-48.4c-31.3-39.5-47.9-80.5-47.9-118.4
		s16.6-78.9,47.9-118.4c23.3-29.4,46.4-47.7,47.3-48.4c3.8-3,9.2-3.1,13.1-0.2c1,0.7,24.7,18.5,48.5,47.6
		c32.1,39.2,49.1,80.5,49.1,119.4c0,38.9-17,80.2-49.1,119.4c-23.9,29.2-47.6,46.9-48.5,47.6C288.6,337.6,286.3,338.3,284.1,338.3z
		 M284.3,24.7c-8.2,7.2-23,21.2-37.6,39.8c-19.6,24.8-42.9,63.1-42.9,104.7s23.3,79.9,42.9,104.7c14.6,18.5,29.4,32.5,37.6,39.8
		c8.4-7,23.5-20.8,38.5-39.1c20-24.5,43.9-62.7,43.9-105.4C366.6,100,304.9,42.1,284.3,24.7z"/>
</g>
<g>
	<path class="st2" d="M284.1,30.3L284.1,30.3v273.4l0,0c0,0,80.3-60.8,80.3-134.5S284.1,30.3,284.1,30.3z"/>
</g>
<g>
	<path class="st3" d="M206,169.1c0,73.8,73.8,134.5,78.1,136.7V30.3C279.8,34.6,206,93.2,206,169.1z"/>
</g>
<g>
	<path class="st0" d="M670.3,514.1c-36.9,21.7-91.1,0-91.1,0s6.5-58.6,45.6-80.3c36.9-21.7,91.1,0,91.1,0S707.2,490.3,670.3,514.1z"
		/>
	<path class="st1" d="M630.2,534.5c-28.5,0-53.5-9.8-55-10.4c-4.5-1.8-7.2-6.4-6.7-11.2c0.3-2.6,7.6-64.3,50.9-88.4
		c41-24,98-1.6,100.5-0.6c4.6,1.9,7.4,6.7,6.6,11.6c-0.4,2.5-9.9,61.5-50.4,87.7c-0.1,0.1-0.3,0.2-0.4,0.2
		C661.6,531.8,645.4,534.5,630.2,534.5z M670.3,514.1L670.3,514.1L670.3,514.1z M591.3,506.9c15.4,4.6,49.3,12.1,73.3-1.9
		c24.1-15.8,34.8-48.3,38.7-64c-15.6-4.6-49.3-11.9-73.2,2.1c-0.1,0-0.2,0.1-0.2,0.1C604.4,457.5,594.6,491.1,591.3,506.9z"/>
</g>
<g>
	<path class="st2" d="M707.2,438.2L707.2,438.2l-119.3,67.3l0,0c0,0,45.6,19.5,78.1,0C700.7,488.1,707.2,438.2,707.2,438.2z"/>
</g>
<g>
	<path class="st3" d="M626.7,438.2c-32.5,17.4-39.1,65.1-39.1,67.3L707,438.2C704.9,436,659.3,418.7,626.7,438.2z"/>
</g>
<g>
	<path class="st1" d="M284.1,948c-1.8,0-3.7-0.5-5.3-1.4L57.5,820.7c-3.4-1.9-5.4-5.5-5.4-9.3v-256c0-3.9,2.1-7.4,5.4-9.3
		l221.3-125.8c3.3-1.9,7.4-1.9,10.7,0L508.6,546c3.3,1.9,5.4,5.5,5.4,9.3v256c0,3.8-2.1,7.4-5.4,9.3L289.4,946.6
		C287.8,947.5,285.9,948,284.1,948z M73.5,805.1l210.5,119.7l208.4-119.7V561.6L284.1,441.9L73.5,561.6V805.1z"/>
</g>
<g>
	
		<rect x="162.7" y="493.2" transform="matrix(0.4943 -0.8693 0.8693 0.4943 -451.6556 464.5279)" class="st1" width="21.5" height="254.6"/>
</g>
<g>
	<path class="st1" d="M284.1,698.5c-5.9,0-10.7-4.8-10.7-10.7V169.1c0-5.9,4.8-10.7,10.7-10.7c5.9,0,10.7,4.8,10.7,10.7v518.6
		C294.8,693.7,290,698.5,284.1,698.5z"/>
</g>
<g>
	<path class="st1" d="M284.1,698.5c-3.7,0-7.2-1.9-9.3-5.3c-3-5.1-1.3-11.7,3.8-14.7l351.5-208.3c5.1-3,11.7-1.3,14.7,3.8
		c3,5.1,1.3,11.7-3.8,14.7L289.6,697C287.9,698,286,698.5,284.1,698.5z"/>
</g>
<g>
	
		<rect x="382.9" y="623.7" transform="matrix(0.4915 -0.8709 0.8709 0.4915 -452.5992 723.9993)" class="st1" width="21.5" height="251.6"/>
</g>
<g>
	<rect x="273.3" y="687.7" class="st1" width="21.5" height="249.5"/>
</g>
<g>
	
		<rect x="45.6" y="736.6" transform="matrix(0.8656 -0.5007 0.5007 0.8656 -350.9279 187.2845)" class="st1" width="255.7" height="21.5"/>
</g>
<g>
	<circle class="st4" cx="284.1" cy="683.4" r="52.1"/>
	<path class="st1" d="M284.1,746.2c-34.6,0-62.8-28.2-62.8-62.8c0-34.6,28.2-62.8,62.8-62.8s62.8,28.2,62.8,62.8
		C346.9,718,318.7,746.2,284.1,746.2z M284.1,642.1c-22.8,0-41.3,18.5-41.3,41.3c0,22.8,18.5,41.3,41.3,41.3s41.3-18.5,41.3-41.3
		C325.4,660.6,306.9,642.1,284.1,642.1z"/>
</g>
<g>
	<circle class="st4" cx="284.1" cy="429.5" r="52.1"/>
	<path class="st1" d="M284.1,492.3c-34.6,0-62.8-28.2-62.8-62.8s28.2-62.8,62.8-62.8s62.8,28.2,62.8,62.8S318.7,492.3,284.1,492.3z
		 M284.1,388.2c-22.8,0-41.3,18.5-41.3,41.3c0,22.8,18.5,41.3,41.3,41.3s41.3-18.5,41.3-41.3C325.4,406.7,306.9,388.2,284.1,388.2z"
		/>
</g>
<g>
	<circle class="st4" cx="503.2" cy="557.5" r="52.1"/>
	<path class="st1" d="M503.2,620.4c-34.6,0-62.8-28.2-62.8-62.8c0-34.6,28.2-62.8,62.8-62.8s62.8,28.2,62.8,62.8
		C566.1,592.2,537.9,620.4,503.2,620.4z M503.2,516.2c-22.8,0-41.3,18.5-41.3,41.3c0,22.8,18.5,41.3,41.3,41.3
		c22.8,0,41.3-18.5,41.3-41.3C544.6,534.7,526,516.2,503.2,516.2z"/>
</g>
<g>
	<circle class="st4" cx="503.2" cy="811.4" r="52.1"/>
	<path class="st1" d="M503.2,874.2c-34.6,0-62.8-28.2-62.8-62.8c0-34.6,28.2-62.8,62.8-62.8s62.8,28.2,62.8,62.8
		C566.1,846,537.9,874.2,503.2,874.2z M503.2,770.1c-22.8,0-41.3,18.5-41.3,41.3c0,22.8,18.5,41.3,41.3,41.3
		c22.8,0,41.3-18.5,41.3-41.3C544.6,788.6,526,770.1,503.2,770.1z"/>
</g>
<g>
	<circle class="st4" cx="284.1" cy="937.3" r="52.1"/>
	<path class="st1" d="M284.1,1000.1c-34.6,0-62.8-28.2-62.8-62.8c0-34.6,28.2-62.8,62.8-62.8s62.8,28.2,62.8,62.8
		C346.9,971.9,318.7,1000.1,284.1,1000.1z M284.1,895.9c-22.8,0-41.3,18.5-41.3,41.3c0,22.8,18.5,41.3,41.3,41.3
		s41.3-18.5,41.3-41.3C325.4,914.5,306.9,895.9,284.1,895.9z"/>
</g>
<g>
	<circle class="st4" cx="62.8" cy="811.4" r="52.1"/>
	<path class="st1" d="M62.8,874.2c-34.6,0-62.8-28.2-62.8-62.8c0-34.6,28.2-62.8,62.8-62.8s62.8,28.2,62.8,62.8
		C125.6,846,97.4,874.2,62.8,874.2z M62.8,770.1c-22.8,0-41.3,18.5-41.3,41.3c0,22.8,18.5,41.3,41.3,41.3s41.3-18.5,41.3-41.3
		C104.1,788.6,85.6,770.1,62.8,770.1z"/>
</g>
<g>
	<circle class="st4" cx="62.8" cy="557.5" r="52.1"/>
	<path class="st1" d="M62.8,620.4c-34.6,0-62.8-28.2-62.8-62.8c0-34.6,28.2-62.8,62.8-62.8s62.8,28.2,62.8,62.8
		C125.6,592.2,97.4,620.4,62.8,620.4z M62.8,516.2c-22.8,0-41.3,18.5-41.3,41.3c0,22.8,18.5,41.3,41.3,41.3s41.3-18.5,41.3-41.3
		C104.1,534.7,85.6,516.2,62.8,516.2z"/>
</g>
<path class="st5" d="M-456,162.1c0,91-95.5,162.1-95.5,162.1s-93.3-73.3-93.3-162.1S-551.5,0-551.5,0S-456,71.1-456,162.1z"/>
<path class="st2" d="M-551.5,20L-551.5,20v279.8l0,0c0,0,82.2-62.2,82.2-137.7S-551.5,20-551.5,20z"/>
<path class="st3" d="M-631.4,162.1c0,75.5,75.5,137.7,79.9,139.9V20C-556,24.4-631.4,84.4-631.4,162.1z"/>
<path class="st5" d="M-456,162.1c0,91-95.5,162.1-95.5,162.1s-93.3-73.3-93.3-162.1S-551.5,0-551.5,0S-456,71.1-456,162.1z"/>
<path class="st2" d="M-551.5,20L-551.5,20v279.8l0,0c0,0,82.2-62.2,82.2-137.7S-551.5,20-551.5,20z"/>
<path class="st3" d="M-631.4,162.1c0,75.5,75.5,137.7,79.9,139.9V20C-556,24.4-631.4,84.4-631.4,162.1z"/>
<path class="st6" d="M-456,162.1c0,91-95.5,162.1-95.5,162.1s-93.3-73.3-93.3-162.1S-551.5,0-551.5,0S-456,71.1-456,162.1z"/>
<path class="st2" d="M-551.5,20L-551.5,20v279.8l0,0c0,0,82.2-62.2,82.2-137.7S-551.5,20-551.5,20z"/>
<path class="st3" d="M-631.4,162.1c0,75.5,75.5,137.7,79.9,139.9V20C-556,24.4-631.4,84.4-631.4,162.1z"/>
<path class="st6" d="M-156.3,515.1c-37.7,22.2-93.3,0-93.3,0s6.7-60,46.6-82.2c37.7-22.2,93.3,0,93.3,0S-118.5,490.7-156.3,515.1z"
	/>
<path class="st2" d="M-118.5,437.4L-118.5,437.4l-122.1,68.8l0,0c0,0,46.6,20,79.9,0C-125.2,488.5-118.5,437.4-118.5,437.4z"/>
<path class="st3" d="M-200.7,439.6c-33.3,17.8-40,66.6-40,68.8l122.1-68.8C-120.8,437.4-167.4,419.7-200.7,439.6z"/>
<polygon class="st7" points="-778,557.3 -778,819.3 -551.5,948.1 -327.3,819.3 -327.3,557.3 -551.5,428.5 "/>
<line class="st7" x1="-778" y1="559.5" x2="-551.5" y2="688.3"/>
<line class="st8" x1="-551.5" y1="162.1" x2="-551.5" y2="692.8"/>
<line class="st8" x1="-191.8" y1="479.6" x2="-551.5" y2="692.8"/>
<line class="st7" x1="-327.3" y1="819.3" x2="-551.5" y2="692.8"/>
<line class="st7" x1="-551.5" y1="948.1" x2="-551.5" y2="692.8"/>
<line class="st7" x1="-778" y1="819.3" x2="-551.5" y2="688.3"/>
<circle class="st9" cx="-551.5" cy="688.3" r="53.3"/>
<circle class="st9" cx="-551.5" cy="428.5" r="53.3"/>
<circle class="st9" cx="-327.3" cy="559.5" r="53.3"/>
<circle class="st9" cx="-327.3" cy="819.3" r="53.3"/>
<circle class="st9" cx="-551.5" cy="948.1" r="53.3"/>
<circle class="st9" cx="-778" cy="819.3" r="53.3"/>
<circle class="st9" cx="-778" cy="559.5" r="53.3"/>
</svg>
