<?xml version="1.0" encoding="utf-8"?>
<!-- Generator: Adobe Illustrator 23.0.1, SVG Export Plug-In . SVG Version: 6.00 Build 0)  -->
<svg version="1.1" id="Layer_1" xmlns="http://www.w3.org/2000/svg" xmlns:xlink="http://www.w3.org/1999/xlink" x="0px" y="0px"
	 viewBox="0 0 1000 1000" style="enable-background:new 0 0 1000 1000;" xml:space="preserve">
<style type="text/css">
	.st0{fill:#37AEE2;}
	.st1{fill:#AFCBDE;}
	.st2{fill:#FFFFFF;}
	.st3{fill:#C8DAEA;}
</style>
<g>
	<circle class="st0" cx="500" cy="500" r="500"/>
	<g>
		<polygon class="st1" points="471,577.4 416.1,596.8 409.7,716.1 403.2,722.6 496.8,641.9 496.8,590.3 		"/>
		<path class="st2" d="M241.9,525.8c0,0-32.3,0-35.5-22.6c0-19.4,35.5-25.8,35.5-25.8L706.5,300c0,0,12.9-6.5,25.8,6.5
			c12.9,12.9,6.5,32.3,6.5,32.3l-80.6,387.1c0,0,3.2,12.9-16.1,19.4C622.6,751.6,600,729,600,729L416.1,596.8l-64.5-35.5
			L241.9,525.8z"/>
		<path class="st3" d="M351.6,561.3c0,0,280.6-187.1,290.3-180.6c6.5,6.5-6.5,16.1-6.5,16.1l-219.4,200l-6.5,119.4
			c0,0-6.5,19.4-19.4,0C374.2,696.8,351.6,561.3,351.6,561.3z"/>
	</g>
</g>
</svg>
