<?xml version="1.0" encoding="utf-8"?>
<!-- Generator: Adobe Illustrator 23.0.2, SVG Export Plug-In . SVG Version: 6.00 Build 0)  -->
<svg version="1.1" id="레이어_1" xmlns="http://www.w3.org/2000/svg" xmlns:xlink="http://www.w3.org/1999/xlink" x="0px"
	 y="0px" viewBox="0 0 50 31.2" style="enable-background:new 0 0 50 31.2;" xml:space="preserve">
<g>
	<path d="M0,15c4.5-5,9.1-9.9,13.7-15C17.5,4.1,21.2,8,25,12c3.7-4,7.4-8,11.2-12C37.7,1.6,49.6,14.7,50,15.3c0,0.3,0,0.6,0,0.9
		c-4.6,5-9.2,9.9-13.9,15c-3.7-4-7.4-8-11.1-12.1c-3.7,4-7.4,8-11.2,12C13.6,30.9,0.3,16.4,0,15.9C0,15.6,0,15.3,0,15z M13.8,24
		c2.7-2.9,5.4-5.8,8-8.6c-2.7-2.8-5.3-5.5-8-8.3c-2.4,2.6-4.7,5-7,7.5c-0.5,0.5-0.7,1.2-0.1,1.8C9.1,18.9,11.4,21.4,13.8,24z
		 M36.2,23.9c2.2-2.4,4.4-4.6,6.4-7c0.9-1,0.8-1.8-0.1-2.9c-0.7-0.8-1.5-1.7-2.2-2.5c-1.4-1.5-2.8-3-4.3-4.5
		c-2.7,2.9-5.3,5.7-7.9,8.5C30.9,18.4,33.5,21.1,36.2,23.9z"/>
</g>
</svg>
