<?xml version="1.0" encoding="utf-8"?>
<!-- Generator: Adobe Illustrator 23.0.2, SVG Export Plug-In . SVG Version: 6.00 Build 0)  -->
<svg version="1.1" id="Layer_1" xmlns="http://www.w3.org/2000/svg" xmlns:xlink="http://www.w3.org/1999/xlink" x="0px" y="0px"
	 viewBox="0 0 51 78" style="enable-background:new 0 0 51 78;" xml:space="preserve">
<style type="text/css">
	.st0{fill:none;stroke:#000000;stroke-width:0.75;stroke-linejoin:round;stroke-miterlimit:10;}
	.st1{fill:none;stroke:#000000;stroke-width:0.75;stroke-linecap:round;stroke-miterlimit:10;}
</style>
<g>
	<path class="st0" d="M45.4,27.2c-1,1.6-2.8,2.9-4.9,3.1c-4.5,0.3-7.6-1.2-8.8-2.9c0,0,1.4,0.2,2.6-0.3c1.2-0.5,2.8-1.7,4.3-1.9
		c5.9-0.5,11.3,4,11.8,9.9c0.5,5.9-4,11.3-9.9,11.8"/>
	<path class="st0" d="M34.9,10.2c1,1.6,1.2,4,0.2,5.9c-1.9,4.2-4.9,5.9-6.9,6.2c0,0,1-1.2,1-2.4c0-1.4-0.2-3.1,0.3-4.7
		c2.6-5.5,9-7.8,14.4-5.4s7.8,9,5.4,14.4"/>
	<path class="st0" d="M15.1,10.7c1.9,0,4,1,5.2,2.8c2.8,3.8,2.8,7.3,1.9,9c0,0-0.5-1.4-1.6-1.9c-1.2-0.5-2.9-1.4-3.8-2.8
		C13.4,13,14.4,6.2,19.4,2.7S31,0.3,34.5,5.3"/>
	<path class="st0" d="M5.6,28.2c1-1.6,2.8-2.9,4.9-3.1c4.5-0.3,7.6,1.2,8.8,2.9c0,0-1.4-0.2-2.6,0.3c-1.2,0.5-2.8,1.7-4.3,1.9
		c-5.9,0.5-11.3-4-11.8-9.9s4-11.3,9.9-11.8"/>
	<path class="st0" d="M16.1,45c-1-1.6-1.2-4-0.2-5.9c1.9-4.2,4.9-5.9,6.9-6.2c0,0-1,1.2-1,2.4c0,1.2,0.2,3.1-0.3,4.7
		c-2.6,5.5-9,7.8-14.4,5.4c-5.5-2.6-7.8-9-5.4-14.4"/>
	<path class="st0" d="M36.2,44.9c-1.9,0-4.3-1.2-5.5-3.1c-2.8-3.8-2.8-7.3-1.9-9c0,0,0.5,1.4,1.6,1.9c1.2,0.5,2.9,1.4,3.8,2.8
		c3.5,4.9,2.1,9.7-0.3,12.7L20.1,61.5"/>
	<line class="st1" x1="16.3" y1="47.8" x2="23.4" y2="55.8"/>
	<line class="st1" x1="29.8" y1="57.9" x2="20.3" y2="65.5"/>
	<line class="st1" x1="29.8" y1="61.9" x2="20.3" y2="69.7"/>
	<polyline class="st1" points="29.8,66.5 16.5,77.3 12.5,77.3 	"/>
	<polyline class="st1" points="27.4,72.1 33.8,77.3 37.6,77.3 	"/>
</g>
</svg>
