<?xml version="1.0" encoding="utf-8"?>
<!-- Generator: Adobe Illustrator 23.0.1, SVG Export Plug-In . SVG Version: 6.00 Build 0)  -->
<svg version="1.1" xmlns="http://www.w3.org/2000/svg" xmlns:xlink="http://www.w3.org/1999/xlink" x="0px" y="0px"
	 viewBox="0 0 200 200" style="enable-background:new 0 0 200 200;" xml:space="preserve">
<style type="text/css">
	.st0{display:none;}
	.st1{display:inline;}
	.st2{fill:#09798F;}
	.st3{fill:#49C1BF;}
	.st4{fill:#298E9A;}
	.st5{fill:#FFFFFF;}
	.st6{fill:#F7931A;}
	.st7{fill:#111111;}
	.st8{fill:#CE51A4;}
</style>
<g id="레이어_2" class="st0">
	<g class="st1">
		<polygon class="st2" points="29.4,12.3 58.5,0 170.6,52.7 142.3,65.8 		"/>
		<polygon class="st3" points="142.3,65.8 29.4,12.3 29.4,41.5 107.2,78.9 28.8,117.2 28.8,146.3 142.1,200 142.1,169.9 65.4,134.2 
			142.2,95.7 		"/>
		<polyline class="st4" points="142.3,95.8 170.8,82.1 170.6,52.7 142.3,65.8 		"/>
		<polygon class="st4" points="142.2,109.9 142.1,200 171.2,187.8 170.8,97.4 		"/>
	</g>
	<g class="st1">
		<g>
			<polygon class="st5" points="274.6,12.3 303.5,0.1 415.4,52.7 387.3,65.7 			"/>
			<path d="M303.5,0.2l111.7,52.5l-27.9,12.9L274.8,12.3L303.5,0.2 M303.5,0l-29.2,12.3l112.9,53.5l28.4-13.1L303.5,0L303.5,0z"/>
		</g>
		<g>
			<polygon class="st5" points="274.5,41.4 274.5,12.5 387.2,65.8 387.1,95.6 			"/>
			<path d="M274.6,12.7l112.5,53.3l0,29.5l-112.4-54V12.7 M274.4,12.3v29.2l112.8,54.2l0-29.9L274.4,12.3L274.4,12.3z"/>
		</g>
		<g>
			<polygon class="st5" points="273.9,146.3 273.9,117.3 387,169.9 387,199.8 			"/>
			<path d="M274,117.5L386.9,170l0,29.7L274,146.2V117.5 M273.8,117.2v29.2L387.1,200l0-30.1L273.8,117.2L273.8,117.2z"/>
		</g>
		<g>
			<polygon class="st5" points="275,136.2 273.9,117.2 368,71.3 382.5,73.5 383.6,82.4 387.1,95.7 299.6,139.5 			"/>
			<path d="M368,71.4l14.4,2.2l1.1,8.8l3.5,13.1l-87.4,43.8l-24.4-3.3l-1.1-18.8L368,71.4 M368,71.2l-94.2,46l1.1,19.1l24.7,3.4
				l87.6-43.9l-3.5-13.3l-1.1-9L368,71.2L368,71.2z"/>
		</g>
		<g>
			<g>
				<polygon class="st5" points="387.4,65.8 415.5,52.9 415.7,82.1 387.3,95.6 				"/>
				<path d="M415.4,53l0.1,29l-28.1,13.5l0-29.6L415.4,53 M415.6,52.7l-28.4,13.1l0,33.6l0-3.6l28.5-13.7L415.6,52.7L415.6,52.7z"/>
			</g>
			<g>
				<polygon class="st5" points="387.3,110 415.7,97.6 416.1,187.8 387.2,199.8 				"/>
				<path d="M415.6,97.7l0.4,90l-28.7,12l0.1-89.6L415.6,97.7 M415.8,97.4l-28.6,12.5l-0.1,90.1l29.1-12.2L415.8,97.4L415.8,97.4z"
					/>
			</g>
		</g>
	</g>
</g>
<g id="레이어_4">
	<g>
		<circle class="st6" cx="100" cy="100" r="100"/>
		<path class="st5" d="M143.3,89.3c2.9-11.4-0.8-20.4-15.9-26.7c-4.5-1.9-5.5-2.1-5.5-2.1l4.7-17.9l-11.1-2.9l-4.5,17.5l-8.7-2.1
			l4.3-17.5l-10.9-2.7l-4.5,17.7l-22.2-5.5l-2.9,11.9l8.5,2c0,0,5.7,1.3,4.5,7.3c-1.3,6-12.1,48.1-12.1,48.1s-0.4,3.2-3.9,3.1
			c-3.5-0.1-9-2.2-9-2.2l-5.6,12.5l22.1,5.7l-4.5,18.3l10.9,2.8l4.7-18.1l8.5,2.3l-4.4,17.8l10.8,2.9l4.9-18.1c0,0,31,8.8,38.3-14.3
			c6.3-19.1-4.7-24.1-9.7-27.3C130.1,101.9,140.5,100.7,143.3,89.3z M118.6,122.1c-4.1,11.3-25.1,5.2-25.1,5.2l-8.3-1.9l6-24.3
			c0,0,0.2-0.2,9.3,2.3S122.7,110.9,118.6,122.1z M122.1,86.3c-3.5,10.7-20.3,5.8-20.3,5.8l-7.8-1.9l5.5-22.1c0,0,0.4,0.1,6.8,1.7
			C112.8,71.5,125.7,75.6,122.1,86.3z"/>
	</g>
</g>
<g id="레이어_6" class="st0">
	<g class="st1">
		<circle cx="83.8" cy="72.5" r="13.2"/>
		<circle cx="115" cy="72.5" r="13.2"/>
		<circle cx="130.5" cy="100" r="13.2"/>
		<circle cx="115" cy="126.3" r="13.2"/>
		<circle cx="83.8" cy="127.5" r="13.2"/>
		<circle cx="68.3" cy="100" r="13.2"/>
		<circle cx="52.7" cy="72.5" r="8.4"/>
		<circle cx="99.4" cy="44.9" r="8.4"/>
		<circle cx="146.1" cy="72.5" r="8.4"/>
		<circle cx="146.1" cy="126.3" r="8.4"/>
		<circle cx="99.4" cy="153.9" r="8.4"/>
		<circle cx="52.7" cy="126.3" r="8.4"/>
		<circle cx="29.9" cy="100" r="7.2"/>
		<circle cx="63.5" cy="38.9" r="7.2"/>
		<circle cx="134.1" cy="38.9" r="7.2"/>
		<circle cx="168.9" cy="100" r="7.2"/>
		<circle cx="134.1" cy="161.1" r="7.2"/>
		<circle cx="64.7" cy="161.1" r="7.2"/>
		<circle cx="25.1" cy="143.1" r="6"/>
		<circle cx="25.1" cy="56.9" r="6"/>
		<circle cx="99.4" cy="13.8" r="6"/>
		<circle cx="173.7" cy="56.9" r="6"/>
		<circle cx="173.7" cy="143.1" r="6"/>
		<circle cx="99.4" cy="186.2" r="6"/>
		<circle cx="195.2" cy="100" r="4.8"/>
		<circle cx="147.3" cy="181.4" r="4.8"/>
		<circle cx="51.5" cy="182.6" r="4.8"/>
		<circle cx="4.8" cy="100" r="4.8"/>
		<circle cx="51.5" cy="17.4" r="4.8"/>
		<circle cx="147.3" cy="17.4" r="4.8"/>
	</g>
</g>
<g id="레이어_8" class="st0">
	<g class="st1">
		<circle class="st7" cx="100.5" cy="12.8" r="12.8"/>
		<circle class="st7" cx="100.5" cy="55.9" r="12.8"/>
		<circle class="st8" cx="100.5" cy="100" r="12.8"/>
		<circle class="st7" cx="100.5" cy="143.1" r="12.8"/>
		<circle class="st7" cx="100.5" cy="187.2" r="12.8"/>
		<circle class="st7" cx="140" cy="33.3" r="12.8"/>
		<circle class="st7" cx="140" cy="77.4" r="12.8"/>
		<circle class="st7" cx="140" cy="120.5" r="12.8"/>
		<circle class="st7" cx="140" cy="164.6" r="12.8"/>
		<circle class="st7" cx="62.1" cy="33.3" r="12.8"/>
		<circle class="st7" cx="62.1" cy="77.4" r="12.8"/>
		<circle class="st7" cx="62.1" cy="120.5" r="12.8"/>
		<circle class="st7" cx="62.1" cy="164.6" r="12.8"/>
		<circle class="st7" cx="177.9" cy="55.9" r="12.8"/>
		<circle class="st7" cx="177.9" cy="99" r="12.8"/>
		<circle class="st7" cx="177.9" cy="143.1" r="12.8"/>
		<circle class="st7" cx="22.1" cy="55.9" r="12.8"/>
		<circle class="st7" cx="22.1" cy="99" r="12.8"/>
		<circle class="st7" cx="22.1" cy="143.1" r="12.8"/>
	</g>
</g>
</svg>
