<?xml version="1.0" encoding="utf-8"?>
<!-- Generator: Adobe Illustrator 23.0.1, SVG Export Plug-In . SVG Version: 6.00 Build 0)  -->
<svg version="1.1" xmlns="http://www.w3.org/2000/svg" xmlns:xlink="http://www.w3.org/1999/xlink" x="0px" y="0px"
	 viewBox="0 0 100 100" style="enable-background:new 0 0 100 100;" xml:space="preserve">
<style type="text/css">
	.st0{display:none;}
	.st1{display:inline;}
	.st2{fill:none;stroke:#000000;stroke-width:3;stroke-linecap:round;stroke-miterlimit:10;}
	.st3{fill:none;stroke:#000000;stroke-width:0.75;stroke-linecap:round;stroke-miterlimit:10;stroke-dasharray:3.0426,3.0426;}
	.st4{display:inline;fill:none;stroke:#000000;stroke-width:3;stroke-linecap:round;stroke-miterlimit:10;}
	.st5{fill:none;}
	.st6{fill:#030104;}
	.st7{display:inline;fill:none;stroke:#030104;stroke-linecap:round;stroke-miterlimit:10;}
	.st8{fill:none;stroke:#000000;stroke-miterlimit:10;}
	.st9{display:inline;fill:none;stroke:#000000;stroke-miterlimit:10;}
</style>
<g id="레이어_1">
	
		<image style="overflow:visible;" width="236" height="758" xlink:href="스크린샷 2019-03-18 오후 2.13.02.png"  transform="matrix(0.1148 0 0 0.1148 -39 5)">
	</image>
</g>
<g id="레이어_3" class="st0">
	<g class="st1">
		<circle cx="72" cy="29" r="13.5"/>
		<path d="M85.5,58v34.6c0,0.9-0.8,1.7-1.7,1.7H60.2c-0.9,0-1.7-0.8-1.7-1.7V58c0-7.5,6-13.5,13.5-13.5S85.5,50.5,85.5,58z"/>
		<line class="st2" x1="51" y1="24" x2="14" y2="10.5"/>
		<line class="st2" x1="51" y1="33" x2="14" y2="32.5"/>
		<line class="st2" x1="51" y1="42" x2="14" y2="53.5"/>
	</g>
</g>
<g id="레이어_4" class="st0">
	<g class="st1">
		<path class="st2" d="M183.2,133.1c-4.3,2.2-9.1,3.4-14.2,3.4c-6.3,0-12.2-1.8-17.1-5"/>
		<path class="st2" d="M179,75.1c12.5,4.2,21.5,16,21.5,29.9c0,2.1-0.2,4.2-0.6,6.3"/>
		<path class="st2" d="M138,110.5c-0.3-1.8-0.5-3.6-0.5-5.5c0-13.8,8.9-25.6,21.3-29.8"/>
	</g>
	<g class="st1">
		<circle class="st3" cx="169" cy="105.5" r="15.5"/>
	</g>
	<circle class="st4" cx="51" cy="166" r="31.5"/>
	<g class="st1">
		<rect x="190.7" y="124.2" class="st5" width="2" height="5.3"/>
		<rect x="190.7" y="116.5" class="st5" width="2" height="5.3"/>
		<rect x="187.3" y="131.5" width="2" height="2"/>
		<rect x="187.3" y="112.5" width="2" height="2"/>
		<rect x="189.3" y="124.2" class="st5" width="1.3" height="5.3"/>
		<path class="st5" d="M197,129.5c1.9,0,3.4-1.2,3.4-2.7c0-1.5-1.5-2.7-3.4-2.7h-4.3v5.3H197z"/>
		<rect x="189.3" y="116.5" class="st5" width="1.3" height="5.3"/>
		<path class="st5" d="M197,121.8c1.9,0,3.4-1.2,3.4-2.7c0-1.5-1.5-2.7-3.4-2.7h-4.3v5.3H197z"/>
		<rect x="190.7" y="112.5" width="2" height="2"/>
		<rect x="190.7" y="131.5" width="2" height="2"/>
		<rect x="189.3" y="129.5" width="1.3" height="2"/>
		<rect x="189.3" y="114.5" width="1.3" height="2"/>
		<rect x="189.3" y="121.8" width="1.3" height="2.3"/>
		<path d="M186.6,114.5c-0.3,0-0.6,0.3-0.6,0.6v7.9c0,0,0,0,0,0.1c0,0,0,0,0,0.1v7.9c0,0.3,0.3,0.6,0.6,0.6h0.8v-17H186.6z"/>
		<path d="M188.4,129.5c-0.2,0-0.4-0.2-0.4-0.3v-4.7c0-0.2,0.2-0.3,0.4-0.3h0.9v-2.3h-0.9c-0.2,0-0.4-0.2-0.4-0.3v-4.7
			c0-0.2,0.2-0.3,0.4-0.3h0.9v-2h-2v17h2v-2H188.4z"/>
		<path d="M200.2,123c1.5-0.7,2.5-2.3,2.5-4c0-2.5-2-4.5-4.5-4.5h-5.4v2h4.3c1.9,0,3.4,1.2,3.4,2.7c0,1.5-1.5,2.7-3.4,2.7h-4.3v2.3
			h4.3c1.9,0,3.4,1.2,3.4,2.7c0,1.5-1.5,2.7-3.4,2.7h-4.3v2h5.4c2.5,0,4.5-2,4.5-4.5C202.6,125.3,201.7,123.7,200.2,123z"/>
		<rect x="190.7" y="129.5" width="2" height="2"/>
		<rect x="190.7" y="114.5" width="2" height="2"/>
		<rect x="190.7" y="121.8" width="2" height="2.3"/>
	</g>
	<g class="st1">
		<path d="M52.9,17.4h-3.1h-1.4h-0.9h-0.6c-0.2,0-0.3,0.1-0.3,0.2v3.3c0,0.1,0.1,0.2,0.3,0.2h0.6h0.9h1.4h3.1c1.3,0,2.4-0.8,2.4-1.9
			C55.2,18.2,54.2,17.4,52.9,17.4z"/>
		<path d="M52.9,22.8h-3.1h-1.4h-0.9h-0.6c-0.2,0-0.3,0.1-0.3,0.2v3.3c0,0.1,0.1,0.2,0.3,0.2h0.6h0.9h1.4h3.1c1.3,0,2.4-0.8,2.4-1.9
			C55.2,23.7,54.2,22.8,52.9,22.8z"/>
		<path d="M50.5,11c-6.1,0-11,4.9-11,11s4.9,11,11,11s11-4.9,11-11S56.6,11,50.5,11z M56.8,24.8c0,1.8-1.4,3.2-3.2,3.2h-3.8v1.4
			h-1.4V28h-0.9v1.4H46V28h-0.5c-0.2,0-0.4-0.2-0.4-0.4V22c0,0,0,0,0,0c0,0,0,0,0,0v-5.6c0-0.2,0.2-0.4,0.4-0.4H46v-1.4h1.4V16h0.9
			v-1.4h1.4V16h3.8c1.8,0,3.2,1.4,3.2,3.2c0,1.2-0.7,2.3-1.7,2.8C56.1,22.5,56.8,23.6,56.8,24.8z"/>
	</g>
	<g class="st1">
		<rect x="143.5" y="131.8" width="2" height="2.7"/>
		<g>
			<path d="M148.5,117.6c0,0,0.3-4.4-4.1-4.4c-4.4,0-4.4,3.4-4.4,5.1c0,1.7,0.3,4.4,2.7,5.4c2.4,1,3.7,1.4,3.7,4.7
				c0,3.4-4.4,3.4-4.4,0.3h-1.7c0,0-0.3,4.1,3.7,4.1s4.4-2.7,4.4-4.7c0-2-0.7-4.7-4.7-6.1c-2.4-1-2-5.1-1.4-6.1c0.7-1,3-1.7,4.1,0
				c0,0,0.3,0.7,0.3,1.7H148.5z"/>
			<rect x="143.5" y="111.5" width="2" height="2.7"/>
			<circle cx="152.8" cy="123.2" r="1.5"/>
			<circle cx="136.5" cy="123.2" r="1.5"/>
		</g>
	</g>
	<path class="st1" d="M25,24c-4.4,0-8,3.6-8,8s3.6,8,8,8s8-3.6,8-8S29.4,24,25,24z M20.8,32.9c-0.4,0-0.8-0.4-0.8-0.8
		c0-0.4,0.4-0.8,0.8-0.8c0.4,0,0.8,0.4,0.8,0.8C21.6,32.5,21.2,32.9,20.8,32.9z M27.2,29.2h-0.9c0-0.5-0.2-0.9-0.2-0.9
		c-0.5-0.9-1.8-0.5-2.1,0c-0.4,0.5-0.5,2.6,0.7,3.2c2.1,0.7,2.5,2.1,2.5,3.2c0,0.9-0.1,2.1-1.6,2.4V38h-1.1v-0.9
		C22.9,36.8,23,35,23,35h0.9c0,1.6,2.3,1.6,2.3-0.2s-0.7-1.9-1.9-2.5c-1.2-0.5-1.4-1.9-1.4-2.8c0-0.8,0-2.3,1.8-2.6V26h1.1V27
		C27.4,27.3,27.2,29.2,27.2,29.2z M29.2,32.9c-0.4,0-0.8-0.4-0.8-0.8c0-0.4,0.4-0.8,0.8-0.8c0.4,0,0.8,0.4,0.8,0.8
		C30,32.5,29.6,32.9,29.2,32.9z"/>
	<g class="st1">
		<g>
			<path d="M175.7,84c-5.8,0-10.5-4.7-10.5-10.5S169.9,63,175.7,63v2.1c-4.6,0-8.4,3.8-8.4,8.4s3.8,8.4,8.4,8.4V84z"/>
		</g>
		<g>
			<g>
				<rect x="162.3" y="70.6" width="13.1" height="2.1"/>
			</g>
			<g>
				<rect x="162.3" y="74.3" width="13.1" height="2.1"/>
			</g>
		</g>
	</g>
	<g class="st1">
		<path class="st6" d="M78.7,49v16.7c0,0-3.6,0.7-4.3,0.8c-0.7,0.1-3,0.8-4.7-0.8C67,63.3,57.8,54.1,57.8,54.1s-1.6-1.6-4.1-0.2
			c-2.3,1.2-5.8,3-7.2,3.7c-2.7,1.5-5-0.9-5-2.6c0-1.4,0.9-2.3,2.1-3c3.3-2,10.2-5.9,13.1-7.4c1.8-0.9,3-1,5.4,1
			c3,2.5,5.6,4.8,5.6,4.8s0.9,0.7,2.2,0.4C73.4,50.1,78.7,49,78.7,49z M42.1,77.3c0.4-1.1,0.3-2.4-0.6-3.3c-0.8-0.8-1.9-1-3-0.7
			c0.3-1.1,0.1-2.2-0.6-3c-0.8-0.8-1.9-1-3-0.7c0.3-1.1,0.1-2.2-0.6-3c-1.2-1.2-3.3-1.2-4.7,0.1c-1.4,1.3-2.2,3.7-1,5.1
			c1.2,1.4,2.6,0.5,3.7,0.3c-0.3,1.1-1.2,2-0.1,3.4c1.1,1.4,2.6,0.5,3.7,0.3c-0.3,1.1-1.1,2.1-0.1,3.4c1.1,1.3,2.8,0.6,3.9,0.2
			c-0.4,1.1-1.4,2.4-0.2,3.7c1.2,1.4,4,0.7,5.4-0.6c1.4-1.3,1.5-3.4,0.3-4.6C44.5,77.2,43.2,77,42.1,77.3z M67.1,68.6
			c-9.9-9.9-5.3-5.3-10.6-10.6c0,0-1.6-1.6-3.7-0.7c-1.5,0.7-3.4,1.5-4.8,2.2c-1.6,0.8-2.7,1.1-3.3,1.1c-3.1,0-5.5-2.5-5.5-5.5
			c0-2,1.1-3.7,2.6-4.7c2.2-1.5,7.3-4.2,7.3-4.2s-1.5-2-4.9-2c-3.4,0-10.5,4.6-10.5,4.6s-2,1.3-4.9,0.1l-5.5-1.9v19.2
			c0,0,1.6,0.5,3,1c0.3-0.9,0.8-1.8,1.6-2.4c2.3-2.2,6.2-2.3,8.4-0.1c0.6,0.7,1.1,1.5,1.3,2.3c0.9,0.3,1.6,0.7,2.3,1.4
			c0.6,0.7,1.1,1.5,1.3,2.3c0.9,0.3,1.6,0.7,2.3,1.4c0.7,0.7,1.2,1.6,1.4,2.6c0.9,0.3,1.7,0.7,2.4,1.4c1.3,1.3,1.7,3.1,1.5,4.8
			c0,0,0,0,0,0c0,0,0.8,0.9,1.3,1.4c0.9,0.9,2.5,0.9,3.4,0c0.9-0.9,0.9-2.5,0-3.4c0,0-3.4-3.6-3.1-3.8c0.3-0.3,4.6,4.2,4.7,4.3
			c0.9,0.9,2.5,0.9,3.4,0c0.9-0.9,0.9-2.5,0-3.4c0,0-0.2-0.2-0.3-0.3c0,0-4.3-3.8-3.9-4.1c0.3-0.3,5.6,4.6,5.6,4.6
			c1,0.9,2.4,0.9,3.3-0.1c0.9-0.9,0.9-2.3,0.1-3.3c0-0.1-4-4.3-3.7-4.6c0.3-0.3,4.3,3.8,4.3,3.8c0.9,0.9,2.5,0.9,3.4,0
			C68.1,71.1,68.1,69.6,67.1,68.6C67.2,68.6,67.2,68.6,67.1,68.6z"/>
	</g>
	<path class="st7" d="M80.6,35.9c5.9,6.9,9.4,15.8,9.4,25.6"/>
	<path class="st7" d="M59.7,23.1c4.3,1,8.4,2.8,12,5.1"/>
	<path class="st7" d="M29.7,27.9c3.6-2.2,7.6-3.9,11.9-4.9"/>
	<path class="st7" d="M11,61.5c0-10.1,3.8-19.4,10.1-26.4"/>
	<path class="st1" d="M76,24c-4.4,0-8,3.6-8,8s3.6,8,8,8s8-3.6,8-8S80.4,24,76,24z M78.8,27.6c-2,0-3.6,1.3-4.3,3h4.1v1.1h-4.4
		c0,0.1,0,0.3,0,0.4c0,0.1,0,0.3,0,0.4h4.4v1.1h-4.1c0.6,1.7,2.3,3,4.3,3v1.1c-2.6,0-4.8-1.8-5.5-4.1h-1.8v-1.1h1.6
		c0-0.1,0-0.3,0-0.4c0-0.1,0-0.3,0-0.4h-1.6v-1.1h1.8c0.7-2.4,2.9-4.1,5.5-4.1V27.6z"/>
</g>
<g id="레이어_5">
	<g>
		<g>
			<g>
				<g>
					<path d="M72.1,72.8c-4.1,0.3-9.6,4.4-14.9,6.8c-6.5,2.9-16.5,0.6-16.5,0.6c1.6-0.7,7.8-2.2,9.1-2.8c6.7-3,6.2-9.1,3-9.1
						c-4.2,0.1-6.7,1.1-15.2,2.3c-6.4,0.9-14,0.6-17.6,1.9c-5.1,2-13.4,15.2-13.4,15.2L19.4,100c0,0,7.9-7.8,11.8-7.8
						c8.8,0,9.1-0.1,17.3-0.6c3.5-0.2,4.2-0.3,6.2-1c10.6-3.6,21.9-13.1,22.1-14.2C77.2,73.8,74.3,72.6,72.1,72.8z"/>
				</g>
			</g>
		</g>
		<g>
			<g>
				<g>
					<path d="M27.9,27.2c4.1-0.3,9.6-4.4,14.9-6.8c6.5-2.9,16.5-0.6,16.5-0.6c-1.6,0.7-7.8,2.2-9.1,2.8c-6.7,3-6.2,9.1-3,9.1
						c4.2-0.1,6.7-1.1,15.2-2.3c6.4-0.9,14-0.6,17.6-1.9c5.1-2,13.4-15.2,13.4-15.2L80.6,0c0,0-7.9,7.8-11.8,7.8
						c-8.8,0-9.1,0.1-17.3,0.6c-3.5,0.2-4.2,0.3-6.2,1c-10.6,3.6-21.9,13.1-22.1,14.2C22.8,26.2,25.7,27.4,27.9,27.2z"/>
				</g>
			</g>
		</g>
		<g>
			<g>
				<g>
					<path d="M51.7,42.9h-4.6h-2.1h-1.4h-1c-0.2,0-0.4,0.2-0.4,0.4v5c0,0.2,0.2,0.4,0.4,0.4h1h1.4h2.1h4.6c2,0,3.6-1.3,3.6-2.8
						C55.2,44.2,53.6,42.9,51.7,42.9z"/>
				</g>
				<g>
					<path d="M51.7,51.1h-4.6h-2.1h-1.4h-1c-0.2,0-0.4,0.2-0.4,0.4v5c0,0.2,0.2,0.4,0.4,0.4h1h1.4h2.1h4.6c2,0,3.6-1.3,3.6-2.8
						C55.2,52.3,53.6,51.1,51.7,51.1z"/>
				</g>
				<g>
					<path d="M48.5,33.4c-9.2,0-16.6,7.4-16.6,16.6c0,9.2,7.4,16.6,16.6,16.6c9.2,0,16.6-7.4,16.6-16.6
						C65.1,40.8,57.7,33.4,48.5,33.4z M57.6,54.1c0,2.6-2.1,4.8-4.8,4.8h-5.8V61h-2.1v-2.1h-1.4V61h-2.1v-2.1h-0.8
						c-0.3,0-0.6-0.3-0.6-0.6v-8.4c0,0,0,0,0-0.1c0,0,0,0,0-0.1v-8.4c0-0.3,0.3-0.6,0.6-0.6h0.8v-2.1h2.1v2.1h1.4v-2.1h2.1v2.1h5.8
						c2.6,0,4.8,2.1,4.8,4.8c0,1.9-1.1,3.5-2.6,4.3C56.6,50.6,57.6,52.2,57.6,54.1z"/>
				</g>
			</g>
		</g>
		<g>
			<path d="M48.5,71.6c-11.9,0-21.6-9.7-21.6-21.6c0-11.9,9.7-21.6,21.6-21.6c11.9,0,21.6,9.7,21.6,21.6
				C70.1,61.9,60.5,71.6,48.5,71.6z M48.5,29.8c-11.2,0-20.2,9.1-20.2,20.2c0,11.2,9.1,20.2,20.2,20.2c11.2,0,20.2-9.1,20.2-20.2
				C68.8,38.8,59.7,29.8,48.5,29.8z"/>
		</g>
	</g>
	<g>
		<g>
			<g>
				<path d="M154.4,70.3c-3,0.2-6.9,3.2-10.7,4.9c-4.6,2.1-11.9,0.4-11.9,0.4c1.1-0.5,5.7-1.6,6.6-2c4.9-2.1,4.4-6.6,2.1-6.6
					c-3.1,0.1-4.8,0.8-10.9,1.6c-4.6,0.6-10.1,0.4-12.7,1.4c-3.7,1.4-9.7,10.9-9.7,10.9l9.2,8.9c0,0,5.7-5.6,8.5-5.6
					c6.3,0,6.6-0.1,12.4-0.4c2.5-0.1,3-0.2,4.4-0.7c7.6-2.6,15.8-9.4,15.9-10.3C158.1,71.1,156,70.2,154.4,70.3z"/>
			</g>
		</g>
		<g>
			<g>
				<path d="M122.6,37.6c3-0.2,6.9-3.2,10.7-4.9c4.6-2.1,11.9-0.4,11.9-0.4c-1.1,0.5-5.7,1.6-6.6,2c-4.9,2.1-4.4,6.6-2.1,6.6
					c3.1-0.1,4.8-0.8,10.9-1.6c4.6-0.6,10.1-0.4,12.7-1.4c3.7-1.4,9.7-10.9,9.7-10.9l-9.2-8.9c0,0-5.7,5.6-8.5,5.6
					c-6.3,0-6.6,0.1-12.4,0.4c-2.5,0.1-3,0.2-4.4,0.7c-7.6,2.6-15.8,9.4-15.9,10.3C118.9,36.8,121,37.7,122.6,37.6z"/>
			</g>
		</g>
		<g>
			<g>
				<path d="M139.7,48.8h-3.3h-1.5h-1h-0.7c-0.2,0-0.3,0.1-0.3,0.3v3.6c0,0.1,0.1,0.3,0.3,0.3h0.7h1h1.5h3.3c1.4,0,2.6-0.9,2.6-2
					C142.3,49.8,141.1,48.8,139.7,48.8z"/>
				<path d="M139.7,54.7h-3.3h-1.5h-1h-0.7c-0.2,0-0.3,0.1-0.3,0.3v3.6c0,0.1,0.1,0.3,0.3,0.3h0.7h1h1.5h3.3c1.4,0,2.6-0.9,2.6-2
					C142.3,55.6,141.1,54.7,139.7,54.7z"/>
				<path d="M137.4,42c-6.6,0-11.9,5.4-11.9,11.9c0,6.6,5.3,11.9,11.9,11.9c6.6,0,11.9-5.3,11.9-11.9C149.4,47.4,144,42,137.4,42z
					 M144,56.9c0,1.9-1.5,3.4-3.4,3.4h-4.2v1.5h-1.5v-1.5h-1v1.5h-1.5v-1.5h-0.6c-0.2,0-0.4-0.2-0.4-0.4v-6c0,0,0,0,0-0.1
					c0,0,0,0,0-0.1v-6c0-0.2,0.2-0.4,0.4-0.4h0.6v-1.5h1.5v1.5h1v-1.5h1.5v1.5h4.2c1.9,0,3.4,1.5,3.4,3.4c0,1.3-0.8,2.5-1.9,3.1
					C143.2,54.4,144,55.6,144,56.9z"/>
			</g>
		</g>
		<circle class="st8" cx="137.4" cy="53.9" r="15.1"/>
	</g>
</g>
<g id="레이어_2" class="st0">
	<g class="st1">
		<path d="M51.6,10c6.2,0,12.5,1.5,18,4.4c13,6.7,21,20,21,34.6c0,21.5-17.5,39-39,39s-39-17.5-39-39c0-3.7,0.5-7.3,1.5-10.8
			C18.9,21.6,34.3,10,51.6,10 M51.6,9C33.3,9,17.9,21.2,13.1,37.9c-1,3.5-1.6,7.3-1.6,11.1c0,22.1,17.9,40,40,40s40-17.9,40-40
			c0-15.5-8.8-28.9-21.6-35.5C64.5,10.6,58.2,9,51.6,9L51.6,9z"/>
	</g>
	<path class="st9" d="M70.1,13.2c0,0-3.7,2.2-5.8,5.2c-2.2,3-2.4,6.7-5.2,7.3c-2.8,0.6-8.4,2.4-8.4,3.7c0,1.3-2.2,3-1.1,4.3
		s3.9,3.7,3.7,5.4s-1.7,0.6-0.4,3.7s3,3.7,5.6,3.5C61,46,61.9,44.9,63,43s-1.5-3.9,0.9-3.9s6-0.4,6.7,0.6c0.6,1.1,1.3,1.1,1.5,2.2
		c0.2,1.1,1.5,0,1.5,2.4s2.4,1.9,2.4,1.9s4.5-1.3,5.6,0c1.1,1.3,0.9,1.7,0.4,3.2s-0.6,0-1.3,3.5c-0.6,3.5,0.2,2.6,1.9,4.5
		s5.2-0.9,5.6-1.3s0.4-0.2,0.4,1.1s0.6,0.9,0,2.6c-0.5,1.5,0.6,0.8,0.5,2.7"/>
	<path class="st9" d="M11.2,38.4c0,0,8.4-4.1,9.9-4.1s6.9-4.5,8.2-3.7s3.7-1.7,5.2-3.2c1.5-1.5,2.6-2.6,2.6-2.6s-0.4,5.8-1.7,7.3
		c-1.3,1.5-2.2,2.8-0.6,2.4c1.5-0.4,1.5-1.1,2.4-1.9c0.9-0.9,0-1.7,1.5-1.9s2.2,1.7,2.2,1.7l1.1,3l0.2,4.3l-2.6,1.5L37.5,41
		l-1.1,1.1l-2.6,4.1v2.4v1.7c0,0,1.1,0.9-0.4,1.9c-1.5,1.1-2.6,1.5-2.6,1.5s0-0.6-3-0.6S24,54.2,24,54.2V57l1.3,2.4
		c0,0,1.1,2.4,3.2,2.2S27,62.8,26.8,63s-0.4,0.4-0.4,0.4H24L23.1,65l0.9,1.5l-0.4,0.4l-1.9-0.4l-0.4-1.3c0,0,0.9,0.4-0.2-0.9
		s-1.5-1.1-1.5-1.1l-0.6,1.1l-0.2,1.1l-0.2,1.3c0,0,0.6,0.6,0.4,1.1s-0.9,0-1.3,0.2c-0.4,0.2,0.2,5,0.2,5"/>
	<path class="st9" d="M42.3,65.6c0.2-1.1,0.4-1.9,1.5-2.6s1.5-0.9,3-0.4c1.5,0.4,3,1.3,3,1.3l1.9-0.2l2.4-1.9l1.9-1.1l0.4-0.4
		l1.3,0.2l1.7,0.6c0,0,1.9-0.4,2.4,0.6c0.4,1.1,0.4,0.6,0.4,0.6l0.4,3.2l-0.4,1.9l1.1,1.3c0,0,1.9,1.1,1.3,1.9
		c-0.6,0.9-0.9,1.9-0.9,1.9s-2.4,4.5-1.9,6.7s-4.7,1.1-4.7,1.1l-6.3-5.8l-0.4-3.2l-2.4-1.3h-3l-3-0.4L42.3,65.6z"/>
</g>
</svg>
