<?xml version="1.0" encoding="utf-8"?>
<!-- Generator: Adobe Illustrator 23.0.1, SVG Export Plug-In . SVG Version: 6.00 Build 0)  -->
<svg version="1.1" xmlns="http://www.w3.org/2000/svg" xmlns:xlink="http://www.w3.org/1999/xlink" x="0px" y="0px"
	 viewBox="0 0 100 100" style="enable-background:new 0 0 100 100;" xml:space="preserve">
<style type="text/css">
	.st0{display:none;}
	.st1{display:inline;}
	.st2{fill:none;stroke:#000000;stroke-width:3;stroke-linecap:round;stroke-miterlimit:10;}
	.st3{fill:none;stroke:#000000;stroke-width:0.75;stroke-linecap:round;stroke-miterlimit:10;stroke-dasharray:3.0426,3.0426;}
	.st4{display:inline;fill:none;stroke:#000000;stroke-width:3;stroke-linecap:round;stroke-miterlimit:10;}
	.st5{fill:none;}
	.st6{fill:#030104;}
	.st7{fill:none;stroke:#030104;stroke-linecap:round;stroke-miterlimit:10;}
	.st8{fill:none;stroke:#000000;stroke-miterlimit:10;}
	.st9{fill:none;stroke:#000000;stroke-width:0.5;stroke-miterlimit:10;}
</style>
<g id="레이어_1">
	
		<image style="overflow:visible;" width="236" height="758" xlink:href="스크린샷 2019-03-18 오후 2.13.02.png"  transform="matrix(0.1148 0 0 0.1148 -39 5)">
	</image>
</g>
<g id="레이어_3">
	<g>
		<g>
			<circle cx="77" cy="23.4" r="15.8"/>
		</g>
		<g>
			<path d="M92.8,57.4V98c0,1.1-0.9,2-2,2H63.1c-1.1,0-2-0.9-2-2V57.4c0-8.7,7.1-15.8,15.8-15.8S92.8,48.7,92.8,57.4z"/>
		</g>
		<g>
			<path d="M52.3,19.3c-0.2,0-0.4,0-0.6-0.1L8.4,3.4C7.5,3.1,7,2.1,7.3,1.2c0.3-0.9,1.3-1.4,2.3-1l43.4,15.8c0.9,0.3,1.4,1.3,1,2.3
				C53.7,18.9,53.1,19.3,52.3,19.3z"/>
		</g>
		<g>
			<path d="M52.3,29.9C52.3,29.9,52.3,29.9,52.3,29.9L8.9,29.3c-1,0-1.7-0.8-1.7-1.8c0-1,0.8-1.7,1.8-1.7c0,0,0,0,0,0l43.4,0.6
				c1,0,1.7,0.8,1.7,1.8C54.1,29.1,53.3,29.9,52.3,29.9z"/>
		</g>
		<g>
			<path d="M9,53.9c-0.7,0-1.4-0.5-1.7-1.2c-0.3-0.9,0.2-1.9,1.2-2.2L51.8,37c0.9-0.3,1.9,0.2,2.2,1.2c0.3,0.9-0.2,1.9-1.2,2.2
				L9.5,53.8C9.3,53.9,9.1,53.9,9,53.9z"/>
		</g>
	</g>
</g>
<g id="Exchange_Partnership" class="st0">
	<g class="st1">
		<path class="st2" d="M183.2,133.1c-4.3,2.2-9.1,3.4-14.2,3.4c-6.3,0-12.2-1.8-17.1-5"/>
		<path class="st2" d="M179,75.1c12.5,4.2,21.5,16,21.5,29.9c0,2.1-0.2,4.2-0.6,6.3"/>
		<path class="st2" d="M138,110.5c-0.3-1.8-0.5-3.6-0.5-5.5c0-13.8,8.9-25.6,21.3-29.8"/>
	</g>
	<g class="st1">
		<circle class="st3" cx="169" cy="105.5" r="15.5"/>
	</g>
	<circle class="st4" cx="51" cy="166" r="31.5"/>
	<g class="st1">
		<rect x="190.7" y="124.2" class="st5" width="2" height="5.3"/>
		<rect x="190.7" y="116.5" class="st5" width="2" height="5.3"/>
		<rect x="187.3" y="131.5" width="2" height="2"/>
		<rect x="187.3" y="112.5" width="2" height="2"/>
		<rect x="189.3" y="124.2" class="st5" width="1.3" height="5.3"/>
		<path class="st5" d="M197,129.5c1.9,0,3.4-1.2,3.4-2.7c0-1.5-1.5-2.7-3.4-2.7h-4.3v5.3H197z"/>
		<rect x="189.3" y="116.5" class="st5" width="1.3" height="5.3"/>
		<path class="st5" d="M197,121.8c1.9,0,3.4-1.2,3.4-2.7c0-1.5-1.5-2.7-3.4-2.7h-4.3v5.3H197z"/>
		<rect x="190.7" y="112.5" width="2" height="2"/>
		<rect x="190.7" y="131.5" width="2" height="2"/>
		<rect x="189.3" y="129.5" width="1.3" height="2"/>
		<rect x="189.3" y="114.5" width="1.3" height="2"/>
		<rect x="189.3" y="121.8" width="1.3" height="2.3"/>
		<path d="M186.6,114.5c-0.3,0-0.6,0.3-0.6,0.6v7.9c0,0,0,0,0,0.1c0,0,0,0,0,0.1v7.9c0,0.3,0.3,0.6,0.6,0.6h0.8v-17H186.6z"/>
		<path d="M188.4,129.5c-0.2,0-0.4-0.2-0.4-0.3v-4.7c0-0.2,0.2-0.3,0.4-0.3h0.9v-2.3h-0.9c-0.2,0-0.4-0.2-0.4-0.3v-4.7
			c0-0.2,0.2-0.3,0.4-0.3h0.9v-2h-2v17h2v-2H188.4z"/>
		<path d="M200.2,123c1.5-0.7,2.5-2.3,2.5-4c0-2.5-2-4.5-4.5-4.5h-5.4v2h4.3c1.9,0,3.4,1.2,3.4,2.7c0,1.5-1.5,2.7-3.4,2.7h-4.3v2.3
			h4.3c1.9,0,3.4,1.2,3.4,2.7c0,1.5-1.5,2.7-3.4,2.7h-4.3v2h5.4c2.5,0,4.5-2,4.5-4.5C202.6,125.3,201.7,123.7,200.2,123z"/>
		<rect x="190.7" y="129.5" width="2" height="2"/>
		<rect x="190.7" y="114.5" width="2" height="2"/>
		<rect x="190.7" y="121.8" width="2" height="2.3"/>
	</g>
	<g class="st1">
		<rect x="143.5" y="131.8" width="2" height="2.7"/>
		<g>
			<path d="M148.5,117.6c0,0,0.3-4.4-4.1-4.4c-4.4,0-4.4,3.4-4.4,5.1c0,1.7,0.3,4.4,2.7,5.4c2.4,1,3.7,1.4,3.7,4.7
				c0,3.4-4.4,3.4-4.4,0.3h-1.7c0,0-0.3,4.1,3.7,4.1s4.4-2.7,4.4-4.7c0-2-0.7-4.7-4.7-6.1c-2.4-1-2-5.1-1.4-6.1c0.7-1,3-1.7,4.1,0
				c0,0,0.3,0.7,0.3,1.7H148.5z"/>
			<rect x="143.5" y="111.5" width="2" height="2.7"/>
			<circle cx="152.8" cy="123.2" r="1.5"/>
			<circle cx="136.5" cy="123.2" r="1.5"/>
		</g>
	</g>
	<g class="st1">
		<g>
			<path d="M175.7,84c-5.8,0-10.5-4.7-10.5-10.5S169.9,63,175.7,63v2.1c-4.6,0-8.4,3.8-8.4,8.4s3.8,8.4,8.4,8.4V84z"/>
		</g>
		<g>
			<g>
				<rect x="162.3" y="70.6" width="13.1" height="2.1"/>
			</g>
			<g>
				<rect x="162.3" y="74.3" width="13.1" height="2.1"/>
			</g>
		</g>
	</g>
	<g class="st1">
		<g>
			<path d="M52.9,12.4h-3.8h-1.8h-1.2h-0.8c-0.2,0-0.4,0.1-0.4,0.3v4.1c0,0.2,0.2,0.3,0.4,0.3h0.8h1.2h1.8h3.8c1.6,0,3-1.1,3-2.4
				C55.9,13.4,54.6,12.4,52.9,12.4z"/>
			<path d="M52.9,19.2h-3.8h-1.8h-1.2h-0.8c-0.2,0-0.4,0.1-0.4,0.3v4.1c0,0.2,0.2,0.3,0.4,0.3h0.8h1.2h1.8h3.8c1.6,0,3-1.1,3-2.4
				C55.9,20.2,54.6,19.2,52.9,19.2z"/>
			<path d="M50,4.4c-7.6,0-13.8,6.2-13.8,13.8S42.4,31.9,50,31.9s13.8-6.2,13.8-13.8S57.6,4.4,50,4.4z M57.9,21.7c0,2.2-1.8,4-4,4
				h-4.8v1.8h-1.8v-1.8h-1.2v1.8h-1.8v-1.8h-0.7c-0.3,0-0.5-0.2-0.5-0.5v-7c0,0,0,0,0-0.1c0,0,0,0,0-0.1v-7c0-0.3,0.2-0.5,0.5-0.5
				h0.7V8.8h1.8v1.8h1.2V8.8h1.8v1.8h4.8c2.2,0,4,1.8,4,4c0,1.5-0.9,2.9-2.2,3.5C57,18.8,57.9,20.1,57.9,21.7z"/>
		</g>
		<path d="M18.1,20.6c-5.5,0-10,4.5-10,10s4.5,10,10,10s10-4.5,10-10S23.6,20.6,18.1,20.6z M12.9,31.7c-0.5,0-1-0.4-1-1
			c0-0.5,0.4-1,1-1c0.5,0,1,0.4,1,1C13.8,31.3,13.4,31.7,12.9,31.7z M20.9,27.1h-1.1c0-0.7-0.2-1.1-0.2-1.1c-0.7-1.1-2.2-0.7-2.6,0
			c-0.4,0.7-0.7,3.3,0.9,3.9c2.6,0.9,3.1,2.6,3.1,3.9c0,1.2-0.2,2.6-2,3v1.2h-1.3V37c-2.2-0.3-2-2.6-2-2.6h1.1c0,2,2.9,2,2.9-0.2
			s-0.9-2.4-2.4-3.1c-1.5-0.7-1.8-2.4-1.8-3.5c0-1,0-2.9,2.2-3.2v-1.1H19v1.2C21.1,24.7,20.9,27.1,20.9,27.1z M23.4,31.7
			c-0.5,0-1-0.4-1-1c0-0.5,0.4-1,1-1c0.5,0,1,0.4,1,1C24.4,31.3,23.9,31.7,23.4,31.7z"/>
		<g>
			<path class="st6" d="M85.2,51.8v20.9c0,0-4.5,0.9-5.4,1c-0.9,0.1-3.8,1-5.9-1c-3.2-3.1-14.7-14.5-14.7-14.5s-2-1.9-5.2-0.3
				c-2.9,1.5-7.2,3.8-9.1,4.7c-3.4,1.8-6.2-1.1-6.2-3.3c0-1.7,1.1-2.9,2.6-3.7c4.1-2.5,12.8-7.4,16.4-9.3c2.2-1.2,3.8-1.3,6.8,1.3
				c3.7,3.1,7,6,7,6s1.1,0.9,2.8,0.5C78.6,53.3,85.2,51.8,85.2,51.8z M39.5,87.3c0.6-1.4,0.4-3-0.7-4.1c-1-1-2.4-1.2-3.7-0.9
				c0.4-1.3,0.2-2.7-0.8-3.7c-1-1-2.4-1.2-3.7-0.9c0.4-1.3,0.2-2.7-0.8-3.7c-1.5-1.5-4.1-1.5-5.8,0.2c-1.7,1.6-2.8,4.6-1.3,6.3
				c1.5,1.7,3.3,0.7,4.6,0.4c-0.4,1.3-1.5,2.5-0.1,4.3c1.4,1.7,3.3,0.7,4.6,0.4c-0.4,1.3-1.4,2.7-0.1,4.3c1.3,1.6,3.5,0.8,4.9,0.3
				c-0.6,1.4-1.7,3-0.2,4.7c1.5,1.7,5,0.9,6.7-0.7c1.7-1.6,1.9-4.2,0.4-5.8C42.5,87.1,40.9,86.9,39.5,87.3z M70.8,76.4
				C58.4,64,64.2,69.8,57.6,63.2c0,0-2-2-4.6-0.8c-1.9,0.8-4.2,1.9-6,2.8c-2,1-3.4,1.4-4.1,1.4c-3.8,0-6.9-3.1-6.9-6.9
				c0-2.5,1.3-4.6,3.3-5.9c2.8-1.9,9.1-5.3,9.1-5.3s-1.9-2.4-6.2-2.4c-4.2,0-13.1,5.8-13.1,5.8s-2.5,1.6-6.1,0.2L16,49.5v24
				c0,0,2,0.6,3.7,1.3c0.4-1.1,1-2.2,1.9-3.1c2.9-2.8,7.8-2.8,10.5-0.1c0.8,0.8,1.4,1.8,1.7,2.9c1.1,0.3,2,0.9,2.8,1.7
				c0.8,0.8,1.4,1.8,1.7,2.9c1.1,0.3,2,0.9,2.8,1.7c0.9,0.9,1.5,2,1.7,3.2c1.1,0.3,2.1,0.9,3,1.8c1.6,1.6,2.2,3.9,1.8,6c0,0,0,0,0,0
				c0,0,1,1.1,1.6,1.7c1.2,1.2,3.1,1.2,4.3,0c1.2-1.2,1.2-3.1,0-4.3c0,0-4.3-4.5-3.9-4.8c0.3-0.3,5.7,5.3,5.8,5.4
				c1.2,1.2,3.1,1.2,4.3,0c1.2-1.2,1.2-3.1,0-4.3c-0.1-0.1-0.3-0.3-0.4-0.4c0,0-5.3-4.8-4.9-5.2c0.4-0.4,7,5.8,7,5.8
				c1.2,1.1,3,1.1,4.2-0.1c1.1-1.1,1.1-2.9,0.2-4.1c0-0.1-5.1-5.3-4.7-5.7c0.4-0.4,5.4,4.7,5.4,4.7c1.2,1.2,3.1,1.2,4.3,0
				C72,79.6,72,77.6,70.8,76.4C70.8,76.4,70.8,76.4,70.8,76.4z"/>
		</g>
		<g>
			<path class="st6" d="M99.4,68.1c-0.3,0-0.6-0.3-0.6-0.6c0-11.6-4.1-22.8-11.6-31.6c-0.2-0.3-0.2-0.7,0.1-0.9
				c0.3-0.2,0.7-0.2,0.9,0.1c7.7,9,11.9,20.5,11.9,32.4C100,67.8,99.7,68.1,99.4,68.1z"/>
		</g>
		<g>
			<path class="st6" d="M76.5,26.5c-0.1,0-0.2,0-0.3-0.1c-4.6-2.9-9.6-5-14.8-6.3c-0.3-0.1-0.5-0.4-0.5-0.8c0.1-0.3,0.4-0.5,0.8-0.5
				c5.4,1.3,10.5,3.5,15.2,6.4c0.3,0.2,0.4,0.6,0.2,0.9C76.9,26.4,76.7,26.5,76.5,26.5z"/>
		</g>
		<g>
			<path class="st6" d="M24,26.2c-0.2,0-0.4-0.1-0.5-0.3c-0.2-0.3-0.1-0.7,0.2-0.9c4.7-2.9,9.7-5,15.1-6.2c0.3-0.1,0.7,0.1,0.8,0.5
				c0.1,0.3-0.1,0.7-0.5,0.8c-5.2,1.2-10.1,3.2-14.7,6.1C24.2,26.1,24.1,26.2,24,26.2z"/>
		</g>
		<g>
			<path class="st6" d="M0.6,68.1c-0.3,0-0.6-0.3-0.6-0.6c0-12.3,4.5-24.2,12.8-33.4c0.2-0.3,0.6-0.3,0.9,0c0.3,0.2,0.3,0.6,0,0.9
				c-8,8.9-12.4,20.5-12.4,32.5C1.2,67.8,1,68.1,0.6,68.1z"/>
		</g>
		<path d="M81.9,20.6c-5.5,0-10,4.5-10,10s4.5,10,10,10s10-4.5,10-10S87.4,20.6,81.9,20.6z M85.4,25.1c-2.5,0-4.5,1.6-5.3,3.7h5.2
			v1.4h-5.5c0,0.2,0,0.4,0,0.5s0,0.4,0,0.5h5.5v1.4H80c0.8,2.2,2.9,3.7,5.3,3.7v1.4c-3.3,0-6-2.2-6.8-5.2h-2.2v-1.4h2
			c0-0.2,0-0.4,0-0.5s0-0.4,0-0.5h-2v-1.4h2.2c0.9-3,3.6-5.2,6.8-5.2V25.1z"/>
	</g>
	<g class="st1">
		<g>
			<path d="M165.9-3.6h-3.1h-1.4h-0.9h-0.6c-0.2,0-0.3,0.1-0.3,0.2v3.3c0,0.1,0.1,0.2,0.3,0.2h0.6h0.9h1.4h3.1
				c1.3,0,2.4-0.8,2.4-1.9C168.2-2.8,167.2-3.6,165.9-3.6z"/>
			<path d="M165.9,1.8h-3.1h-1.4h-0.9h-0.6c-0.2,0-0.3,0.1-0.3,0.2v3.3c0,0.1,0.1,0.2,0.3,0.2h0.6h0.9h1.4h3.1
				c1.3,0,2.4-0.8,2.4-1.9C168.2,2.7,167.2,1.8,165.9,1.8z"/>
			<path d="M163.5-10c-6.1,0-11,4.9-11,11s4.9,11,11,11s11-4.9,11-11S169.6-10,163.5-10z M169.8,3.8c0,1.8-1.4,3.2-3.2,3.2h-3.8v1.4
				h-1.4V7h-0.9v1.4H159V7h-0.5c-0.2,0-0.4-0.2-0.4-0.4V1c0,0,0,0,0,0c0,0,0,0,0,0v-5.6c0-0.2,0.2-0.4,0.4-0.4h0.5v-1.4h1.4V-5h0.9
				v-1.4h1.4V-5h3.8c1.8,0,3.2,1.4,3.2,3.2c0,1.2-0.7,2.3-1.7,2.8C169.1,1.5,169.8,2.6,169.8,3.8z"/>
		</g>
		<path d="M138,3c-4.4,0-8,3.6-8,8s3.6,8,8,8s8-3.6,8-8S142.4,3,138,3z M133.8,11.9c-0.4,0-0.8-0.4-0.8-0.8c0-0.4,0.4-0.8,0.8-0.8
			c0.4,0,0.8,0.4,0.8,0.8C134.6,11.5,134.2,11.9,133.8,11.9z M140.2,8.2h-0.9c0-0.5-0.2-0.9-0.2-0.9c-0.5-0.9-1.8-0.5-2.1,0
			c-0.4,0.5-0.5,2.6,0.7,3.2c2.1,0.7,2.5,2.1,2.5,3.2c0,0.9-0.1,2.1-1.6,2.4V17h-1.1v-0.9c-1.7-0.2-1.6-2.1-1.6-2.1h0.9
			c0,1.6,2.3,1.6,2.3-0.2s-0.7-1.9-1.9-2.5c-1.2-0.5-1.4-1.9-1.4-2.8c0-0.8,0-2.3,1.8-2.6V5h1.1V6C140.4,6.3,140.2,8.2,140.2,8.2z
			 M142.2,11.9c-0.4,0-0.8-0.4-0.8-0.8c0-0.4,0.4-0.8,0.8-0.8c0.4,0,0.8,0.4,0.8,0.8C143,11.5,142.6,11.9,142.2,11.9z"/>
		<g>
			<path class="st6" d="M191.7,28v16.7c0,0-3.6,0.7-4.3,0.8c-0.7,0.1-3,0.8-4.7-0.8c-2.6-2.5-11.8-11.6-11.8-11.6s-1.6-1.6-4.1-0.2
				c-2.3,1.2-5.8,3-7.2,3.7c-2.7,1.5-5-0.9-5-2.6c0-1.4,0.9-2.3,2.1-3c3.3-2,10.2-5.9,13.1-7.4c1.8-0.9,3-1,5.4,1
				c3,2.5,5.6,4.8,5.6,4.8s0.9,0.7,2.2,0.4C186.4,29.1,191.7,28,191.7,28z M155.1,56.3c0.4-1.1,0.3-2.4-0.6-3.3
				c-0.8-0.8-1.9-1-3-0.7c0.3-1.1,0.1-2.2-0.6-3c-0.8-0.8-1.9-1-3-0.7c0.3-1.1,0.1-2.2-0.6-3c-1.2-1.2-3.3-1.2-4.7,0.1
				c-1.4,1.3-2.2,3.7-1,5.1c1.2,1.4,2.6,0.5,3.7,0.3c-0.3,1.1-1.2,2-0.1,3.4c1.1,1.4,2.6,0.5,3.7,0.3c-0.3,1.1-1.1,2.1-0.1,3.4
				c1.1,1.3,2.8,0.6,3.9,0.2c-0.4,1.1-1.4,2.4-0.2,3.7c1.2,1.4,4,0.7,5.4-0.6c1.4-1.3,1.5-3.4,0.3-4.6
				C157.5,56.2,156.2,56,155.1,56.3z M180.1,47.6c-9.9-9.9-5.3-5.3-10.6-10.6c0,0-1.6-1.6-3.7-0.7c-1.5,0.7-3.4,1.5-4.8,2.2
				c-1.6,0.8-2.7,1.1-3.3,1.1c-3.1,0-5.5-2.5-5.5-5.5c0-2,1.1-3.7,2.6-4.7c2.2-1.5,7.3-4.2,7.3-4.2s-1.5-2-4.9-2
				c-3.4,0-10.5,4.6-10.5,4.6s-2,1.3-4.9,0.1l-5.5-1.9v19.2c0,0,1.6,0.5,3,1c0.3-0.9,0.8-1.8,1.6-2.4c2.3-2.2,6.2-2.3,8.4-0.1
				c0.6,0.7,1.1,1.5,1.3,2.3c0.9,0.3,1.6,0.7,2.3,1.4c0.6,0.7,1.1,1.5,1.3,2.3c0.9,0.3,1.6,0.7,2.3,1.4c0.7,0.7,1.2,1.6,1.4,2.6
				c0.9,0.3,1.7,0.7,2.4,1.4c1.3,1.3,1.7,3.1,1.5,4.8c0,0,0,0,0,0c0,0,0.8,0.9,1.3,1.4c0.9,0.9,2.5,0.9,3.4,0c0.9-0.9,0.9-2.5,0-3.4
				c0,0-3.4-3.6-3.1-3.8c0.3-0.3,4.6,4.2,4.7,4.3c0.9,0.9,2.5,0.9,3.4,0c0.9-0.9,0.9-2.5,0-3.4c0,0-0.2-0.2-0.3-0.3
				c0,0-4.3-3.8-3.9-4.1c0.3-0.3,5.6,4.6,5.6,4.6c1,0.9,2.4,0.9,3.3-0.1c0.9-0.9,0.9-2.3,0.1-3.3c0-0.1-4-4.3-3.7-4.6
				c0.3-0.3,4.3,3.8,4.3,3.8c0.9,0.9,2.5,0.9,3.4,0C181.1,50.1,181.1,48.6,180.1,47.6C180.2,47.6,180.2,47.6,180.1,47.6z"/>
		</g>
		<path class="st7" d="M193.6,14.9c5.9,6.9,9.4,15.8,9.4,25.6"/>
		<path class="st7" d="M172.7,2.1c4.3,1,8.4,2.8,12,5.1"/>
		<path class="st7" d="M142.7,6.9c3.6-2.2,7.6-3.9,11.9-4.9"/>
		<path class="st7" d="M124,40.5c0-10.1,3.8-19.4,10.1-26.4"/>
		<path d="M189,3c-4.4,0-8,3.6-8,8s3.6,8,8,8s8-3.6,8-8S193.4,3,189,3z M191.8,6.6c-2,0-3.6,1.3-4.3,3h4.1v1.1h-4.4
			c0,0.1,0,0.3,0,0.4c0,0.1,0,0.3,0,0.4h4.4v1.1h-4.1c0.6,1.7,2.3,3,4.3,3v1.1c-2.6,0-4.8-1.8-5.5-4.1h-1.8v-1.1h1.6
			c0-0.1,0-0.3,0-0.4c0-0.1,0-0.3,0-0.4h-1.6V9.6h1.8c0.7-2.4,2.9-4.1,5.5-4.1V6.6z"/>
	</g>
</g>
<g id="Fundraising" class="st0">
	<g class="st1">
		<g>
			<g>
				<g>
					<path d="M72.1,72.8c-4.1,0.3-9.6,4.4-14.9,6.8c-6.5,2.9-16.5,0.6-16.5,0.6c1.6-0.7,7.8-2.2,9.1-2.8c6.7-3,6.2-9.1,3-9.1
						c-4.2,0.1-6.7,1.1-15.2,2.3c-6.4,0.9-14,0.6-17.6,1.9c-5.1,2-13.4,15.2-13.4,15.2L19.4,100c0,0,7.9-7.8,11.8-7.8
						c8.8,0,9.1-0.1,17.3-0.6c3.5-0.2,4.2-0.3,6.2-1c10.6-3.6,21.9-13.1,22.1-14.2C77.2,73.8,74.3,72.6,72.1,72.8z"/>
				</g>
			</g>
		</g>
		<g>
			<g>
				<g>
					<path d="M27.9,27.2c4.1-0.3,9.6-4.4,14.9-6.8c6.5-2.9,16.5-0.6,16.5-0.6c-1.6,0.7-7.8,2.2-9.1,2.8c-6.7,3-6.2,9.1-3,9.1
						c4.2-0.1,6.7-1.1,15.2-2.3c6.4-0.9,14-0.6,17.6-1.9c5.1-2,13.4-15.2,13.4-15.2L80.6,0c0,0-7.9,7.8-11.8,7.8
						c-8.8,0-9.1,0.1-17.3,0.6c-3.5,0.2-4.2,0.3-6.2,1c-10.6,3.6-21.9,13.1-22.1,14.2C22.8,26.2,25.7,27.4,27.9,27.2z"/>
				</g>
			</g>
		</g>
		<g>
			<g>
				<g>
					<path d="M51.7,42.9h-4.6h-2.1h-1.4h-1c-0.2,0-0.4,0.2-0.4,0.4v5c0,0.2,0.2,0.4,0.4,0.4h1h1.4h2.1h4.6c2,0,3.6-1.3,3.6-2.8
						C55.2,44.2,53.6,42.9,51.7,42.9z"/>
				</g>
				<g>
					<path d="M51.7,51.1h-4.6h-2.1h-1.4h-1c-0.2,0-0.4,0.2-0.4,0.4v5c0,0.2,0.2,0.4,0.4,0.4h1h1.4h2.1h4.6c2,0,3.6-1.3,3.6-2.8
						C55.2,52.3,53.6,51.1,51.7,51.1z"/>
				</g>
				<g>
					<path d="M48.5,33.4c-9.2,0-16.6,7.4-16.6,16.6c0,9.2,7.4,16.6,16.6,16.6c9.2,0,16.6-7.4,16.6-16.6
						C65.1,40.8,57.7,33.4,48.5,33.4z M57.6,54.1c0,2.6-2.1,4.8-4.8,4.8h-5.8V61h-2.1v-2.1h-1.4V61h-2.1v-2.1h-0.8
						c-0.3,0-0.6-0.3-0.6-0.6v-8.4c0,0,0,0,0-0.1c0,0,0,0,0-0.1v-8.4c0-0.3,0.3-0.6,0.6-0.6h0.8v-2.1h2.1v2.1h1.4v-2.1h2.1v2.1h5.8
						c2.6,0,4.8,2.1,4.8,4.8c0,1.9-1.1,3.5-2.6,4.3C56.6,50.6,57.6,52.2,57.6,54.1z"/>
				</g>
			</g>
		</g>
		<g>
			<path d="M48.5,71.6c-11.9,0-21.6-9.7-21.6-21.6c0-11.9,9.7-21.6,21.6-21.6c11.9,0,21.6,9.7,21.6,21.6
				C70.1,61.9,60.5,71.6,48.5,71.6z M48.5,29.8c-11.2,0-20.2,9.1-20.2,20.2c0,11.2,9.1,20.2,20.2,20.2c11.2,0,20.2-9.1,20.2-20.2
				C68.8,38.8,59.7,29.8,48.5,29.8z"/>
		</g>
	</g>
	<g class="st1">
		<g>
			<g>
				<path d="M154.4,70.3c-3,0.2-6.9,3.2-10.7,4.9c-4.6,2.1-11.9,0.4-11.9,0.4c1.1-0.5,5.7-1.6,6.6-2c4.9-2.1,4.4-6.6,2.1-6.6
					c-3.1,0.1-4.8,0.8-10.9,1.6c-4.6,0.6-10.1,0.4-12.7,1.4c-3.7,1.4-9.7,10.9-9.7,10.9l9.2,8.9c0,0,5.7-5.6,8.5-5.6
					c6.3,0,6.6-0.1,12.4-0.4c2.5-0.1,3-0.2,4.4-0.7c7.6-2.6,15.8-9.4,15.9-10.3C158.1,71.1,156,70.2,154.4,70.3z"/>
			</g>
		</g>
		<g>
			<g>
				<path d="M122.6,37.6c3-0.2,6.9-3.2,10.7-4.9c4.6-2.1,11.9-0.4,11.9-0.4c-1.1,0.5-5.7,1.6-6.6,2c-4.9,2.1-4.4,6.6-2.1,6.6
					c3.1-0.1,4.8-0.8,10.9-1.6c4.6-0.6,10.1-0.4,12.7-1.4c3.7-1.4,9.7-10.9,9.7-10.9l-9.2-8.9c0,0-5.7,5.6-8.5,5.6
					c-6.3,0-6.6,0.1-12.4,0.4c-2.5,0.1-3,0.2-4.4,0.7c-7.6,2.6-15.8,9.4-15.9,10.3C118.9,36.8,121,37.7,122.6,37.6z"/>
			</g>
		</g>
		<g>
			<g>
				<path d="M139.7,48.8h-3.3h-1.5h-1h-0.7c-0.2,0-0.3,0.1-0.3,0.3v3.6c0,0.1,0.1,0.3,0.3,0.3h0.7h1h1.5h3.3c1.4,0,2.6-0.9,2.6-2
					C142.3,49.8,141.1,48.8,139.7,48.8z"/>
				<path d="M139.7,54.7h-3.3h-1.5h-1h-0.7c-0.2,0-0.3,0.1-0.3,0.3v3.6c0,0.1,0.1,0.3,0.3,0.3h0.7h1h1.5h3.3c1.4,0,2.6-0.9,2.6-2
					C142.3,55.6,141.1,54.7,139.7,54.7z"/>
				<path d="M137.4,42c-6.6,0-11.9,5.4-11.9,11.9c0,6.6,5.3,11.9,11.9,11.9c6.6,0,11.9-5.3,11.9-11.9C149.4,47.4,144,42,137.4,42z
					 M144,56.9c0,1.9-1.5,3.4-3.4,3.4h-4.2v1.5h-1.5v-1.5h-1v1.5h-1.5v-1.5h-0.6c-0.2,0-0.4-0.2-0.4-0.4v-6c0,0,0,0,0-0.1
					c0,0,0,0,0-0.1v-6c0-0.2,0.2-0.4,0.4-0.4h0.6v-1.5h1.5v1.5h1v-1.5h1.5v1.5h4.2c1.9,0,3.4,1.5,3.4,3.4c0,1.3-0.8,2.5-1.9,3.1
					C143.2,54.4,144,55.6,144,56.9z"/>
			</g>
		</g>
		<circle class="st8" cx="137.4" cy="53.9" r="15.1"/>
	</g>
</g>
<g id="Transnational_Business" class="st0">
	<g class="st1">
		<g>
			<path d="M13.1,70.6c0.5-0.2,1.2,0.2,1.4-0.2c0.2-0.5-0.5-1.2-0.5-1.2l0.2-1.4l0.2-1.2l0.7-1.2c0,0,0.5-0.2,1.6,1.2
				c1.2,1.4,0.2,0.9,0.2,0.9l0.5,1.4l2.1,0.5l0.5-0.5l-0.9-1.6l0.9-1.6h2.6c0,0,0.2-0.2,0.5-0.5c0.2-0.2,4.2-1.9,1.9-1.6
				c-2.3,0.2-3.5-2.3-3.5-2.3l-1.4-2.6v-3c0,0,0.9-1.2,4.2-1.2s3.3,0.7,3.3,0.7s1.2-0.5,2.8-1.6c1.6-1.2,0.5-2.1,0.5-2.1v-1.9V47
				l2.8-4.5l1.2-1.2l2.1,0.2l2.8-1.6l-0.2-4.7l-1.2-3.3c0,0-0.7-2.1-2.3-1.9c-1.6,0.2-0.7,1.2-1.6,2.1c-0.9,0.9-0.9,1.6-2.6,2.1
				c-1.6,0.5-0.7-0.9,0.7-2.6c1.4-1.6,1.9-8,1.9-8s-1.2,1.2-2.8,2.8C30,28.2,27.4,31,26,30.1c-1.4-0.9-7.3,4-8.9,4
				c-1.1,0-5.8,2.1-8.6,3.4c0,0.1-0.1,0.3-0.1,0.4C7.3,41.7,6.7,45.8,6.7,50c0,8.3,2.3,16,6.3,22.6C12.9,71.6,12.9,70.7,13.1,70.6z"
				/>
		</g>
		<g>
			<path d="M70.2,11.4c-0.1,0-0.1-0.1-0.2-0.1c-1,0.6-4.1,2.7-6,5.4c-2.3,3.3-2.6,7.3-5.6,8c-3,0.7-9.1,2.6-9.1,4
				c0,1.4-2.3,3.3-1.2,4.7c1.2,1.4,4.2,4,4,5.9s-1.9,0.7-0.5,4c1.4,3.3,3.3,4,6.1,3.8c2.8-0.2,3.8-1.4,4.9-3.5
				c1.2-2.1-1.6-4.2,0.9-4.2c2.6,0,6.6-0.5,7.3,0.7c0.7,1.2,1.4,1.2,1.6,2.3c0.2,1.2,1.6,0,1.6,2.6c0,2.6,2.6,2.1,2.6,2.1
				s4.9-1.4,6.1,0c1.2,1.4,0.9,1.9,0.5,3.5c-0.5,1.6-0.7,0-1.4,3.8c-0.7,3.8,0.2,2.8,2.1,4.9c1.9,2.1,5.6-0.9,6.1-1.4
				c0.5-0.5,0.5-0.2,0.5,1.2c0,1.4,0.7,0.9,0,2.8c-0.6,1.6,0.7,0.8,0.5,3l0.1,0c1.7-4.6,2.6-9.6,2.6-14.7
				C93.7,33.2,84.2,18.6,70.2,11.4z"/>
		</g>
		<g>
			<path d="M59,84c-1,0-2.1-0.2-2.5-0.3l-6.6-6.1l-0.5-3.6l-2.9-1.6h-3.4l-2.8-0.4l0.2-4c0.2-1.1,0.4-1.8,1.4-2.4
				c0.8-0.5,1.1-0.6,1.6-0.6c0.3,0,0.7,0.1,1.2,0.2c1.6,0.4,3.2,1.4,3.2,1.4l0.1,0.1l2.4-0.3l2.7-2.2l2.1-1.2l0.3-0.3l1.2,0.2
				l1.9,0.7l0.1,0c0,0,0.4-0.1,0.8-0.1c0.5,0,1,0.1,1.2,0.5c0.2,0.4,0.3,0.8,0.5,0.9l0.4,3.1l-0.5,2.3l1.4,1.7l0.1,0
				c0.5,0.3,1.2,0.8,1.3,1.2c0,0.1,0,0.1,0,0.2c-0.7,0.9-0.9,2-1,2.2c-0.3,0.6-2.6,5.2-2.1,7.5c0,0.3,0,0.4-0.1,0.4
				C60.8,83.7,60.4,84,59,84L59,84z"/>
			<path d="M55.9,63.3l0.8,0.1l1.8,0.7l0.3,0.1l0.3-0.1c0,0,0.3-0.1,0.7-0.1c0.5,0,0.7,0.1,0.7,0.2c0.1,0.3,0.3,0.7,0.5,1l0.4,2.9
				L60.9,70l-0.1,0.5l0.3,0.4l1.2,1.4l0.1,0.1l0.2,0.1c0.4,0.2,0.8,0.6,1,0.8c-0.6,0.9-0.9,1.8-1,2.2c-0.5,0.9-2.6,5.3-2.1,7.8
				c0,0,0,0,0,0c-0.1,0.1-0.5,0.2-1.4,0.2c-0.9,0-1.8-0.1-2.3-0.2l-6.3-5.9L50,74.3l-0.1-0.5l-0.4-0.2l-2.6-1.4L46.7,72h-0.3h-3.2
				l-2.3-0.3l0.2-3.5c0.2-1.1,0.4-1.6,1.2-2.1c0.7-0.4,1-0.6,1.4-0.6c0.3,0,0.6,0.1,1.1,0.2c1.5,0.4,3,1.3,3.1,1.3l0.3,0.2l0.3,0
				l2.1-0.2l0.3,0l0.2-0.2l2.5-2.1l2-1.1l0.1-0.1l0.1-0.1L55.9,63.3 M55.6,62.2l-0.5,0.5L53,63.8l-2.6,2.1l-2.1,0.2
				c0,0-1.6-0.9-3.3-1.4c-0.6-0.2-1-0.2-1.4-0.2c-0.7,0-1.1,0.3-1.9,0.7c-1.2,0.7-1.4,1.6-1.6,2.8l-0.2,4.5l3.3,0.5h3.3l2.6,1.4
				l0.5,3.5l6.8,6.3c0,0,1.4,0.3,2.8,0.3s2.6-0.3,2.4-1.5c-0.5-2.3,2.1-7.3,2.1-7.3s0.2-1.2,0.9-2.1c0.7-0.9-1.4-2.1-1.4-2.1
				l-1.2-1.4l0.5-2.1l-0.5-3.5c0,0,0,0.1,0,0.1c-0.1,0-0.2-0.1-0.4-0.8s-1-0.8-1.7-0.8c-0.5,0-0.9,0.1-0.9,0.1L57,62.4L55.6,62.2
				L55.6,62.2z"/>
		</g>
		<g>
			<path d="M50,7.3c23.5,0,42.7,19.1,42.7,42.7S73.5,92.7,50,92.7S7.3,73.5,7.3,50S26.5,7.3,50,7.3 M50,6.3
				C25.9,6.3,6.3,25.9,6.3,50S25.9,93.7,50,93.7S93.7,74.1,93.7,50S74.1,6.3,50,6.3L50,6.3z"/>
		</g>
		<circle class="st9" cx="50" cy="50" r="50"/>
	</g>
</g>
</svg>
