<?xml version="1.0" encoding="utf-8"?>
<!-- Generator: Adobe Illustrator 23.0.2, SVG Export Plug-In . SVG Version: 6.00 Build 0)  -->
<svg version="1.1" id="레이어_1" xmlns="http://www.w3.org/2000/svg" xmlns:xlink="http://www.w3.org/1999/xlink" x="0px"
	 y="0px" viewBox="0 0 50 44.7" style="enable-background:new 0 0 50 44.7;" xml:space="preserve">
<style type="text/css">
	.st0{fill:#2E9AD0;}
</style>
<g>
	<g>
		<circle class="st0" cx="16.7" cy="1.8" r="1.8"/>
	</g>
	<g>
		<circle class="st0" cx="29.9" cy="1.8" r="1.8"/>
	</g>
	<g>
		<circle class="st0" cx="34.6" cy="12.4" r="1.8"/>
	</g>
	<g>
		<circle class="st0" cx="40.7" cy="9.7" r="1.8"/>
	</g>
	<g>
		<circle class="st0" cx="39.9" cy="22.3" r="1.8"/>
	</g>
	<g>
		<circle class="st0" cx="44.8" cy="22.3" r="1.8"/>
	</g>
	<g>
		<circle class="st0" cx="34.6" cy="32.4" r="1.8"/>
	</g>
	<g>
		<circle class="st0" cx="47.4" cy="40.7" r="2.6"/>
	</g>
	<g>
		<circle class="st0" cx="30" cy="42.9" r="1.8"/>
	</g>
	<g>
		<circle class="st0" cx="23.3" cy="33.8" r="1.8"/>
	</g>
	<g>
		<circle class="st0" cx="30" cy="22.4" r="1.8"/>
	</g>
	<g>
		<circle class="st0" cx="16.7" cy="22.4" r="1.8"/>
	</g>
	<g>
		<circle class="st0" cx="12" cy="32.3" r="1.8"/>
	</g>
	<g>
		<circle class="st0" cx="5.9" cy="35" r="1.8"/>
	</g>
	<g>
		<circle class="st0" cx="6.8" cy="22.4" r="1.8"/>
	</g>
	<g>
		<circle class="st0" cx="12" cy="12.4" r="1.8"/>
	</g>
	<g>
		<circle class="st0" cx="23.4" cy="10.9" r="1.8"/>
	</g>
	<g>
		<circle class="st0" cx="5.9" cy="9.6" r="1.8"/>
	</g>
	<g>
		<circle class="st0" cx="1.8" cy="22.2" r="1.8"/>
	</g>
	<g>
		<circle class="st0" cx="16.7" cy="42.8" r="1.8"/>
	</g>
	<g>
		<path class="st0" d="M30.1,43.3H16.5l-11-8L1.4,22.4L5.6,9.6l11-8h13.6l11,8l4.2,12.9L41,35.3l-0.1,0.1L30.1,43.3z M16.8,42.3
			h12.9l10.4-7.6l4-12.3l-4-12.3L29.7,2.6H16.8L6.4,10.2l-4,12.3l4,12.3L16.8,42.3z"/>
	</g>
	<g>
		<path class="st0" d="M30,43.8l-7.1-9.8l-6.6-11.4l0,0l-4.8-10.2l5.1-11.2l7.2,9.4l6.7,11.6l0,0l4.8,10.2L30,43.8z M23.7,33.5
			l6,8.3l4.3-9.4l-4.5-9.8l-6.6-11.5l-6.1-8l-4.2,9.2l4.6,9.8L23.7,33.5z"/>
	</g>
	<g>
		<path class="st0" d="M16.6,43.7l-5.2-11.4l4.9-10.2l6.6-11.6l0,0L30,1.2l4.9,10.5l6.3-2.6l-0.8,13.1l0.1,0.1l-0.1,0.1l0.7,13.4
			l-7.2-3.1l5.4-10.4l-4.7-8.8l-4.2,9.1l0,0l-6.7,11.4L16.6,43.7z M12.6,32.3l4.3,9.4l6-8.2l6.6-11.4l4.5-9.8l-4.3-9.3l-6,8
			l-6.5,11.5L12.6,32.3z M35.3,32.2l4.7,2l-0.5-10L35.3,32.2z M35.3,12.6l4.2,7.9l0.6-9.8L35.3,12.6z"/>
	</g>
	<g>
		<polygon class="st0" points="5.4,35.8 6.3,22.4 5.4,9.1 12.1,11.8 23.3,10.3 23.4,10.3 34.7,11.9 34.6,12.9 23.3,11.3 11.9,12.9 
			6.5,10.7 7.3,22.4 6.5,34.2 11.9,31.8 23.3,33.3 34.6,31.9 34.7,32.9 23.3,34.3 12.1,32.9 		"/>
	</g>
	<g>
		<polygon class="st0" points="1.9,23 1.9,22 6.8,21.9 30,21.9 39.9,21.8 39.9,21.8 44.7,22 44.6,23 39.9,22.8 30,22.9 6.8,22.9 		
			"/>
	</g>
	<g>
		<polygon class="st0" points="11.6,32.6 6.2,22.4 11.6,12.1 12.4,12.6 7.4,22.4 12.4,32.1 		"/>
	</g>
	<g>
		<rect x="43.5" y="33.4" transform="matrix(0.6432 -0.7657 0.7657 0.6432 -13.3022 47.1849)" class="st0" width="1" height="8.9"/>
	</g>
</g>
</svg>
