<?xml version="1.0" encoding="utf-8"?>
<!-- Generator: Adobe Illustrator 23.0.1, SVG Export Plug-In . SVG Version: 6.00 Build 0)  -->
<svg version="1.1" xmlns="http://www.w3.org/2000/svg" xmlns:xlink="http://www.w3.org/1999/xlink" x="0px" y="0px"
	 viewBox="0 0 50 68" style="enable-background:new 0 0 50 68;" xml:space="preserve">
<style type="text/css">
	.st0{display:none;}
	.st1{fill:#277DEF;}
</style>
<g id="레이어_1" class="st0">
	
		<image style="display:inline;overflow:visible;" width="900" height="495" xlink:href="2019-03-05 16.35.54.jpg"  transform="matrix(1 0 0 1 -1060.3436 -213.9204)">
	</image>
</g>
<g id="레이어_2">
	<path class="st1" d="M8.7,2.3l2.2,2.3V14H0.2v3.5h10.7v23.3c0,0,0.3,7,8.3,7.7c8.1,0.7,10.4-1.6,12.8-6.5l-1.6-2.2
		c0,0-2.5,5.2-7.2,5.1s-5.2-4.7-5.2-4.7V17.6h21.5L24.4,37.9v1.5c0,0,0.8-0.5,2-1.1c1.7-0.9,4.4-1.9,7.1-1.9c4.7,0,9,5.3,9,11.2
		s0.3,13.3-7.7,15.8c-2.6,0.8-8.6,0.1-10.1-2.4c0,0,2.8-0.6,2.8-4.3c0-3.6-2.5-4.7-4.7-4.7s-4.5,2-4.5,4.6c0,2.5,1.7,9.5,10.4,10.6
		s18.6-1.7,20.7-13.1c2.2-11.4-5.1-22.9-16.9-21l16.3-16.8l-2.6-2.7H18.1v-12l-2.6-1.3H8.7C8.7,0.5,8.7,2.3,8.7,2.3z"/>
</g>
</svg>
