<?xml version="1.0" encoding="utf-8"?>
<!-- Generator: Adobe Illustrator 23.0.1, SVG Export Plug-In . SVG Version: 6.00 Build 0)  -->
<svg version="1.1" xmlns="http://www.w3.org/2000/svg" xmlns:xlink="http://www.w3.org/1999/xlink" x="0px" y="0px"
	 viewBox="0 0 100 100" style="enable-background:new 0 0 100 100;" xml:space="preserve">
<style type="text/css">
	.st0{display:none;}
	.st1{display:inline;}
	.st2{fill:none;}
	.st3{fill:#030104;}
	.st4{fill:none;stroke:#030104;stroke-linecap:round;stroke-miterlimit:10;}
	.st5{fill:none;stroke:#000000;stroke-miterlimit:10;}
	.st6{fill:none;stroke:#000000;stroke-linecap:round;stroke-linejoin:round;stroke-miterlimit:10;}
	.st7{fill:none;stroke:#000000;stroke-width:0.5;stroke-miterlimit:10;}
	.st8{fill:#FFFFFF;}
</style>
<g id="레이어_1">
	
		<image style="overflow:visible;" width="236" height="758" xlink:href="스크린샷 2019-03-18 오후 2.13.02.png"  transform="matrix(0.1148 0 0 0.1148 -39 5)">
	</image>
	
		<image style="overflow:visible;" width="171" height="165" xlink:href="34DB1BFBD6D9204F.png"  transform="matrix(0.1148 0 0 0.1148 -4 112)">
	</image>
</g>
<g id="레이어_3" class="st0">
	<g class="st1">
		<g>
			<circle cx="77" cy="23.4" r="15.8"/>
		</g>
		<g>
			<path d="M92.8,57.4V98c0,1.1-0.9,2-2,2H63.1c-1.1,0-2-0.9-2-2V57.4c0-8.7,7.1-15.8,15.8-15.8S92.8,48.7,92.8,57.4z"/>
		</g>
		<g>
			<path d="M52.3,19.3c-0.2,0-0.4,0-0.6-0.1L8.4,3.4C7.5,3.1,7,2.1,7.3,1.2c0.3-0.9,1.3-1.4,2.3-1l43.4,15.8c0.9,0.3,1.4,1.3,1,2.3
				C53.7,18.9,53.1,19.3,52.3,19.3z"/>
		</g>
		<g>
			<path d="M52.3,29.9C52.3,29.9,52.3,29.9,52.3,29.9L8.9,29.3c-1,0-1.7-0.8-1.7-1.8c0-1,0.8-1.7,1.8-1.7c0,0,0,0,0,0l43.4,0.6
				c1,0,1.7,0.8,1.7,1.8C54.1,29.1,53.3,29.9,52.3,29.9z"/>
		</g>
		<g>
			<path d="M9,53.9c-0.7,0-1.4-0.5-1.7-1.2c-0.3-0.9,0.2-1.9,1.2-2.2L51.8,37c0.9-0.3,1.9,0.2,2.2,1.2c0.3,0.9-0.2,1.9-1.2,2.2
				L9.5,53.8C9.3,53.9,9.1,53.9,9,53.9z"/>
		</g>
	</g>
</g>
<g id="Exchange_Partnership" class="st0">
	<g class="st1">
		<rect x="190.7" y="124.2" class="st2" width="2" height="5.3"/>
		<rect x="190.7" y="116.5" class="st2" width="2" height="5.3"/>
		<rect x="187.3" y="131.5" width="2" height="2"/>
		<rect x="187.3" y="112.5" width="2" height="2"/>
		<rect x="189.3" y="124.2" class="st2" width="1.3" height="5.3"/>
		<path class="st2" d="M197,129.5c1.9,0,3.4-1.2,3.4-2.7c0-1.5-1.5-2.7-3.4-2.7h-4.3v5.3H197z"/>
		<rect x="189.3" y="116.5" class="st2" width="1.3" height="5.3"/>
		<path class="st2" d="M197,121.8c1.9,0,3.4-1.2,3.4-2.7c0-1.5-1.5-2.7-3.4-2.7h-4.3v5.3H197z"/>
		<rect x="190.7" y="112.5" width="2" height="2"/>
		<rect x="190.7" y="131.5" width="2" height="2"/>
		<rect x="189.3" y="129.5" width="1.3" height="2"/>
		<rect x="189.3" y="114.5" width="1.3" height="2"/>
		<rect x="189.3" y="121.8" width="1.3" height="2.3"/>
		<path d="M186.6,114.5c-0.3,0-0.6,0.3-0.6,0.6v7.9c0,0,0,0,0,0.1c0,0,0,0,0,0.1v7.9c0,0.3,0.3,0.6,0.6,0.6h0.8v-17H186.6z"/>
		<path d="M188.4,129.5c-0.2,0-0.4-0.2-0.4-0.3v-4.7c0-0.2,0.2-0.3,0.4-0.3h0.9v-2.3h-0.9c-0.2,0-0.4-0.2-0.4-0.3v-4.7
			c0-0.2,0.2-0.3,0.4-0.3h0.9v-2h-2v17h2v-2H188.4z"/>
		<path d="M200.2,123c1.5-0.7,2.5-2.3,2.5-4c0-2.5-2-4.5-4.5-4.5h-5.4v2h4.3c1.9,0,3.4,1.2,3.4,2.7c0,1.5-1.5,2.7-3.4,2.7h-4.3v2.3
			h4.3c1.9,0,3.4,1.2,3.4,2.7c0,1.5-1.5,2.7-3.4,2.7h-4.3v2h5.4c2.5,0,4.5-2,4.5-4.5C202.6,125.3,201.7,123.7,200.2,123z"/>
		<rect x="190.7" y="129.5" width="2" height="2"/>
		<rect x="190.7" y="114.5" width="2" height="2"/>
		<rect x="190.7" y="121.8" width="2" height="2.3"/>
	</g>
	<path class="st1" d="M142.3,103.5c0,0,0.5,0.6,0.5,1.6h2.3c0,0,0.4-3.6-4.5-4v-2.5h-2v2.5c-4.8,0.4-4.8,3.2-4.8,4.6
		c0,1.6,0.5,4,3.6,5c0.4,0.1,0.8,0.2,1.2,0.3v6.3c-1.1-0.2-2.1-0.9-2.1-2h-2.3c0,0-0.4,3.4,4.4,3.7v2h2v-2.1
		c4.1-0.4,4.5-2.6,4.5-4.3c0-1.6-0.7-3.7-4.5-5.1v-7C141.2,102.7,141.8,103,142.3,103.5z M136.8,103.5c0.3-0.3,0.9-0.6,1.7-0.8v6.3
		C135.5,108,135.9,104.4,136.8,103.5z M142.3,115c0,1.1-0.8,1.8-1.8,2.2v-5.4C141.6,112.3,142.3,113.2,142.3,115z"/>
	<g class="st1">
		<g>
			<path d="M175.7,84c-5.8,0-10.5-4.7-10.5-10.5S169.9,63,175.7,63v2.1c-4.6,0-8.4,3.8-8.4,8.4s3.8,8.4,8.4,8.4V84z"/>
		</g>
		<g>
			<g>
				<rect x="162.3" y="70.6" width="13.1" height="2.1"/>
			</g>
			<g>
				<rect x="162.3" y="74.3" width="13.1" height="2.1"/>
			</g>
		</g>
	</g>
	<g class="st1">
		<g>
			<path d="M164.9-3.6h-3.1h-1.4h-0.9h-0.6c-0.2,0-0.3,0.1-0.3,0.2v3.3c0,0.1,0.1,0.2,0.3,0.2h0.6h0.9h1.4h3.1
				c1.3,0,2.4-0.8,2.4-1.9C167.2-2.8,166.2-3.6,164.9-3.6z"/>
			<path d="M164.9,1.8h-3.1h-1.4h-0.9h-0.6c-0.2,0-0.3,0.1-0.3,0.2v3.3c0,0.1,0.1,0.2,0.3,0.2h0.6h0.9h1.4h3.1
				c1.3,0,2.4-0.8,2.4-1.9C167.2,2.7,166.2,1.8,164.9,1.8z"/>
			<path d="M162.5-10c-6.1,0-11,4.9-11,11s4.9,11,11,11s11-4.9,11-11S168.6-10,162.5-10z M168.8,3.8c0,1.8-1.4,3.2-3.2,3.2h-3.8v1.4
				h-1.4V7h-0.9v1.4H158V7h-0.5c-0.2,0-0.4-0.2-0.4-0.4V1c0,0,0,0,0,0c0,0,0,0,0,0v-5.6c0-0.2,0.2-0.4,0.4-0.4h0.5v-1.4h1.4V-5h0.9
				v-1.4h1.4V-5h3.8c1.8,0,3.2,1.4,3.2,3.2c0,1.2-0.7,2.3-1.7,2.8C168.1,1.5,168.8,2.6,168.8,3.8z"/>
		</g>
		<path d="M137,3c-4.4,0-8,3.6-8,8s3.6,8,8,8s8-3.6,8-8S141.4,3,137,3z M132.8,11.9c-0.4,0-0.8-0.4-0.8-0.8c0-0.4,0.4-0.8,0.8-0.8
			c0.4,0,0.8,0.4,0.8,0.8C133.6,11.5,133.2,11.9,132.8,11.9z M139.2,8.2h-0.9c0-0.5-0.2-0.9-0.2-0.9c-0.5-0.9-1.8-0.5-2.1,0
			c-0.4,0.5-0.5,2.6,0.7,3.2c2.1,0.7,2.5,2.1,2.5,3.2c0,0.9-0.1,2.1-1.6,2.4V17h-1.1v-0.9c-1.7-0.2-1.6-2.1-1.6-2.1h0.9
			c0,1.6,2.3,1.6,2.3-0.2s-0.7-1.9-1.9-2.5c-1.2-0.5-1.4-1.9-1.4-2.8c0-0.8,0-2.3,1.8-2.6V5h1.1V6C139.4,6.3,139.2,8.2,139.2,8.2z
			 M141.2,11.9c-0.4,0-0.8-0.4-0.8-0.8c0-0.4,0.4-0.8,0.8-0.8c0.4,0,0.8,0.4,0.8,0.8C142,11.5,141.6,11.9,141.2,11.9z"/>
		<g>
			<path class="st3" d="M190.7,28v16.7c0,0-3.6,0.7-4.3,0.8c-0.7,0.1-3,0.8-4.7-0.8c-2.6-2.5-11.8-11.6-11.8-11.6s-1.6-1.6-4.1-0.2
				c-2.3,1.2-5.8,3-7.2,3.7c-2.7,1.5-5-0.9-5-2.6c0-1.4,0.9-2.3,2.1-3c3.3-2,10.2-5.9,13.1-7.4c1.8-0.9,3-1,5.4,1
				c3,2.5,5.6,4.8,5.6,4.8s0.9,0.7,2.2,0.4C185.4,29.1,190.7,28,190.7,28z M154.1,56.3c0.4-1.1,0.3-2.4-0.6-3.3
				c-0.8-0.8-1.9-1-3-0.7c0.3-1.1,0.1-2.2-0.6-3c-0.8-0.8-1.9-1-3-0.7c0.3-1.1,0.1-2.2-0.6-3c-1.2-1.2-3.3-1.2-4.7,0.1
				c-1.4,1.3-2.2,3.7-1,5.1c1.2,1.4,2.6,0.5,3.7,0.3c-0.3,1.1-1.2,2-0.1,3.4c1.1,1.4,2.6,0.5,3.7,0.3c-0.3,1.1-1.1,2.1-0.1,3.4
				c1.1,1.3,2.8,0.6,3.9,0.2c-0.4,1.1-1.4,2.4-0.2,3.7c1.2,1.4,4,0.7,5.4-0.6c1.4-1.3,1.5-3.4,0.3-4.6
				C156.5,56.2,155.2,56,154.1,56.3z M179.1,47.6c-9.9-9.9-5.3-5.3-10.6-10.6c0,0-1.6-1.6-3.7-0.7c-1.5,0.7-3.4,1.5-4.8,2.2
				c-1.6,0.8-2.7,1.1-3.3,1.1c-3.1,0-5.5-2.5-5.5-5.5c0-2,1.1-3.7,2.6-4.7c2.2-1.5,7.3-4.2,7.3-4.2s-1.5-2-4.9-2
				c-3.4,0-10.5,4.6-10.5,4.6s-2,1.3-4.9,0.1l-5.5-1.9v19.2c0,0,1.6,0.5,3,1c0.3-0.9,0.8-1.8,1.6-2.4c2.3-2.2,6.2-2.3,8.4-0.1
				c0.6,0.7,1.1,1.5,1.3,2.3c0.9,0.3,1.6,0.7,2.3,1.4c0.6,0.7,1.1,1.5,1.3,2.3c0.9,0.3,1.6,0.7,2.3,1.4c0.7,0.7,1.2,1.6,1.4,2.6
				c0.9,0.3,1.7,0.7,2.4,1.4c1.3,1.3,1.7,3.1,1.5,4.8c0,0,0,0,0,0c0,0,0.8,0.9,1.3,1.4c0.9,0.9,2.5,0.9,3.4,0c0.9-0.9,0.9-2.5,0-3.4
				c0,0-3.4-3.6-3.1-3.8c0.3-0.3,4.6,4.2,4.7,4.3c0.9,0.9,2.5,0.9,3.4,0c0.9-0.9,0.9-2.5,0-3.4c0,0-0.2-0.2-0.3-0.3
				c0,0-4.3-3.8-3.9-4.1c0.3-0.3,5.6,4.6,5.6,4.6c1,0.9,2.4,0.9,3.3-0.1c0.9-0.9,0.9-2.3,0.1-3.3c0-0.1-4-4.3-3.7-4.6
				c0.3-0.3,4.3,3.8,4.3,3.8c0.9,0.9,2.5,0.9,3.4,0C180.1,50.1,180.1,48.6,179.1,47.6C179.2,47.6,179.2,47.6,179.1,47.6z"/>
		</g>
		<path class="st4" d="M192.6,14.9c5.9,6.9,9.4,15.8,9.4,25.6"/>
		<path class="st4" d="M171.7,2.1c4.3,1,8.4,2.8,12,5.1"/>
		<path class="st4" d="M141.7,6.9c3.6-2.2,7.6-3.9,11.9-4.9"/>
		<path class="st4" d="M123,40.5c0-10.1,3.8-19.4,10.1-26.4"/>
		<path d="M188,3c-4.4,0-8,3.6-8,8s3.6,8,8,8s8-3.6,8-8S192.4,3,188,3z M190.8,6.6c-2,0-3.6,1.3-4.3,3h4.1v1.1h-4.4
			c0,0.1,0,0.3,0,0.4c0,0.1,0,0.3,0,0.4h4.4v1.1h-4.1c0.6,1.7,2.3,3,4.3,3v1.1c-2.6,0-4.8-1.8-5.5-4.1h-1.8v-1.1h1.6
			c0-0.1,0-0.3,0-0.4c0-0.1,0-0.3,0-0.4h-1.6V9.6h1.8c0.7-2.4,2.9-4.1,5.5-4.1V6.6z"/>
	</g>
	<g class="st1">
		<g>
			<g>
				<path d="M22,73.1c-1.8,0-4.6,0-4.6,0v11.8l5.5-10C22.9,74.9,23.8,73.1,22,73.1z"/>
			</g>
			<g>
				<path d="M10.1,74.9l5.5,10V73.1c0,0-2.7,0-4.6,0S10.1,74.9,10.1,74.9z"/>
			</g>
			<g>
				<path d="M16.7,65.5c-7.7,0-14,6.3-14,14s6.3,14,14,14s14-6.3,14-14S24.4,65.5,16.7,65.5z M25.6,75.8l-8.2,13.7
					c0,0,0,0.9-0.9,0.9s-0.9-0.9-0.9-0.9L7.4,74.9c0,0-0.9-3.6,2.7-3.6c3.6,0,12.8,0,12.8,0S27.4,71.2,25.6,75.8z"/>
			</g>
		</g>
		<g>
			<path d="M10,70.4c-0.7,0-1.4-0.5-1.6-1.2c-1.3-4.2-2-8.6-2-13c0-20,13.5-37.4,32.8-42.4c0.9-0.2,1.8,0.3,2,1.2
				c0.2,0.9-0.3,1.8-1.2,2C22.3,21.7,9.8,37.8,9.8,56.2c0,4.1,0.6,8.1,1.8,12c0.3,0.9-0.2,1.8-1.1,2.1C10.4,70.4,10.2,70.4,10,70.4z
				"/>
		</g>
		<g>
			<path d="M50.2,100c-10.6,0-20.9-3.9-28.8-10.8c-0.7-0.6-0.8-1.7-0.2-2.4c0.6-0.7,1.7-0.8,2.4-0.2c7.4,6.5,16.8,10,26.6,10
				c9.1,0,17.6-2.9,24.8-8.5c0.7-0.6,1.8-0.4,2.4,0.3c0.6,0.7,0.4,1.8-0.3,2.4C69.3,96.8,60.1,100,50.2,100z"/>
		</g>
		<g>
			<path d="M90,71.8c-0.2,0-0.4,0-0.6-0.1c-0.9-0.3-1.3-1.3-1-2.1c1.5-4.3,2.2-8.8,2.2-13.3c0-19.1-13.6-35.7-32.3-39.6
				c-0.9-0.2-1.5-1.1-1.3-2c0.2-0.9,1.1-1.5,2-1.3C79.3,17.5,94,35.5,94,56.2c0,4.9-0.8,9.8-2.4,14.4C91.3,71.4,90.7,71.8,90,71.8z"
				/>
		</g>
		<g>
			<g>
				<path d="M51.4,21c0.9-0.3,1.7-1,1.7-2.1c0-1.7-0.6-2.5-1.7-3.1V21z"/>
			</g>
			<g>
				<path d="M49.4,13.3v-6c-0.7,0.2-1.3,0.4-1.6,0.7C47,8.9,46.6,12.4,49.4,13.3z"/>
			</g>
			<g>
				<path d="M50.2,0c-7.7,0-14,6.3-14,14s6.3,14,14,14s14-6.3,14-14S58,0,50.2,0z M55.6,9.5h-2.2c0-0.9-0.4-1.5-0.4-1.5
					c-0.4-0.5-1-0.7-1.7-0.8v6.6c3.6,1.3,4.3,3.3,4.3,4.8c0,1.6-0.4,3.7-4.3,4.1v2h-1.9v-1.9c-4.6-0.3-4.2-3.5-4.2-3.5h2.2
					c0,1.1,0.9,1.7,2,1.9v-6c-0.4-0.1-0.7-0.2-1.1-0.3c-3-0.9-3.5-3.2-3.5-4.7c0-1.4,0-4,4.6-4.4V3.3h1.9v2.4
					C56,6.2,55.6,9.5,55.6,9.5z"/>
			</g>
		</g>
		<g>
			<g>
				<path d="M86.3,73.9h-3.9h-1.8h-1.2h-0.8c-0.2,0-0.4,0.1-0.4,0.3v4.2c0,0.2,0.2,0.3,0.4,0.3h0.8h1.2h1.8h3.9c1.7,0,3-1.1,3-2.4
					C89.4,75,88,73.9,86.3,73.9z"/>
			</g>
			<g>
				<path d="M86.3,80.9h-3.9h-1.8h-1.2h-0.8c-0.2,0-0.4,0.1-0.4,0.3v4.2c0,0.2,0.2,0.3,0.4,0.3h0.8h1.2h1.8h3.9c1.7,0,3-1.1,3-2.4
					C89.4,81.9,88,80.9,86.3,80.9z"/>
			</g>
			<g>
				<path d="M83.3,65.8c-7.7,0-14,6.3-14,14s6.3,14,14,14s14-6.3,14-14S91.1,65.8,83.3,65.8z M91.4,83.4c0,2.2-1.8,4.1-4.1,4.1h-4.9
					v1.8h-1.8v-1.8h-1.2v1.8h-1.8v-1.8h-0.7c-0.3,0-0.5-0.2-0.5-0.5v-7.1c0,0,0,0,0-0.1c0,0,0,0,0-0.1v-7.1c0-0.3,0.2-0.5,0.5-0.5
					h0.7v-1.8h1.8v1.8h1.2v-1.8h1.8v1.8h4.9c2.2,0,4.1,1.8,4.1,4.1c0,1.6-0.9,2.9-2.2,3.6C90.5,80.5,91.4,81.8,91.4,83.4z"/>
			</g>
		</g>
	</g>
	
		<image style="display:inline;overflow:visible;opacity:0.6;" width="314" height="318" xlink:href="스크린샷 2019-03-18 오후 4.04.06.png"  transform="matrix(0.1038 0 0 0.1038 -25 -36)">
	</image>
</g>
<g id="Fundraising" class="st0">
	<g class="st1">
		<g>
			<g>
				<g>
					<path d="M72.1,72.8c-4.1,0.3-9.6,4.4-14.9,6.8c-6.5,2.9-16.5,0.6-16.5,0.6c1.6-0.7,7.8-2.2,9.1-2.8c6.7-3,6.2-9.1,3-9.1
						c-4.2,0.1-6.7,1.1-15.2,2.3c-6.4,0.9-14,0.6-17.6,1.9c-5.1,2-13.4,15.2-13.4,15.2L19.4,100c0,0,7.9-7.8,11.8-7.8
						c8.8,0,9.1-0.1,17.3-0.6c3.5-0.2,4.2-0.3,6.2-1c10.6-3.6,21.9-13.1,22.1-14.2C77.2,73.8,74.3,72.6,72.1,72.8z"/>
				</g>
			</g>
		</g>
		<g>
			<g>
				<g>
					<path d="M27.9,27.2c4.1-0.3,9.6-4.4,14.9-6.8c6.5-2.9,16.5-0.6,16.5-0.6c-1.6,0.7-7.8,2.2-9.1,2.8c-6.7,3-6.2,9.1-3,9.1
						c4.2-0.1,6.7-1.1,15.2-2.3c6.4-0.9,14-0.6,17.6-1.9c5.1-2,13.4-15.2,13.4-15.2L80.6,0c0,0-7.9,7.8-11.8,7.8
						c-8.8,0-9.1,0.1-17.3,0.6c-3.5,0.2-4.2,0.3-6.2,1c-10.6,3.6-21.9,13.1-22.1,14.2C22.8,26.2,25.7,27.4,27.9,27.2z"/>
				</g>
			</g>
		</g>
		<g>
			<g>
				<g>
					<path d="M51.7,42.9h-4.6h-2.1h-1.4h-1c-0.2,0-0.4,0.2-0.4,0.4v5c0,0.2,0.2,0.4,0.4,0.4h1h1.4h2.1h4.6c2,0,3.6-1.3,3.6-2.8
						C55.2,44.2,53.6,42.9,51.7,42.9z"/>
				</g>
				<g>
					<path d="M51.7,51.1h-4.6h-2.1h-1.4h-1c-0.2,0-0.4,0.2-0.4,0.4v5c0,0.2,0.2,0.4,0.4,0.4h1h1.4h2.1h4.6c2,0,3.6-1.3,3.6-2.8
						C55.2,52.3,53.6,51.1,51.7,51.1z"/>
				</g>
				<g>
					<path d="M48.5,33.4c-9.2,0-16.6,7.4-16.6,16.6c0,9.2,7.4,16.6,16.6,16.6c9.2,0,16.6-7.4,16.6-16.6
						C65.1,40.8,57.7,33.4,48.5,33.4z M57.6,54.1c0,2.6-2.1,4.8-4.8,4.8h-5.8V61h-2.1v-2.1h-1.4V61h-2.1v-2.1h-0.8
						c-0.3,0-0.6-0.3-0.6-0.6v-8.4c0,0,0,0,0-0.1c0,0,0,0,0-0.1v-8.4c0-0.3,0.3-0.6,0.6-0.6h0.8v-2.1h2.1v2.1h1.4v-2.1h2.1v2.1h5.8
						c2.6,0,4.8,2.1,4.8,4.8c0,1.9-1.1,3.5-2.6,4.3C56.6,50.6,57.6,52.2,57.6,54.1z"/>
				</g>
			</g>
		</g>
		<g>
			<path d="M48.5,71.6c-11.9,0-21.6-9.7-21.6-21.6c0-11.9,9.7-21.6,21.6-21.6c11.9,0,21.6,9.7,21.6,21.6
				C70.1,61.9,60.5,71.6,48.5,71.6z M48.5,29.8c-11.2,0-20.2,9.1-20.2,20.2c0,11.2,9.1,20.2,20.2,20.2c11.2,0,20.2-9.1,20.2-20.2
				C68.8,38.8,59.7,29.8,48.5,29.8z"/>
		</g>
	</g>
	<g class="st1">
		<g>
			<g>
				<path d="M154.4,70.3c-3,0.2-6.9,3.2-10.7,4.9c-4.6,2.1-11.9,0.4-11.9,0.4c1.1-0.5,5.7-1.6,6.6-2c4.9-2.1,4.4-6.6,2.1-6.6
					c-3.1,0.1-4.8,0.8-10.9,1.6c-4.6,0.6-10.1,0.4-12.7,1.4c-3.7,1.4-9.7,10.9-9.7,10.9l9.2,8.9c0,0,5.7-5.6,8.5-5.6
					c6.3,0,6.6-0.1,12.4-0.4c2.5-0.1,3-0.2,4.4-0.7c7.6-2.6,15.8-9.4,15.9-10.3C158.1,71.1,156,70.2,154.4,70.3z"/>
			</g>
		</g>
		<g>
			<g>
				<path d="M122.6,37.6c3-0.2,6.9-3.2,10.7-4.9c4.6-2.1,11.9-0.4,11.9-0.4c-1.1,0.5-5.7,1.6-6.6,2c-4.9,2.1-4.4,6.6-2.1,6.6
					c3.1-0.1,4.8-0.8,10.9-1.6c4.6-0.6,10.1-0.4,12.7-1.4c3.7-1.4,9.7-10.9,9.7-10.9l-9.2-8.9c0,0-5.7,5.6-8.5,5.6
					c-6.3,0-6.6,0.1-12.4,0.4c-2.5,0.1-3,0.2-4.4,0.7c-7.6,2.6-15.8,9.4-15.9,10.3C118.9,36.8,121,37.7,122.6,37.6z"/>
			</g>
		</g>
		<g>
			<g>
				<path d="M139.7,48.8h-3.3h-1.5h-1h-0.7c-0.2,0-0.3,0.1-0.3,0.3v3.6c0,0.1,0.1,0.3,0.3,0.3h0.7h1h1.5h3.3c1.4,0,2.6-0.9,2.6-2
					C142.3,49.8,141.1,48.8,139.7,48.8z"/>
				<path d="M139.7,54.7h-3.3h-1.5h-1h-0.7c-0.2,0-0.3,0.1-0.3,0.3v3.6c0,0.1,0.1,0.3,0.3,0.3h0.7h1h1.5h3.3c1.4,0,2.6-0.9,2.6-2
					C142.3,55.6,141.1,54.7,139.7,54.7z"/>
				<path d="M137.4,42c-6.6,0-11.9,5.4-11.9,11.9c0,6.6,5.3,11.9,11.9,11.9c6.6,0,11.9-5.3,11.9-11.9C149.4,47.4,144,42,137.4,42z
					 M144,56.9c0,1.9-1.5,3.4-3.4,3.4h-4.2v1.5h-1.5v-1.5h-1v1.5h-1.5v-1.5h-0.6c-0.2,0-0.4-0.2-0.4-0.4v-6c0,0,0,0,0-0.1
					c0,0,0,0,0-0.1v-6c0-0.2,0.2-0.4,0.4-0.4h0.6v-1.5h1.5v1.5h1v-1.5h1.5v1.5h4.2c1.9,0,3.4,1.5,3.4,3.4c0,1.3-0.8,2.5-1.9,3.1
					C143.2,54.4,144,55.6,144,56.9z"/>
			</g>
		</g>
		<circle class="st5" cx="137.4" cy="53.9" r="15.1"/>
	</g>
</g>
<g id="Transnational_Business">
	<g>
		<path class="st6" d="M7.8,73.6c0.5-0.3,1.3,0.3,1.6-0.3C9.7,72.8,8.9,72,8.9,72l0.3-1.6l0.3-1.3l0.8-1.3c0,0,0.5-0.3,1.9,1.3
			c1.3,1.6,0.3,1.1,0.3,1.1l0.5,1.6l2.4,0.5l0.5-0.5l-1.1-1.9l1.1-1.9h3c0,0,0.3-0.3,0.5-0.5s4.8-2.1,2.1-1.9c-2.7,0.3-4-2.7-4-2.7
			l-1.6-3v-3.5c0,0,1.1-1.3,4.8-1.3s3.8,0.8,3.8,0.8s1.3-0.5,3.2-1.9s0.5-2.4,0.5-2.4v-2.1v-3l3.2-5.1l1.3-1.3l2.4,0.3l3.2-1.9
			l-0.3-5.4l-1.3-3.8c0,0-0.8-2.4-2.7-2.1c-1.9,0.3-0.8,1.3-1.9,2.4c-1.1,1.1-1.1,1.9-3,2.4c-1.9,0.5-0.8-1.1,0.8-3
			c1.6-1.9,2.1-9.1,2.1-9.1s-1.3,1.3-3.2,3.2s-4.8,5.1-6.4,4c-1.6-1.1-8.3,4.6-10.2,4.6c-1.3,0-6.6,2.4-9.8,3.9
			c-0.1,0.2-0.1,0.3-0.2,0.5c-1.3,4.4-2,9-2,13.8c0,9.5,2.6,18.3,7.2,25.9C7.6,74.7,7.6,73.7,7.8,73.6z"/>
		<path class="st6" d="M72,5.8c-0.1,0-0.1-0.1-0.2-0.1c-1.1,0.7-4.6,3.1-6.9,6.2c-2.7,3.8-3,8.3-6.4,9.1S48,24,48,25.6
			c0,1.6-2.7,3.8-1.3,5.4s4.8,4.6,4.6,6.7s-2.1,0.8-0.5,4.6c1.6,3.8,3.8,4.6,7,4.3c3.2-0.3,4.3-1.6,5.6-4c1.3-2.4-1.9-4.8,1.1-4.8
			s7.5-0.5,8.3,0.8s1.6,1.3,1.9,2.7c0.3,1.3,1.9,0,1.9,3s3,2.4,3,2.4s5.6-1.6,7,0c1.3,1.6,1.1,2.1,0.5,4c-0.5,1.9-0.8,0-1.6,4.3
			c-0.8,4.3,0.3,3.2,2.4,5.6c2.1,2.4,6.4-1.1,7-1.6c0.5-0.5,0.5-0.3,0.5,1.3c0,1.6,0.8,1.1,0,3.2c-0.7,1.8,0.8,0.9,0.6,3.4l0.1,0.1
			c1.9-5.3,2.9-11,2.9-16.9C98.9,30.8,87.9,14.1,72,5.8z"/>
		<path class="st6" d="M65,74.7l-1.3-1.6l0.5-2.4l-0.5-4c0,0,0,0.5-0.5-0.8c-0.5-1.3-3-0.8-3-0.8L58,64.2L56.4,64l-0.5,0.5l-2.4,1.3
			l-3,2.4l-2.4,0.3c0,0-1.9-1.1-3.8-1.6c-1.9-0.5-2.4-0.3-3.8,0.5s-1.6,1.9-1.9,3.2l-0.3,5.1l3.8,0.5h3.8l3,1.6l0.5,4l7.8,7.2
			c0,0,6.4,1.3,5.9-1.3c-0.5-2.7,2.4-8.3,2.4-8.3s0.3-1.3,1.1-2.4C67.4,76,65,74.7,65,74.7z"/>
		<g>
			<path d="M50,1c27,0,49,22,49,49S77,99,50,99S1,77,1,50S23,1,50,1 M50,0C22.4,0,0,22.4,0,50s22.4,50,50,50s50-22.4,50-50
				S77.6,0,50,0L50,0z"/>
		</g>
	</g>
	<g>
		<g>
			<path d="M137.1,67.6c0.5-0.2,1.2,0.2,1.4-0.2c0.2-0.5-0.5-1.2-0.5-1.2l0.2-1.4l0.2-1.2l0.7-1.2c0,0,0.5-0.2,1.6,1.2
				c1.2,1.4,0.2,0.9,0.2,0.9l0.5,1.4l2.1,0.5l0.5-0.5l-0.9-1.6l0.9-1.6h2.6c0,0,0.2-0.2,0.5-0.5s4.2-1.9,1.9-1.6
				c-2.3,0.2-3.5-2.3-3.5-2.3l-1.4-2.6v-3c0,0,0.9-1.2,4.2-1.2c3.3,0,3.3,0.7,3.3,0.7s1.2-0.5,2.8-1.6c1.6-1.2,0.5-2.1,0.5-2.1v-1.9
				V44l2.8-4.5l1.2-1.2l2.1,0.2l2.8-1.6l-0.2-4.7l-1.2-3.3c0,0-0.7-2.1-2.3-1.9c-1.6,0.2-0.7,1.2-1.6,2.1c-0.9,0.9-0.9,1.6-2.6,2.1
				c-1.6,0.5-0.7-0.9,0.7-2.6c1.4-1.6,1.9-8,1.9-8s-1.2,1.2-2.8,2.8c-1.6,1.6-4.2,4.5-5.6,3.5c-1.4-0.9-7.3,4-8.9,4
				c-1.1,0-5.8,2.1-8.6,3.4c0,0.1-0.1,0.3-0.1,0.4c-1.1,3.8-1.7,7.9-1.7,12.1c0,8.3,2.3,16,6.3,22.6
				C136.9,68.6,136.9,67.7,137.1,67.6z"/>
		</g>
		<g>
			<path d="M194.2,8.4c-0.1,0-0.1-0.1-0.2-0.1c-1,0.6-4.1,2.7-6,5.4c-2.3,3.3-2.6,7.3-5.6,8c-3,0.7-9.1,2.6-9.1,4
				c0,1.4-2.3,3.3-1.2,4.7s4.2,4,4,5.9s-1.9,0.7-0.5,4c1.4,3.3,3.3,4,6.1,3.8c2.8-0.2,3.8-1.4,4.9-3.5c1.2-2.1-1.6-4.2,0.9-4.2
				s6.6-0.5,7.3,0.7c0.7,1.2,1.4,1.2,1.6,2.3c0.2,1.2,1.6,0,1.6,2.6c0,2.6,2.6,2.1,2.6,2.1s4.9-1.4,6.1,0c1.2,1.4,0.9,1.9,0.5,3.5
				c-0.5,1.6-0.7,0-1.4,3.8c-0.7,3.8,0.2,2.8,2.1,4.9c1.9,2.1,5.6-0.9,6.1-1.4c0.5-0.5,0.5-0.2,0.5,1.2c0,1.4,0.7,0.9,0,2.8
				c-0.6,1.6,0.7,0.8,0.5,3l0.1,0c1.7-4.6,2.6-9.6,2.6-14.7C217.7,30.2,208.2,15.6,194.2,8.4z"/>
		</g>
		<g>
			<path d="M183,81c-1,0-2.1-0.2-2.5-0.3l-6.6-6.1l-0.5-3.6l-2.9-1.6h-3.4l-2.8-0.4l0.2-4c0.2-1.1,0.4-1.8,1.4-2.4
				c0.8-0.5,1.1-0.6,1.6-0.6c0.3,0,0.7,0.1,1.2,0.2c1.6,0.4,3.2,1.4,3.2,1.4l0.1,0.1l2.4-0.3l2.7-2.2l2.1-1.2l0.3-0.3l1.2,0.2
				l1.9,0.7l0.1,0c0,0,0.4-0.1,0.8-0.1c0.5,0,1,0.1,1.2,0.5c0.2,0.4,0.3,0.8,0.5,0.9l0.4,3.1l-0.5,2.3l1.4,1.7l0.1,0
				c0.5,0.3,1.2,0.8,1.3,1.2c0,0.1,0,0.1,0,0.2c-0.7,0.9-0.9,2-1,2.2c-0.3,0.6-2.6,5.2-2.1,7.5c0,0.3,0,0.4-0.1,0.4
				C184.8,80.7,184.4,81,183,81L183,81z"/>
			<path d="M179.9,60.3l0.8,0.1l1.8,0.7l0.3,0.1l0.3-0.1c0,0,0.3-0.1,0.7-0.1c0.5,0,0.7,0.1,0.7,0.2c0.1,0.3,0.3,0.7,0.5,1l0.4,2.9
				l-0.4,1.9l-0.1,0.5l0.3,0.4l1.2,1.4l0.1,0.1l0.2,0.1c0.4,0.2,0.8,0.6,1,0.8c-0.6,0.9-0.9,1.8-1,2.2c-0.5,0.9-2.6,5.3-2.1,7.8
				c0,0,0,0,0,0c-0.1,0.1-0.5,0.2-1.4,0.2c-0.9,0-1.8-0.1-2.3-0.2l-6.3-5.9l-0.4-3.2l-0.1-0.5l-0.4-0.2l-2.6-1.4l-0.2-0.1h-0.3h-3.2
				l-2.3-0.3l0.2-3.5c0.2-1.1,0.4-1.6,1.2-2.1c0.7-0.4,1-0.6,1.4-0.6c0.3,0,0.6,0.1,1.1,0.2c1.5,0.4,3,1.3,3.1,1.3l0.3,0.2l0.3,0
				l2.1-0.2l0.3,0l0.2-0.2l2.5-2.1l2-1.1l0.1-0.1l0.1-0.1L179.9,60.3 M179.6,59.2l-0.5,0.5l-2.1,1.2l-2.6,2.1l-2.1,0.2
				c0,0-1.6-0.9-3.3-1.4c-0.6-0.2-1-0.2-1.4-0.2c-0.7,0-1.1,0.3-1.9,0.7c-1.2,0.7-1.4,1.6-1.6,2.8l-0.2,4.5l3.3,0.5h3.3l2.6,1.4
				l0.5,3.5l6.8,6.3c0,0,1.4,0.3,2.8,0.3s2.6-0.3,2.4-1.5c-0.5-2.3,2.1-7.3,2.1-7.3s0.2-1.2,0.9-2.1c0.7-0.9-1.4-2.1-1.4-2.1
				l-1.2-1.4l0.5-2.1l-0.5-3.5c0,0,0,0.1,0,0.1c-0.1,0-0.2-0.1-0.4-0.8s-1-0.8-1.7-0.8c-0.5,0-0.9,0.1-0.9,0.1l-1.9-0.7L179.6,59.2
				L179.6,59.2z"/>
		</g>
		<g>
			<path d="M174,4.3c23.5,0,42.7,19.1,42.7,42.7S197.5,89.7,174,89.7S131.3,70.5,131.3,47S150.5,4.3,174,4.3 M174,3.3
				c-24.1,0-43.7,19.6-43.7,43.7s19.6,43.7,43.7,43.7s43.7-19.6,43.7-43.7S198.1,3.3,174,3.3L174,3.3z"/>
		</g>
		<circle class="st7" cx="174" cy="47" r="50"/>
	</g>
	<g>
		<g>
			<path class="st3" d="M39.7,75c-1.5,0-2.8-0.5-3.7-1.5c-0.9-1-1.2-2-1.1-2.9c-1.5-0.1-2.5-0.9-3-1.5c-0.7-0.9-1-1.7-1-2.5
				c-1.2-0.1-2.2-0.6-3-1.6c-0.7-0.9-1-1.7-1-2.5c-1.1-0.1-2.1-0.6-2.9-1.5c-1.1-1.2-1.3-2.8-1-4.3c0,0,0,0-0.1,0
				c-0.3,0-0.5,0-0.8-0.1c-1.4-0.6-3.1-1.1-3.1-1.1c-0.9-0.2-1.4-1-1.4-1.9V32.4c0-0.6,0.3-1.3,0.8-1.6c0.3-0.2,0.7-0.4,1.2-0.4
				c0.2,0,0.4,0,0.7,0.1l6.1,2.1c0.7,0.3,1.4,0.4,2,0.4c1,0,1.7-0.4,1.7-0.4c1.3-0.9,8.4-5.4,12.5-5.4c4.6,0,6.8,2.6,7,2.9
				c0.2,0.2,0.3,0.5,0.4,0.7c2.2-1.2,4.2-2.3,5.5-3c0.8-0.4,1.9-0.9,3.2-0.9c1.6,0,3.1,0.7,5,2.3c3,2.5,5.7,4.8,6.1,5.2
				c0.1,0,0.2,0.1,0.5,0.1c0.1,0,0.2,0,0.3,0c3.7-0.8,9.5-2.1,9.5-2.1c0.1,0,0.3,0,0.4,0c0.5,0,0.9,0.2,1.2,0.4
				c0.5,0.4,0.8,1,0.8,1.6v18.4c0,1-0.7,1.8-1.6,2c-0.4,0.1-4,0.8-4.9,0.9c-0.1,0-0.2,0-0.3,0.1c-0.5,0.1-1.3,0.2-2.1,0.2
				c-1.8,0-3.2-0.6-4.4-1.7c-2.8-2.7-12.5-12.4-13-12.8c0,0,0,0,0,0c0,0-0.4-0.3-0.9-0.3c-0.2,0-0.5,0-0.8,0.1
				c1.8,0.3,2.9,1.4,3.1,1.6c0,0,4,4,7.5,7.6l4,4c0.1,0,0.1,0.1,0.2,0.2c1.8,1.8,1.8,4.8,0,6.6c-0.9,0.9-2,1.3-3.2,1.4
				c0,1.1-0.5,2.2-1.4,3.1c-0.9,0.9-2,1.4-3.3,1.4c-0.2,0-0.4,0-0.7,0c-0.2,0.9-0.6,1.7-1.3,2.3c-0.9,0.9-2.1,1.4-3.3,1.4
				c-0.3,0-0.6,0-1-0.1c-0.2,0.7-0.6,1.4-1.2,2c-0.9,0.9-2.1,1.4-3.3,1.4c-1.3,0-2.4-0.5-3.3-1.4c-0.3-0.3-1-1-1.4-1.4
				c-0.3,0.6-0.7,1.2-1.3,1.7C43.5,74.2,41.5,75,39.7,75C39.7,75,39.7,75,39.7,75z"/>
			<path class="st8" d="M58.5,29c1,0,2.2,0.5,3.7,1.8c3.3,2.8,6.2,5.3,6.2,5.3s0.7,0.5,1.8,0.5c0.2,0,0.5,0,0.7-0.1
				c3.7-0.8,9.6-2.1,9.6-2.1v18.4c0,0-3.9,0.8-4.8,0.9c-0.4,0.1-1.2,0.3-2.2,0.3c-1,0-2.1-0.2-3-1.1c-2.8-2.7-12.9-12.8-12.9-12.8
				s-0.8-0.8-2.3-0.8c-0.6,0-1.4,0.2-2.2,0.6c-2.6,1.4-6.4,3.3-8,4.1c-0.7,0.4-1.3,0.5-1.9,0.5c-2.1,0-3.6-1.9-3.6-3.4
				c0-1.5,0.9-2.5,2.3-3.3c3.6-2.2,11.3-6.5,14.4-8.2C57.1,29.3,57.8,29,58.5,29 M42.5,29.3c3.7,0,5.4,2.2,5.4,2.2s-5.6,3-8,4.6
				c-1.7,1.1-2.9,3-2.9,5.2c0,3.4,2.7,6.1,6.1,6.1c0,0,0,0,0,0c0.6,0,1.8-0.3,3.6-1.2c1.6-0.7,3.7-1.7,5.3-2.4
				c0.5-0.2,1-0.3,1.5-0.3c1.6,0,2.6,1.1,2.6,1.1c5.9,5.9,0.7,0.8,11.7,11.7c0,0,0,0,0,0c1,1,1,2.7,0,3.8c-0.5,0.5-1.2,0.8-1.9,0.8
				c-0.7,0-1.4-0.3-1.9-0.8c0,0-4.1-4.2-4.7-4.2c0,0,0,0-0.1,0c-0.3,0.3,4.1,5,4.1,5c0.9,1,0.8,2.6-0.1,3.6
				c-0.5,0.5-1.2,0.8-1.9,0.8c-0.6,0-1.3-0.2-1.8-0.7c0,0-5.5-5.1-6.2-5.1c0,0,0,0-0.1,0c-0.4,0.4,4.3,4.5,4.3,4.5
				c0.1,0.1,0.3,0.3,0.3,0.3c1,1,1,2.7,0,3.8c-0.5,0.5-1.2,0.8-1.9,0.8s-1.4-0.3-1.9-0.8c-0.1-0.1-4.5-4.7-5.1-4.7c0,0,0,0,0,0
				c-0.3,0.3,3.4,4.2,3.5,4.2c1,1,1,2.7,0,3.8c-0.5,0.5-1.2,0.8-1.9,0.8c-0.7,0-1.4-0.3-1.9-0.8c-0.5-0.5-1.4-1.5-1.4-1.5
				c0,0,0,0,0,0c0.3-1.9-0.2-3.9-1.6-5.3c-0.7-0.7-1.6-1.3-2.6-1.6c-0.2-1.1-0.8-2-1.5-2.8c-0.7-0.7-1.5-1.2-2.5-1.5
				c-0.3-1-0.7-1.8-1.5-2.6c-0.7-0.7-1.5-1.2-2.5-1.5c-0.3-1-0.7-1.8-1.5-2.6c-1.2-1.2-2.8-1.8-4.5-1.8c-1.7,0-3.4,0.6-4.7,1.9
				c-0.8,0.8-1.4,1.7-1.7,2.7c-1.6-0.6-3.3-1.1-3.3-1.1V32.4l6.1,2.1c1,0.4,1.9,0.5,2.6,0.5c1.7,0,2.7-0.7,2.7-0.7
				S38.8,29.3,42.5,29.3 M29.3,52.9c0.9,0,1.8,0.3,2.4,1c0.8,0.9,1,2.1,0.7,3.3c0.3-0.1,0.6-0.1,0.9-0.1c0.9,0,1.7,0.3,2.3,0.9
				c0.8,0.9,1,2.1,0.7,3.3c0.3-0.1,0.6-0.1,0.9-0.1c0.9,0,1.7,0.3,2.3,0.9c0.9,1,1.1,2.4,0.6,3.6c0.4-0.1,0.8-0.2,1.2-0.2
				c0.9,0,1.7,0.3,2.3,0.9c1.3,1.4,1.2,3.6-0.3,5.1C42.5,72.4,41,73,39.7,73c-0.9,0-1.7-0.3-2.2-0.9c-1.3-1.5-0.3-2.9,0.2-4.1
				c-0.7,0.2-1.6,0.6-2.5,0.6c-0.7,0-1.3-0.2-1.8-0.8c-1.2-1.4-0.2-2.6,0.1-3.8c-0.7,0.2-1.5,0.5-2.3,0.5c-0.6,0-1.2-0.2-1.7-0.9
				c-1.2-1.5-0.2-2.6,0.1-3.8c-0.7,0.2-1.5,0.5-2.3,0.5c-0.6,0-1.2-0.2-1.8-0.9c-1.3-1.5-0.4-4.1,1.1-5.6
				C27.3,53.2,28.3,52.9,29.3,52.9 M58.5,25c-1.7,0-3.1,0.6-4.2,1.2c-0.9,0.5-2.3,1.3-3.9,2.1c-1.1-1.1-3.7-3-8-3
				c-4.5,0-11.3,4.2-13.5,5.7c-0.1,0-0.3,0.1-0.7,0.1c-0.4,0-0.7-0.1-1.1-0.2c-0.1,0-0.1,0-0.2-0.1l-6.1-2.1
				c-0.4-0.1-0.9-0.2-1.3-0.2c-0.8,0-1.6,0.3-2.3,0.7c-1.1,0.8-1.7,2-1.7,3.3v21.1c0,1.8,1.2,3.3,2.9,3.8c0,0,1.2,0.3,2.4,0.8
				c0.1,1.5,0.6,2.9,1.6,4.1c0.8,0.9,1.7,1.5,2.7,1.9c0.2,0.7,0.6,1.4,1.1,2.1c0.8,1,1.7,1.7,2.8,2c0.2,0.7,0.6,1.4,1.2,2.1
				c0.8,0.9,1.7,1.6,2.8,1.9c0.2,0.8,0.7,1.7,1.4,2.6c1.2,1.4,3.1,2.2,5.2,2.2c2.3,0,4.8-1,6.5-2.6c0,0,0,0,0.1-0.1
				c1.2,1.1,2.8,1.7,4.5,1.7c1.8,0,3.5-0.7,4.7-1.9c0.4-0.4,0.8-0.9,1-1.4c1.7-0.1,3.2-0.8,4.4-1.9c0.5-0.5,0.9-1.1,1.3-1.8
				c1.5-0.2,2.9-0.8,3.9-1.9c0.8-0.8,1.3-1.7,1.7-2.7c1.1-0.3,2.1-0.9,2.9-1.7c1.3-1.3,2-3,2-4.7c0.3,0,0.6,0,0.9,0
				c1.1,0,2-0.2,2.5-0.3c0.1,0,0.2,0,0.2,0c0.8-0.1,4-0.7,5-0.9c1.9-0.4,3.2-2,3.2-3.9V34.5c0-1.2-0.6-2.4-1.5-3.1
				c-0.7-0.6-1.6-0.9-2.5-0.9c-0.3,0-0.6,0-0.9,0.1c-0.1,0-5.4,1.2-9.1,2c-1-0.9-3.2-2.8-5.6-4.8C63.3,26.5,61.2,25,58.5,25L58.5,25
				z"/>
		</g>
	</g>
</g>
</svg>
