<?xml version="1.0" encoding="utf-8"?>
<!-- Generator: Adobe Illustrator 23.0.2, SVG Export Plug-In . SVG Version: 6.00 Build 0)  -->
<svg version="1.1" id="레이어_1" xmlns="http://www.w3.org/2000/svg" xmlns:xlink="http://www.w3.org/1999/xlink" x="0px"
	 y="0px" viewBox="0 0 100 11.8" style="enable-background:new 0 0 100 11.8;" xml:space="preserve">
<style type="text/css">
	.st0{fill:#94BCD8;}
	.st1{fill:#3B80AE;}
	.st2{fill:#162B50;}
	.st3{fill:#383231;}
</style>
<g>
	<g>
		<polygon class="st0" points="29.18,3.63 29.18,11.78 30.81,11.78 30.81,5.26 30.81,5.26 30.81,3.63 		"/>
		<rect x="30.81" y="3.63" class="st1" width="6.52" height="1.63"/>
		<polygon class="st1" points="38.97,3.63 37.33,3.63 37.33,5.26 37.33,5.26 37.33,5.26 38.97,5.26 		"/>
		<rect x="37.33" y="5.26" class="st2" width="1.63" height="3.73"/>
		<rect x="33.61" y="6.42" class="st2" width="1.63" height="3.73"/>
		<polygon class="st1" points="35.24,10.15 35.24,10.15 33.61,10.15 33.61,11.78 41.76,11.78 41.76,10.15 		"/>
		<polygon class="st0" points="41.76,3.63 41.76,10.15 41.76,10.15 41.76,11.78 41.76,11.78 41.76,8.6 41.76,11.78 43.4,11.78 
			43.4,3.63 		"/>
	</g>
	<polygon class="st3" points="8.25,11.78 0.93,3.98 0.93,11.78 0,11.78 0,0 0.93,0 0.93,3.61 9.98,3.61 9.98,4.54 2.59,4.54 
		9.4,11.78 	"/>
	<path class="st3" d="M12.63,11.78V3.61h9.98v8.17H12.63z M13.56,10.85h8.12v-6.3h-8.12V10.85z"/>
	<rect x="25.26" y="3.61" class="st3" width="0.93" height="8.15"/>
	<path class="st3" d="M46.17,11.78v-0.93h9.98v0.93H46.17z M46.17,8.17V7.24h9.98v0.93H46.17z M46.17,4.54V3.61h9.98v0.93H46.17z"/>
	<polygon class="st3" points="58.8,11.78 58.8,10.85 67.85,10.85 67.85,8.17 58.8,8.17 58.8,3.61 68.79,3.61 68.79,4.54 59.74,4.54 
		59.74,7.24 68.79,7.24 68.79,11.78 	"/>
	<path class="st3" d="M81.58,11.78V3.61h9.98v8.17H81.58z M82.51,10.85h8.12v-6.3h-8.12V10.85z"/>
	<polygon class="st3" points="93.44,11.78 93.44,3.61 100,3.61 100,4.54 94.37,4.54 94.37,11.78 	"/>
	<polygon class="st3" points="74.61,11.8 74.61,4.54 70.67,4.54 70.67,3.61 79.69,3.61 79.69,4.54 75.54,4.54 75.54,11.8 	"/>
</g>
</svg>
