<?xml version="1.0" encoding="utf-8"?>
<!-- Generator: Adobe Illustrator 23.0.2, SVG Export Plug-In . SVG Version: 6.00 Build 0)  -->
<svg version="1.1" id="레이어_1" xmlns="http://www.w3.org/2000/svg" xmlns:xlink="http://www.w3.org/1999/xlink" x="0px"
	 y="0px" viewBox="0 0 150 100.33" style="enable-background:new 0 0 150 100.33;" xml:space="preserve">
<style type="text/css">
	.st0{fill:#94BCD8;}
	.st1{fill:#3B80AE;}
	.st2{fill:#162B50;}
	.st3{fill:#231815;}
</style>
<g>
	<g>
		<polygon class="st0" points="16.43,0 16.43,64.84 29.42,64.84 29.42,12.99 29.44,12.99 29.44,0 		"/>
		<rect x="29.44" y="0" class="st1" width="51.82" height="12.99"/>
		<polygon class="st1" points="94.26,0 81.26,0 81.26,12.99 81.27,12.99 81.27,12.99 94.26,12.99 		"/>
		<rect x="81.27" y="12.99" class="st2" width="12.99" height="29.64"/>
		<rect x="51.67" y="22.21" class="st2" width="12.99" height="29.64"/>
		<polygon class="st1" points="64.66,51.85 64.66,51.85 51.67,51.85 51.67,64.84 116.48,64.84 116.48,51.85 		"/>
		<polygon class="st0" points="116.51,0 116.51,51.85 116.48,51.85 116.48,64.84 116.51,64.84 116.51,39.5 116.51,64.84 
			129.49,64.84 129.49,0 		"/>
	</g>
	<g>
		<polygon class="st3" points="14.04,100.29 1.59,87.02 1.59,100.29 0,100.29 0,80.26 1.59,80.26 1.59,86.4 16.98,86.4 16.98,87.98 
			4.41,87.98 16,100.29 		"/>
		<path class="st3" d="M19.15,100.29V86.4h16.98v13.9H19.15z M20.73,98.71h13.81V87.98H20.73V98.71z"/>
		<rect x="38.42" y="86.42" class="st3" width="1.59" height="13.87"/>
		<path class="st3" d="M65.12,100.29v-1.59H82.1v1.59H65.12z M65.12,94.15v-1.59H82.1v1.59H65.12z M65.12,87.98V86.4H82.1v1.59
			H65.12z"/>
		<polygon class="st3" points="84.58,100.29 84.58,98.71 99.98,98.71 99.98,94.15 84.58,94.15 84.58,86.4 101.56,86.4 101.56,87.98 
			86.17,87.98 86.17,92.56 101.56,92.56 101.56,100.29 		"/>
		<path class="st3" d="M120.21,100.29V86.4h16.98v13.9H120.21z M121.8,98.71h13.81V87.98H121.8V98.71z"/>
		<polygon class="st3" points="138.84,100.29 138.84,86.4 150,86.4 150,87.98 140.43,87.98 140.43,100.29 		"/>
		<polygon class="st3" points="109.91,100.33 109.91,87.98 103.21,87.98 103.21,86.4 118.56,86.4 118.56,87.98 111.5,87.98 
			111.5,100.33 		"/>
		<polygon class="st3" points="41.83,100.29 41.83,86.4 43.42,86.4 43.42,87.98 43.41,88.73 43.41,100.29 		"/>
		<rect x="43.42" y="86.4" class="st3" width="10.81" height="1.59"/>
		<rect x="54.22" y="86.4" class="st3" width="1.59" height="1.59"/>
		<rect x="54.22" y="87.98" class="st3" width="1.59" height="7.04"/>
		<rect x="47.2" y="91.67" class="st3" width="1.59" height="7.04"/>
		<rect x="47.2" y="98.71" class="st3" width="13.89" height="1.59"/>
		<rect x="61.04" y="86.4" class="st3" width="1.59" height="13.9"/>
	</g>
</g>
</svg>
